<?xml version="1.0" encoding="UTF-8"?>
<svg id="Calque_2" data-name="Calque 2" xmlns="http://www.w3.org/2000/svg" viewBox="0 0 712.15 383.07">
  <defs>
    <style>
      .cls-1 {
        fill: #080204;
      }

      .cls-2 {
        fill: #3e1606;
      }

      .cls-3 {
        fill: #220804;
      }

      .cls-4 {
        fill: #190203;
      }

      .cls-5 {
        fill: #594240;
      }

      .cls-6 {
        fill: #150b0c;
      }

      .cls-7 {
        fill: #040103;
      }

      .cls-8 {
        fill: #3b271c;
      }
    </style>
  </defs>
  <g id="Calque_2-2" data-name="Calque 2">
    <g>
      <path class="cls-7" d="M352.69,19.96l.88-.13c1.09.46,1.39,1.96,1.52,3.98l8.66,3.86c2.85,3.29,7.5,7.04,11.83,4.1,1.67-1.13,4.15-3.41,6.41-2.46l2.42,17.39c-3.65,5.74-2.56,19.81,1.94,25.49l-.87,4.47c-1.64-.07-4.84.36-6.52.88l-7.29,2.26c.1-.84-1-3.49-2.04-3.7-1.21-.25-3.01.84-4.16,1.69-8.92-.49-6.94,1.61-14.15,2.16l-11.66.89-.92-2.04c-3.11.91-6.55,1.87-8.71,3.5l-13.17,9.95c-5.75,4.34-12.36,7.29-19.56,8.34l-.86,1.09h-2.89s-13.98.1-13.98.1h-3.99l-2.08.89-1.99.04c-9.71-3.21-26-2.08-33.89,6.37-2.83,3.03-10.33,3.39-8.72,9.53-6.36-.63-10.2,11.43-11.47,16.28-2.24,3.95-3.7,8.39-4.96,12.83l-38.89-5.01c-31.85-4.1-20.73,8.86-63.74,5.78-30.84-2.21-25.31.25-52.11.78-2.26.05-2.03,4.52-1.48,6.19-.82-1.41-3.32,26.04-1.19,22.95.04.26.17,1.16.26,1.51.13.48,1.25.17,2.11-.01,7.65-1.65,15.06.5,22.64.66l14.62.31c5.91.13,11.33-1.92,16.48,2.77l13.49-1.86,7.39,1.33,15.18,2.72,18.55,3.03c5.62.92,11.29,1.28,17,2.76,4.81,1.25,9.46,3.72,14.73,3.57,1.12-2.42.44-5.33-.17-8.15,1.87-10.09,3.12-7.19,5.14-12.09,1.83-4.44-7.83-.63-8.96-8.2l-9.88-.74c-.9-.07-2.74-.85-3.41-1.19s.07-2.93.95-3.1c3.99-.76,10.88,1.37,14.99,1.2,5.01-.21,8.77-1.79,12.52,1.75-.61,3.69-.38,8.37-.54,12.17l-.41,9.67c-.37.08-1.55.3-1.61.75l-.33,2.24-1.11,8.03c-.12.89,2.06,2.98,2.61,2.92-.05,1.42.08,3.49.13,4.98l-18.79-2.69-53.82-6.57c-5.73-.7-10.58-1.16-16.29-.13,7.22,4.8,10.59,2.1,20.4,6.07l11.91,1.82,40.75,5.28c5.64.73,10.86-.36,15.88,2.19l2.83,24.81c2.23,19.5.56,28.2,2.79,46.89.41,3.4,3.17,7.41,5.55,10.52l-1.43-19.29-2.1-29.93-2.04-41.79c-.6-12.34.54-12.54.48-25.2,0-.44-.13-3.61-.27-3.87l.5-3.8c.84-.12,1.59-3.8,1.61-4.38.07-2.25.41-6.77.83-9.15l1.31-7.38c.46-2.58,2.97-11.14,3.11-11.42l4.89-9.63c1.33.53,7.42-6.57,8.02-8.07l5.21-1.81c1.69,2.91,3.26,4.29,5.65,4.14-.59.79-.8,2.74-.88,3.76l-1.15.83c-4.01,2.89-8.12,18.2-9.57,23.43l-1.01,3.63c-1.32,4.79-2.54,14.48-3.16,19.88-1.24,10.75-1.04,20.72-1.06,30.92,0,6.29.05,12.77.79,19.32,1.73,15.28.84,25.58,2.61,43.76.91,9.32.36,18.02.67,28.03.04,1.44,4.16,2.21,6.04,1.37l-.75-20.67-.69-14.39-1.63-32.38c-.43-8.59-1.21-16.89-1.22-25.14-.02-14.31.41-28.69,3.08-43.11.61-3.27,1.08-6.17.92-9.04l3.05-11.67,5.03-9.86c1.11-.59,2.1-1.66,3.32-2.88l9.09-9.08c3.79-.52,7.37.66,8.82,3.84-3.21,4.83-5.74,10.23-6.94,15.87-1.71,2.56-2.06,6.18-3.16,9.06-1.93,5.07-3.31,10.35-3.39,15.89-.68.74-1.31,2.59-1.42,3.98l-1.21,16.07-.38,7.1c-.25,4.6-2.32,29.26,2.37,29.99l-.02,2.79c-.44.95-.82,2.9-.88,4.24l-.17,3.74c-.31.46-.86,2.3-.87,3.16l-.03,5.82c0,.34.52.87.75,1.08l1.19,42.11.8,11.79.29,3.28c.08.84,2.62.64,4.21.33l-.79-48.45c-.17-10.51-1.46-20.11-1.32-30.01.16-11.45-.4-23.01.74-34.72l1.65-16.91,1.08-7.38.55-4.65c.54-.07,1.71-.36,1.71-.87l-.03-2.44c.03-.46.11-1.33.12-1.77.53.11,2.53-.82,2.25-1.48l-1.13-2.68c-.06-.5-.21-1.4-.18-1.87,3.44.41,2.36-6.27,7.9-15.11,2.2-3.5,4.25-6.62,5.27-10.05,4.94-5.65,10.75-10.28,18.56-12.99s15.78-.23,22.31-1.83c1.17.3,2.79.4,3.94.1.79-.11,2.23-.37,2.98-.35l-.91,3.23c-7.22,1.76-13.69,5.32-19.69,10.25l-1.24,4.92c-7.43-1.58-13.97,19.53-15.04,25.03-1.31,1.2-1.91,4.88-2.07,6.65-.09-.03-.69.72-.72,1.08l-.14,1.97c-.71,10.09-2.97,9.36-2.59,23.2l.37,13.64.04,2.08c.02,1.07.16,3,0,3.99-.71,4.31-.78,12.9-.33,17.63l1.42,15.07,2.66,36.1c.56,7.64-.09,15.48,1.03,22.86l1.52,9.99c.11.74.62,1.81,1.18,2.32,4.72,4.33,1.3-25.98,1.29-26.18l-2.4-39.83-1.8-27.39c-.38-5.74-.55-11.32-.56-16.69-.02-8.85,1-18.96,2.15-27.66.94.07,2.2-1.61,2.19-2.54-.02-1.66-.77-3.8-2.11-3.7l.89-3.65c1.17-.33,2.63-1.82,3.03-3.07l3.39-10.46c1.2-3.7,2.65-6.59,4.47-9.44,4.87-3.16,10.79-4.45,16.17-2.03-.63,1.09-.5,3.76-.53,4.98-.9,1.56-2.62,4.33-2.99,6.16l-2.55,12.87-2.44,8.63c-2.43,8.62-.5,17.06-1.62,25.06-2.19,15.59-2.5,31.39-1.26,47.85.27,3.61.73,7.53.78,11.06l.77,50.38c.06,3.86,0,8.43,5.75,10.04,1.26-43.76-4.45-75.48-.41-118.5l1.57-16.76c.61-6.46,1.29-13.09,2.91-18.92,1.41-.77,1.77-2.61,2.01-5.14l1.56-5.1c.13-.42.13-1.29.15-1.76,2.77-1.69,3.25-6.16,5.1-9.18,1.65-2.69,3.98-5.22,5.05-7.71l2.14-.2c3.13.33,6.57.21,9.9.08-.09.95-.2,2.29-.33,3.18-1.63,1.78-3.25,4.36-4.17,6.87l-3.58,9.82c-5.98,16.09-8.6,33.55-8.93,50.73-.3,2.02-.97,5.05-.96,7.42l.31,58.42-.18,42.89,6.07,3.59.61-8.03c.4-5.29.59-13.96.41-19.26l-.63-19.36-.16-31.87c-.08-16.11.79-19.75,1.09-33.76.21-9.98,1.79-19.95,3.54-30.32,1.52-9.04,2.2-18.14,6.11-26.29,1.89-2.69,3.38-5.69,4.48-8.81,1.73-.66,3.39-2.28,4.31-4.08l3.11-6.1c.79-.53,1.92-1.54,2.56-2.24,11.43-6.43,11.7-7,24.23-8.56.5.04,1.5.03,2,0l.97.85,13.02.06c5.42.03,10.81-.24,15.98-1.17,6.81-1.23,13.2-4.87,19.01-9.01,12.98,2.86,8.06-6.11,16.71-8.15.73-.17,1.64-.84,2.01-1.5,1.97-3.46-2.89.51-3.62-.83-.14-.26-.37-.96-.46-1.23l4.43-4.97-6.27.46c-1.56.12-4.29-.36-5.94-.61-.06-.44-.18-1.76-.67-1.78l-2.11-.12c.44-1.26.89-2.88,1.06-4.03l.18-2.18c1.78-.22,2.49-2.97,2.54-4.85,1.85-.27,11.81-10.02,9.63-12.02-7.16-6.56-.84-6.71-5.69-9.98l.07-1.96c2.36.02,4.5-.86,6.78-2.08l13.01-6.98c2.15-1.15,6.62-1.88,9.38-2.86,5.06-1.79,10.32-1.41,15.06.88l9.1-1.3c.92-.13,2.54-2.82,3.46-2.62,5.8,1.27,10.98,4.34,11.07,12.01l6.78-.84c.27,1.18,14.43,1.76,11.88,2.51l3.59-1.06,7.87.13c2.33.04,6.5-1.02,8.61-1.12,6.51.45,12.85.8,18.53-4.18,2.08,1.36,5.58,3.82,7.62,3.42,1.45-.29,2.89-3.13,4.04-3l5.03.57c2.48-.55,5.41-1.11,8-1.11l12.14-.03c8.48-.02,18.67-1.67,22.99-.72l14.12,3.13c4.83,1.07,6.55-6.08,14.2-.09l9.21.29,7.78,7.43c5.25,5.02,2.16,12.71,4.57,20.32,2.1.63,1.86-20.41,6.85-18.83,1.21.18,3.27,19.52,3.29,20.98l.19,13.69.05,9.86c0,.88-.31,2.66-.52,3.53-3.19,1.38-6.55,2.5-9.92,3.03l-.22-2.51c-.07-.77-2.22-.16-3.01-.21l-4.81.56-8.09,1.53c-4.94-.51-9.97-.39-14.85.68,0,0-2.7-2.59-4.04-2.29-2.51.23-5.11,1.76-7.05,3.9-6.52,7.19-12.9,13.74-19.75,19.98-3.68.37-8,2.42-12.01,3.09-2.18.36-4.52.38-4.88,1.71l-1.15.14c-.27.03-.76.16-1.01.21,0-.32.17-1.27-.18-1.38-8.56-2.82-20.77-2.86-28.88,3.37-3.38,2.6-5.12,4.65-7.64,7.81l-7.67,9.64c-.76.96-1.54,2.24-1.57,2.96s.74,1.97,1.12,2.64l-3.38,6.03-2.38.32c.22-.03-6.14,18.44-5.43,20.38-.09-.05-.75.79-.73,1.17l.1,1.82c-1.29,4.81-1.4,9.72-2.02,14.96l-1.32,11.09c-2.34,19.61-.82,39.56.43,59.84l2.16,34.85c.46,7.4.41,14.52.46,22.03.03,4.29-.5,16.63,4.66,16.03,1.04-.12,1.95-2.61,1.89-4.02l-1.95-47.55-1.36-34.29c-.48-12.05-.81-18.22,0-30.2l1.27-18.57c.41-6.08,1.94-11.64,1.27-17.3l.24-1.75c1.11-.16,1.64-2.18,2.05-3.94l2.51-10.9,5.02-15.3c.57-1.73.8-3.16,2.37-3.93l4.43-3.26,12.32,4.18c-2.03,4.79-3.29,10.03-4.7,14.91-2.43,8.39-5.13,16.94-6.1,26.13-1.3,12.36-2.34,24.03-1.84,35.83.04,1.05-.13,2.97-.13,4.11v1.99c.02,10.55.71,21.15,1.27,32.22l2.43,47.58.77,11.23c.03.39,0,1.02-.05,1.41-.36,2.36-.97,7.83,1.17,8.88s6.1.69,6.31-.74c.29-2-.03-4.83-1.78-4.98l-.34-41.54.29-7.11c.02-.52-1.91-1.22-2.04-1.07l-.13-10.83.15-1.91c.18-2.25-.84-6.7-.81-9.06l.53-37.26v-3.57s.09-2.39.09-2.39c.51-14.86,2.12-13.03,2.15-24.64.14.17,1.99-.61,1.99-1.18l.02-4.92c0-.77.19-2.23.29-3.07,1.66-1.51,1.63-4.42,1.72-6.91l.16-4.12c1.25-.58,1.74-2.19,1.7-3.73l.13-2.12c.31,0,1.11-.03,1.44-.11.51-.14.58-1.36.55-1.88l-.14-3.31.26-.9,4.21-5.64-2.35-2.19.73-.2c1.46.11,3.69,1.23,5.13,2.49,5.07,4.42,8.28-1.05,14.06-.14l-2.77,10.8c-.34.56-.95,1.64-.95,2.28,0,1.26-.25,2.51-.72,4.15-2.07,7.2-2.71,14.59-3.47,21.73-.21,1.94-.36,3.62-.23,5.59l-1.71,1.04-.32,17.34-1.41,7.04c-1.71,8.58,1.06,72.55-.1,87.37-.38,4.9-.27,9.75.72,14.32s1.15,13.42.98,16.87c-.01.23.13.44.36.5.55.15,1.4.31,1.88.3l3.62-.06-.21-36.65-1.41-38.82c.87.1,2.1-1.7,2.11-2.68.01-1.45-.78-3.87-2.11-3.65v-16.61s1.38-.11,1.38-.11c.56-.05.8-.73.39-1.11l-1.1-1.05,1.32-30.67c-.11.36,1.99-.88,1.97-1.41l-.42-10.96c-.08-2.01.33-5.68.39-7.61l1.43-.09c-.37.02,2.85-20.95,5.14-26.1l3.83-8.58c.74-1.66,5.36-10.33,7.55-11.13,1.33-.49,3.82.3,5.93,1.69l-4.98,2.69-3.14,11.55,6.86,1.04c1.91,5.64-.92,10.98-3.51,15.67l1.91,2.94c-.34-.52-3.35,16.1-5.32,18.84.71,2.67,3.41,5.24,6.18,7.6l-3.79.2c-.99.05-2.02,3.09-1.33,3.81.83.87,2.22,2.12,3.76,3.5-1.16,3.97-2.36,11.34-1.12,15.28.24.77,3.03,1.82,2.78,2.53-1.33,3.78-6.03,1.74-6.11,3.05-.25,4.14,3.02,11.09,5.68,15.73l-3.33,11.19c-.41,1.37-.45,2.82-.11,4.21l2.84,11.82c.22.92.92,2.54,1.6,2.56l3.84.14-4.34,2.78c-.1,2.74,1.7,8.04,2.87,10.46.4.82-1.67,3.89-1.2,4.68l2.11,3.55c-.47,2.95-.82,8.6.75,10.7,3.51,1.81,7.72,2.87,8.19,6.42l-13.66,9.57c-.97.68-3.3,1.33-3.54,2.29s.09,2.94.37,3.89l-.19,2.84-1.02.09-1.12.11c0-.45-.38-1.45-.65-1.83-.16-.23-.58-.12-1.07-.14-.3.03-1.18.11-1.56.19-.55.11-.81,1.31-.83,1.77-9.78,4.17-11.2,10.19-16,10.09l-6.4-.13-1.17-1.27c-.24-.26-.77.12-1.2.32-4.7-.37-11.56-.34-16.08-1.06-3.35-.53-9.88-4.57-12.88-2.98-.61.33-2.09.04-2.78.04.06-.94-1.74-2.53-2.7-2.32-1.54.33-3.77,1.02-4.61,1.49h-2.88c-.8-.28-2.38-1.02-2.97-.46l-2.25,2.13c-3.29,3.11-2.97,6.12-2.66,10.26.21,2.89.65,8.51,1.52,11.09.31.9,3.23.3,3.45-.62l.83-3.51c.46,1.42,1.53,6.25,3.33,6.46,4.24.48,9.73.43,13.58.38l2.82-.03c1.25,1,2.85,1.5,4.46,1.56.79.07,2.25.16,2.97.34l6.43,1.63c2.67.68,6.53.62,9.2.61.44.66,1.99,1.63,3,1.79l7.33,1.18,1.08,2.64c-6.05.5-12.29.33-18.36,0-1.85-2.03-4.95-1.81-7.67-1.8h-6.3s.08-1.76.08-1.76l-7.75-.22-6.25-.19c-.33-2.45-3.46-2.13-5.72-1.76l-4.28-.17c-7.7-7.08-7.4-6.44-14.63-5.78-3.2.29-6.93-.45-10.1-.96.24-.9-1.6-2.44-2.5-2.25s-2.67,1.08-3.59,1.07l-5.12-.04c-.61-2.99-4.09-1.99-6.69-1.85-1.99.11-4.36-.63-6.24-1.07-4.79-4.8-6.61-1.7-14.18-6.33l-20.76-2.94-7.29-.92-26.9-4.11c-1.03-.16-2.97-.34-3.95-.4-.84-.06-.67,2.45-.68,3.06-4.61.56-9.06-.86-13.85-2.34-20.86-6.41-10.25-2.01-23.29-3.68-2.22-2.13-7.03-2.28-9.92-1.27-2.51-.32-5.63-.34-8.2-.53-1.47-3.17-4.04-3.84-7.65-3.81l-13.14.09c-2.29.02-4.32.23-4.7,2.19l-8.33-.09c-.53-2.7-3.44-1.69-5.69-1.76l-6.28-.2c-.5-2.76-3.43-1.73-5.71-1.79l-8.29-.21c-.59-2.34-3.38-2.2-5.68-1.79l-4.28-.16c-.33-.94-1.87-2.37-2.88-2.41l.61-4.13c3.92,1.75,5.98,2.51,9.3,2.56,17.58.3,11.11,2.02,25.18,2.39,2.6,3.77,1.1-.99,8.55,2.91.53.28,1.95.52,2.52.5s1.28-1.81.82-2.15l-1.88-1.44-4.63-3.47c5.4-2.73,4.85-4.87,5.2-8.67l.85-9.3-8.64-.2-12.88-1.49c-1.66-.19-3.58-.13-5.28.2-.19-1.33-16.42-3.57-16.62-2.04l-1.31.06c1.17-1.77-1.71-2.09-3.18-1.81-.94.19-1.89,1.42-2.04,2.58l-.53,4.02c-2.49,1.55-1.48,4.71-1.1,7.69,1.87,14.69,2.23,2.95,3.07,11.74l-.85.6c-.87-.05-2.35-.15-3.14-.12l-.6-2.76c-.15-.72-2.47-1.04-3.26-1.05l-13.33-.1c-1.5-.01-3.89.74-5.04,1.38-10.61-4.3-28.76-2.7-37.19-10.24l1.16-2.72c.35-.82-1.48-1.99-2.24-2.9l-.92-1.1c-1.21-1.45.04-3.62,1.9-3.32,11.12,1.81,13.99,3.37,23.67,6.39,2.1.66,6.21-.81,9.08.86l1.43-9.75c2.08-1.57,3.86-5.8,3.16-7.75-.25-.69-2.69.18-2.82.63l-3.87-.09c-.79-.46-2.36-1.04-3.26-1.05l-12.88-.07c-1.96-.53-4.54-1.3-6.54-1.59l-14.03-2.04c-1.01-.15-2.96.83-3.49,1.49-.42.06-2-.1-2.12.45l-.73,3.6c-.8,3.95-1.78,7.77-2.88,11-.93-1.19-3.34-1.48-4.88-1.14-.87-.03-2.54-.06-3.38-.19-1.72-3.45-5.81-3.08-8.79-3.67l-18.28-3.62c-5.89-1.17-33.55-.46-41.83-1.63-1.26-2.02-3.57-3.34-5.74-2.77l-2.27.08c-2.78.1-5.88-.06-8.9-.57l-9.52-1.59-30.16-5.89c-4.49-.88-9.76-.32-14.34-.05-1.03-1.8-2.35-2.86-4.76-4.5l-4.91,6.42-13.03-.88c-.1-.74-.92-2.49-1.59-2.17l-2.81,1.34-2.93-.29c2.74-1.11-11.63-5.58-10.76-3.75l-5.18-.9c2.22-1.65,3.27-3.73,3.75-7.11,15.56.31,11.52-1.83,24.94,3.9l1.54-8c.82-.37,2.47-1.64,2.2-2.54-.39-1.34-1.33-3.19-1.91-4.01,1.79-.21,3.57-.85,1.18-1.52-2.98-2.41-4.58-1.79-7.4-1.72-18.89.42-10.09-2.87-15.85-2.75l-6.4.13c-1.82.04-3.75-.36-4.87-1.27l-1.99-.72c-.45-.16,1.65-1.87,1.69-2.35,1.45-17.71-2.08-12.88-1.67-25.07.25-7.65-.72-14.6-1.53-22.02l-1.87-17.12c-.92-8.4-1.48-17.09-1.29-25.65l.51-22.8.03-9.01c0-.63-.02-1.71.02-2.28l.21-2.7c.23-2.99.81-3,1.12-4.38,1.03-4.59,1.81-10.68,3.74-14.96,6.65.34,6.04-7.78,9.9-11.4l6.21-5.83c3.11,5.43,5.24,4.42,4.69,7.5-1.75,3.33-3.44,6.58-4.56,10.04-3.13,5.7-5.22,18.72-6.29,25.05l-1,7.79-.07,3.13c-.02.84.03,2.08.06,2.98-2.04,3.71-1.54,8.29-1.27,12.94l.82,13.88,2.1,30.88,1.92,22.89,1.48,26.74,5,.19-1.38-22.74-4.3-55.93-.49-26.08c-.06-3.05.7-7.18,1.28-10.54l2.95-17.08c-.46-1.24.99-3.4.99-3.4.2-1.1.54-2.73.88-3.78.64-.14,1.71-1.01,2.13-1.8l11.09-12.06c1.96-1.85,4.04-2.62,5.94-1.22l-.17,1.11c-.22.27-.62.75-.72,1.08l-2.32,7.76c-4.83,8.64-6.65,19.03-7.65,29-.19,1.91-.27,5.28-.27,7.04,0,.51.11,1.52.05,2.03-2.06,15.7-.02,46.87,1.63,62.61l1.79,17.18,1.31,17.71,1.28,9.09c.14,1.01.66,3.59,1.53,3.81l3.76.99-1.82-17.71-1.87-17.92c-1.37-13.09-1.79-25.66-2.1-38.94-.23-10.15-.9-19.61-.48-30.08l.65-16.03c.04-.9.53-2.66.47-3.56,2.59.07,1.59-3.36,1.59-5.33s.06-4.76.42-6.6c.57.08,1.06.2,1.19-.13l.79-1.97c8.59-21.28,4.56-18.66,22.07-35.53.83-.8,4.01-1.46,3.77-2.52,2.16-.34,4.38-1.27,6.03-2.65.28-.02.76-.06,1.01-.09l2.67-.38c20.66-2.96,9.9,1.77,20.33,1.75h7.12c1.47,4.69,19.68,3.38,23.35,2.85,2.56-.37,14.87-4.61,18.33-6.4,1.01-.52,2.52-3.25,3.6-3.31,1.56-.09,4.04-.25,4.44-1.14.48-1.06.84-3.2.98-4.5.51-.28,1.43-.9,1.94-1.25.08.34.24,1.3.59,1.2l1.98-.6c2.8-.86,5.68-1.63,8.59-2.24,1.68-.35,2.84-3.42,2.59-5.18l1.28-3.49-5.24-.02c-3.19-.01-6.65.28-9.89.69l.12-2.13c3.93-.93,9.11-3.5,7.88-7.82.04-.52.12-1.5.13-2.01,4.57.17,5.02-4.14,6.28-7.9l4.72-14.09,6.08-18.97c.82-.53,2.28-1.07,3.24-1.32l-3.31,8.74,4.48.76c1.17.2,2.21-2.48,3.18-3.28l6.77-5.59,12,.31c.85.02,3.19,1.57,3.73.93l3.26-3.82c-.91,4.3-1.46,7.19-1.33,11.82l5.22-4.57,14.03,2.31c3.78.62,9.44.69,13.06.46,3.8-2.23,7.75-4.24,11.64-2.16l3.26,8.89,4.24-3.35c3.5.59,7.27-.05,10.67-.53l19.03-2.65c16.54-2.31,8.38,1.16,16.36-1.9.3-.12.69-.06.76.22.07.3-.5,2.51-.27,2.71,2.23,1.96,8.17,1.52,11.57,1.55l16.71.14c1.16.26,3.22.97,3.64.12l1.95-3.9ZM268.62,41.09l-4.63-.75c-.16,6.8-6.38,5.94-7.14,15.02,2.76-1.65,23.94-12.29,11.77-14.27ZM85.09,192.81c-2.94-1.94-5.87-3-9.27-3.32l-20.29-1.9c-1.16-.11-3.53,2.92-2.67,3.33.67.33,2.08.76,3.02.87l13.98,1.63c5.26.61,9.54,2.13,15.23-.61ZM93.85,192.48c-3.88-.93-6.21-.94-8.47-.26,1.99,3.57,6.49,3.05,8.47.26ZM99.82,193.96c-.58.12.81,1.95,1.38,1.74l1.58-.6c.37-.14-.18-1.7-.57-1.62l-2.39.49ZM214.65,298.79c0-.28-.22-.5-.5-.5s-.5.22-.5.5.22.5.5.5.5-.22.5-.5Z"/>
      <path class="cls-1" d="M710.01,128.73v1.99c-.91-.02-3.18-.13-3.63.69l-1.63,2.99-2.04,3.74c-.38.71,1.55,2.44,2.33,2.48l3.12.15c.61.03.81,1.65.92,2.13-.03.24-.09.68-.11.92l-2.85.57c-.73.15-1.04,2.25-1.2,3.4-.35,2.55,1.05,5.09,3.36,5.15l-.41,6.46c-2.39-2.15-4.76,8.16-4.48,8.25l2.82.88-.02,4.17-2.63.28-1.43,8.11c3.11,2.17,3.23,5.37,2.96,8.6-.29,3.47-1.24,13.15-1.44,13.92-1.88-.32-3.84.67-3.87,2.36-.03,1.86.81,3.74,2.31,3.59l.02,2.97-1.6.08-.09,7.75,2.13-.08.3,3.03c-.27-.05-1.35-.26-1.35.1l-.05,1.98-.45,9.96-.07,10.94c-.58.03-1.82.18-1.81.76l.05,2.27-.07,12.04-.24,5.15c-1.24.1-2.89.29-2.62,1.01.28.76.83,2.1.83,2.71l-.21,18.24c-1.68-1.65-6.79,7.38-11.22,9.74-.65.63-1.33,2-1.48,2.89l-3.21.14c-1.53-.37-4.1-.34-5.36.41l-10.77,6.44-14.84,8.32-6.58,3.37c-2.95,1.51-6.55,2.75-9.22,4.62-.46-3.55-4.68-4.61-8.19-6.42-1.57-2.1-1.22-7.75-.75-10.7l-2.11-3.55c-.47-.79,1.6-3.86,1.2-4.68-1.17-2.41-2.97-7.72-2.87-10.46l4.34-2.78-3.84-.14c-.68-.02-1.38-1.64-1.6-2.56l-2.38-9.9c-.31-1.28-.72-4.86-.35-6.12l3.33-11.19c-2.66-4.64-5.94-11.59-5.68-15.73.08-1.31,4.78.73,6.11-3.05.25-.71-2.54-1.76-2.78-2.53-1.24-3.94-.05-11.31,1.12-15.28-1.54-1.38-2.93-2.63-3.76-3.5-.69-.72.34-3.76,1.33-3.81l3.79-.2c-2.76-2.36-5.47-4.93-6.18-7.6,1.97-2.74,4.98-19.36,5.32-18.84l-1.91-2.94c2.6-4.69,5.42-10.02,3.51-15.67l-6.86-1.04,3.14-11.55,4.98-2.69c-2.11-1.39-4.6-2.17-5.93-1.69-2.19.8-6.81,9.47-7.55,11.13l-3.83,8.58c-2.29,5.14-5.51,26.12-5.14,26.1l-1.43.09c.03-.8-.23-2.38-.25-3.18-.08-2.48.87-7.24,1.7-9.95l1.76-10.06-2.28-1.87c1.56-.64,3.36-3.17,4.26-4.97l4.29-8.63,4.33-7.45c1.1-.84,3.4-2.62,4.07-3.85l5.63-3.51c2.8-1.75,5.53-3.78,6.47-6.41l1.74-.25,10.83.33c.72.02,5.69.66,6.59.49l10.78-2.03c14.98-2.82,19.96-17.27,32.01-26.76l7.43-5.11c2.39-.19,6.88,1.56,6.88,1.56l2.46,13.75c.33-.03-2.39,1.37-2.47.66l-.45-3.69c-.2-1.64-.5-3.35-.79-4.31-.23-.77-3.42-.45-3.79.26-2.66,5.07,5.32,19.86,9.58,18.03Z"/>
      <path class="cls-5" d="M703.65,203.59c-.18-3.43,1.15-10.45,1.44-13.92.86-1.51,1.1-3.81,1.1-6.09v-10.9s.02-4.17.02-4.17c3.4-1.88,1.45-5.89,1.65-9.13l.41-6.46.68-9.12c.02-.24.08-.68.11-.92,1.74-3.47.81-8.11.93-12.17v-1.99l.2-18.9c.04-3.42-.09-8.2-4.08-9.2l-5.52-1.38-.59-21.38v-36.92c-2.29-.86-5.28-.86-7.14-.22-1.44-.78-3.88-2.44-5.44-3.1l-7.73-3.27-8.68-3.64c-3.55-1.49-6.78-1.48-10.21,1.27l-4.87-3.83c-5.29-.14-18.85-.9-18.85-.9-9.85.72-12.32-1.44-18.3-2.45-2.38.07-6.77,0-9.29-.18-3.04-4.86-9.14-1.72-13.3-2.27l-13.92-1.85-13.34-1.43c-4.63-.5-9.2-.87-13.84-.99l-2.77-.07-2.22-.02c-.53,0-1.47,0-1.96-.05-18.21-1.5-3.41-.25-19.07,1.06-1.16.1-3.33-.13-4.63-.2,0,0-3.72.07-3.38.24-4.1.08-7.98-.1-11.71-2.05l-11.72.94-18.44,1.27c-4.9.34-8.69.75-13.61,2.67-3.03,1.18-5.84,1.9-8.07,4.13-2.97,2.97-5.49,5.62-7.37,8.73-4.15.66-7.8,9.84-7.93,13.24l-.07,1.96-2.37,1.06c1.7-11.55,8.08-23.1,19.55-28.59,10.86-5.2,21.91-6.88,33.96-5.93,4.4.34,8.38-1.57,12.42-2.22,6.97-1.13,14.25-.39,21.6-.68,3.1-.12,6.93,1.53,9.85,1.71,8.2.5,15.73.35,24.05.4,2.27.02,5.58,1.41,7.7,1.66,8.59.99,17.57-.64,26.06,1.1,3.49.72,6.36,1.45,10.04,1.23,5.63-.35,10.39,1.23,15.65,1.48l21.44,1.02,11.61,1.74c9.8,1.47,18.82,4.91,28.47,8.02,4.54,1.46,9.36,3.35,13.43,5.54,1.37.74,6.38,2.68,6.37,4.45l-.07,46.99c0,2.73-.82,7.07,1.34,8.63,1.69,1.23,6.16,1.5,7.46,3.1s1.25,20.05,1.41,30.05c.12,7.12-2.31,13.29-2.39,20.26l-.16,13.59c-.03,2.71-1.63,6.7-1.63,8.85,0,8.7-.42,16.01-2.66,24.26l-1.65,5.96Z"/>
      <path class="cls-1" d="M360.74,15.94c-1.25.72-2.54,2.23-3.09,3.49,3.77-.67,6.96.81,9.16,3s16.41,6.07,21.68-1.16c2.08-.48,5.07,2.48,4.99,4.79l-.24,7.47-.9.08c-.32-.48-2.36.51-2.08,1.24l1.27,3.38-.32,38.68-5.73-.24.87-4.47c-4.51-5.69-5.59-19.75-1.94-25.49l-2.42-17.39c-2.26-.96-4.73,1.33-6.41,2.46-4.34,2.93-8.98-.81-11.83-4.1l-8.66-3.86c-.13-2.03-.43-3.52-1.52-3.98l2.9-3.98,4.66-2.35-.4,2.44Z"/>
      <path class="cls-3" d="M5.79,149.85l-.51,22.8c-.19,8.56.37,17.25,1.29,25.65l1.87,17.12c.81,7.42,1.79,14.36,1.53,22.02-.41,12.19,3.12,7.36,1.67,25.07-.04.48-2.14,2.19-1.69,2.35l1.99.72-3.7.53c.17-.16-.31-2.69-.31-2.69l-.1-6.19c-.03-1.74-.56-5.06-.82-6.74.27-.07-.09-2.08-.09-2.08,0-3.47-.14-6.99-.89-10.13l-.19-8.68c-.05-2.02-1.98-19.89-1.98-19.89l1.14-2.54c.22-.49-1.94-.66-2.07-.65,0,0-.31.12-.88-1.15s-.23-19.51-.23-19.51l1.19-2.61c.23-.5-1.95-.67-2.08-.66,0,0-.63-.41-.85-1.13s.1-27.91.1-27.91l2.32.21c2.11.19,1.17-4.54,3.28-3.9Z"/>
      <path class="cls-8" d="M385.48,76.68l5.73.24.26,1.81-.05,2.16-3.99.1c.07-3.41-14.82,3.6-14.63,3.49-9.83,5.52-18.35,13.46-29.42,16.8-2.74.83-6.01,1.53-8.89,2.23l-2.25.55c-.56.14-.74.92-.87,1.62l-7.9-.19c-.75-.02-2.2.23-2.98.35,12.28-4.19,23.01-9.97,33.33-18.69,4.85-4.1,12.09-5.54,17.85-7.32l7.29-2.26c1.68-.52,4.88-.95,6.52-.88Z"/>
      <path class="cls-2" d="M44.98,279.27l-4.87,1.8c-4.47-2.3-10.83-4.03-15.59-4.13-.86-.71-2.23-2.53-3.12-2.47-.71.05-1.94.86-2.9,1.57-4.98,3.69-6.42-2.11-11.71-3.67l-.11-3.18c5.91-2.63,18.39.79,16.52-2.46,5.76-.12-3.04,3.17,15.85,2.75,2.81-.06,4.41-.69,7.4,1.72,2.39.67.61,1.3-1.18,1.52.58.83,1.52,2.68,1.91,4.01.26.9-1.38,2.17-2.2,2.54Z"/>
      <path class="cls-4" d="M44.98,279.27l-1.54,8c-13.42-5.73-9.38-3.59-24.94-3.9-.47,3.38-1.53,5.46-3.75,7.11-.5-.09-3.02-2.14-3.02-2.14.35-2.85-2.13-4.27-4.85-4.79-1.24-3.52-1.42-7.76-.08-11.2,5.29,1.56,6.73,7.36,11.71,3.67.96-.71,2.19-1.52,2.9-1.57.89-.06,2.26,1.76,3.12,2.47,4.77.11,11.12,1.84,15.59,4.13l4.87-1.8Z"/>
      <path class="cls-5" d="M491.22,365.96c-14.93-3.49-14.22-2.81-29.9-4.74l-12.99-1.59-15.24-1.98c-5.53-.72-10.63-1.72-15.63-3.34.01-.61-.16-3.11.68-3.06.98.07,2.92.25,3.95.4l26.9,4.11,7.29.92,20.76,2.94c7.57,4.63,9.39,1.53,14.18,6.33Z"/>
      <path class="cls-3" d="M615.03,343.17l.14,8.12c-.49,1.39-1.24,3.68-1.94,4.87l-2.95,5.03c-4.15-.31-7.86.91-12.3,3.26l-4.43-5.38,1.37-5.82c4.8.1,6.21-5.92,16-10.09.94-.4,1.94-1.17,2.39-1.96.48.02.91-.09,1.07.14.26.38.64,1.38.65,1.83Z"/>
      <path class="cls-8" d="M363.46,11.66l2.03-2.51,3.58,1.02.18,1.01-1.72,2.48,9.48.43c.69.73,1.94,3.23,2.41,2.61l-1.91-4.98c.29-.02,5.98,2.43,5.98,2.43l3.11,4.56-5.84,1.96-3.91,3.1-3.84-5.35-12.26-2.49.4-2.44-4.66,2.35-3.81-3.46c-.82-.74-3.49.59-4.72,1.15-2.83-.96-8.02-4.25-10.96-4.13l-9.46.36,2.41-1.71c.47-.33.44-1.66.48-2.18,5.72-.31,11.44,1.28,17.64,2.24,5.3.82,11.03.69,15.4,3.54Z"/>
      <path class="cls-8" d="M274.41.23c.25.82,1.04,2.32,1.76,2.8.58.38,2-.52,2.48-.88l2.75-.02.13,2.02c-.3.3-.81.83-1.12,1.06l-6.27,4.6c-3.16-2.1-16.77-4.21-19.68-3.89-9.67,1.05-4.73-5.08-13.83-.49-1.41-.31-4.01-.57-5.38-.26l-7.46,1.66,3.6-3.72c2.86.67,6.88.46,8.41-1.93.75-.36,2.27-1.17,4.31-1.16l30.3.23Z"/>
      <path class="cls-6" d="M680.95,301.23l-27.69,16.2-10.03,4.9c-7.16,3.5-19.96,13.31-25.86,17.8-.28-.95-.61-2.94-.37-3.89s2.56-1.6,3.54-2.29l13.66-9.57c2.67-1.87,6.28-3.11,9.22-4.62l6.58-3.37,14.84-8.32,10.77-6.44c1.26-.75,3.83-.78,5.36-.41Z"/>
      <path class="cls-2" d="M10.91,116.53c-1.94,4.28-2.29,10.62-3.31,15.2-1.46.67-1.78,9.12-1.78,9.12l-.03,9.01c-2.11-.63-1.18,4.09-3.28,3.9l-2.32-.21s1.37-22.46,1.93-24.56,5.06-11.37,5.06-11.37c1-.53,2.7-1.13,3.73-1.08Z"/>
      <path class="cls-3" d="M419.41,81.97c-.07.32-1.48,1.59-2.15,1.78l-9.08,2.66,11.37.45-5.24,3.82-4.64,3.34-7.87-3.26-6.47,5.15-11.88,8.88c-2.95,2.21-6.84,3.85-9.99,4.98-2.1.75-5.08.94-7.12.65,25.44-6.93,25.52-19.54,42.31-26.75.66-.29,2.06-.68,2.77-.83.56-.12,1.7-.3,2.27-.33,1.53-.1,4.24-.26,5.75-.54Z"/>
      <path class="cls-1" d="M438.25,71.92l-.67-.82.57-10.62c1.93-.69,2.24-3.44,1.42-5.33.06-1.16.1-3.11.25-4.17l2.37-1.06c4.85,3.27-1.47,3.42,5.69,9.98,2.19,2-7.77,11.75-9.63,12.02Z"/>
      <path class="cls-5" d="M208.78,316.24c1.94,2.49,4.83,3.74,8.13,5.06l7.24,2.89c8.43,7.54,26.57,5.94,37.19,10.24l1.05,2.27c-.65-.18-2.99-2.12-4.03-2.28l-10.48-1.62-10.64-1.77c-3.04-.51-8.27-1.43-10.75-2.69l-13.55-6.87-9.05-6.37c1.54-.34,3.95-.05,4.88,1.14Z"/>
      <path class="cls-5" d="M434.48,82.98c-.86,2.49-5.27,2.96-7.98,3.05-2.2.07-4.82.3-6.95.84l-11.37-.45,9.08-2.66c.68-.2,2.08-1.46,2.15-1.78l16.12-3.03c-.16,1.15-.62,2.77-1.06,4.03Z"/>
      <path class="cls-8" d="M596.35,382.76l-1.08-2.64c-.04-1.1.38-3.86,1.52-3.95s3.34.93,5.2,1.92l8.21-8.32c1.54-1.56.51-6.77.09-8.58l2.95-5.03c.99,2.69-1.52,6.88-1.63,9.73-.24,6.08-.36,9-6.05,11.88-2.61,1.32-6.12,4.74-9.2,5Z"/>
      <path class="cls-5" d="M344.61,6.08s12.13,1.72,13.87,1.79c0,0,5.65,1.1,7.01,1.28l.09,1s-.24,1.28-.44,1.47-1.67.04-1.67.04c-4.38-2.85-10.1-2.72-15.4-3.54-6.2-.96-11.92-2.55-17.64-2.24l-2.99.16c-1.32.07-3.59-.81-4.02-1.78,4.23-.81,19.63,1.81,21.2,1.81Z"/>
      <path class="cls-3" d="M283.57,336.96c-5.37.21-15.31.25-21.17-.25l-1.05-2.27c1.15-.64,3.54-1.39,5.04-1.38l13.33.1c.79,0,3.1.33,3.26,1.05l.6,2.76Z"/>
      <path class="cls-4" d="M405.52,77.81c.29-.08.89.05,1.16.16l1.28,2.89c.28.63-.92,1.66-1.59,2.19l-2.95.92-.24-1.43c-.27-1.64-8.73-.88-11.89.74l-5.68,1.2c-2.92.62-5.56,1.11-8.18,1.45,3.04-1.92,6.69-3.26,10-4.93l3.99-.1,8.04-1.47,6.06-1.61Z"/>
      <path class="cls-5" d="M362.19,346.49c-7.27-.55-6.69-4.99-19.28-2.55-2.42.47-4.55,1.04-6.21,1.02.37-1.96,2.41-2.17,4.7-2.19l13.14-.09c3.62-.03,6.18.64,7.65,3.81Z"/>
      <path class="cls-8" d="M310.6,2.19c.25.79.89,2.34,1.68,2.29.84-.05,2.44-.54,3.22-.51l7.92.29c.42.98,2.69,1.85,4.02,1.78l-2.83,4.05h-1.01c-1.06-4.03-8.08-.04-15.15-5.13l.24-2.81,1.91.03Z"/>
      <path class="cls-6" d="M696.86,288.45c-.06,4.87-7.34,12.39-12.7,12.63.15-.89.83-2.26,1.48-2.89,4.44-2.37,9.54-11.4,11.22-9.74Z"/>
      <path class="cls-8" d="M540.09,376.85c-9.53-.38-5.97-4.18-14.63-5.78,7.24-.66,6.93-1.3,14.63,5.78Z"/>
      <path class="cls-5" d="M377.5,11.72l3.82,2.43-1.91,2.55c-.47.62-1.72-1.88-2.41-2.61,0,0-8.75.58-9.48-.43s1.54-3.48,1.54-3.48c0,0,7.32,1.18,8.43,1.55Z"/>
      <path class="cls-8" d="M295.42,2.05l.05,2.02c-3.16,1.81-8.22,4.07-9.84,0l.08-2.01h9.71Z"/>
      <path class="cls-5" d="M11.94,265.59c1.12.91,3.05,1.31,4.87,1.27l6.4-.13c1.88,3.25-10.61-.17-16.52,2.46-.01-.43,1.55-3.07,1.55-3.07l3.7-.53Z"/>
      <path class="cls-5" d="M393.48,26.07c.08-2.32-2.91-5.28-4.99-4.79-.29-.96-1.11-2.11-1.91-2.56l-3.11-4.56c4.93,3.24,10.3,6.28,10.01,11.91Z"/>
      <path class="cls-6" d="M700.93,246.27l.26,11.15c.03,1.17-1.38,3.58-2.08,3.92l.07-12.04-.05-2.27c-.01-.58,1.23-.73,1.81-.76Z"/>
      <path class="cls-5" d="M60.71,295.2s-9.2,1.92-9.66,1.92l4.91-6.42c2.41,1.64,3.72,2.7,4.76,4.5Z"/>
      <path class="cls-6" d="M702.85,223.29c.42,4.19.52,8.64-1.85,12.04l.45-9.96.05-1.98c0-.37,1.08-.15,1.35-.1Z"/>
      <path class="cls-8" d="M305.45,2.09l-.09,2.96c-1.94.84-5.62,1.23-6.78-.94l.09-2.06,6.78.04Z"/>
      <path class="cls-5" d="M30.69,295.13c-.38-.04-10.76-3.75-10.76-3.75-.87-1.83,13.5,2.64,10.76,3.75Z"/>
      <path class="cls-5" d="M200.52,314.91c-2.37-.36-6.57-2.33-8.79-3.67,2.98.59,7.07.22,8.79,3.67Z"/>
      <path class="cls-5" d="M380.31,348.29l-9.92-1.27c2.9-1.01,7.7-.87,9.92,1.27Z"/>
      <path class="cls-5" d="M410.63,80.39c.49,1.31.76,2.46.76,2.46-.71.15-2.1.54-2.77.83l-2.26-.63c.67-.53,1.87-1.56,1.59-2.19l-1.28-2.89s3.46,1.1,3.96,2.41Z"/>
      <path class="cls-6" d="M703.65,203.59l-1.56,5.95c-1.5.16-2.34-1.72-2.31-3.59.03-1.69,1.99-2.68,3.87-2.36Z"/>
      <path class="cls-5" d="M504.15,368.88c-2.18-.02-4.74-.85-6.69-1.85,2.6-.14,6.08-1.14,6.69,1.85Z"/>
      <path class="cls-6" d="M702.11,212.51c.01,2.53.19,5.22.44,7.75l-2.13.08.09-7.75,1.6-.08Z"/>
      <path class="cls-8" d="M578,382.75c-2.68-.15-5.36-.55-7.67-1.8,2.72,0,5.83-.23,7.67,1.8Z"/>
      <path class="cls-8" d="M564.02,380.96c-2.57,0-5.41-.8-7.67-1.99l7.75.22-.08,1.77Z"/>
      <path class="cls-5" d="M11.73,288.35l-4.85-4.79c2.72.52,5.21,1.94,4.85,4.79Z"/>
      <path class="cls-8" d="M550.1,378.78c-2.04.1-4.22-.48-5.72-1.76,2.27-.37,5.4-.69,5.72,1.76Z"/>
      <path class="cls-5" d="M328.37,344.87c-2.04-.02-4.05-.58-5.69-1.76,2.26.07,5.16-.94,5.69,1.76Z"/>
      <path class="cls-5" d="M316.39,342.91c-2.12-.07-4.13-.49-5.71-1.79,2.29.06,5.22-.96,5.71,1.79Z"/>
      <path class="cls-5" d="M302.38,340.9c-2.08-.05-4.11-.53-5.68-1.79,2.3-.41,5.09-.55,5.68,1.79Z"/>
      <path class="cls-5" d="M289.55,336.54c1.01.04,2.55,1.47,2.88,2.41-2.13-.08-4.15-.53-5.71-1.87l.85-.6,1.98.07Z"/>
      <path class="cls-5" d="M438.25,71.92c-.05,1.88-.76,4.62-2.54,4.85.14-1.7,1.15-4.15,1.87-5.67l.67.82Z"/>
      <path class="cls-5" d="M131.63,305.99c-1.64-.23-4.3-1.83-5.74-2.77,2.17-.57,4.48.76,5.74,2.77Z"/>
      <path class="cls-5" d="M438.15,60.48c.09-1.69.74-3.8,1.42-5.33.83,1.89.51,4.64-1.42,5.33Z"/>
      <path class="cls-5" d="M515.35,370.11c-1.96-.31-5.1.27-6.09-1.18.91,0,2.66-.88,3.59-1.07s2.74,1.35,2.5,2.25Z"/>
      <path class="cls-5" d="M320.5,4.16c-2.8.33-7.38.28-8.22.33-.79.05-1.43-1.5-1.68-2.29,6.2.1,5.54,1.09,9.9,1.97Z"/>
      <path class="cls-6" d="M698.87,266.49c-.06,1.36-.78,2.93-1.8,3.71,0-.61-.55-1.95-.83-2.71-.26-.71,1.38-.91,2.62-1.01Z"/>
      <polygon class="cls-5" points="308.69 2.16 308.45 4.97 305.36 5.05 305.45 2.09 308.69 2.16"/>
      <path class="cls-5" d="M392.34,33.62l.12,4.48-.93.15-1.27-3.38c-.28-.73,1.76-1.73,2.08-1.24Z"/>
      <polygon class="cls-5" points="285.71 2.06 285.63 4.06 281.52 4.14 281.4 2.13 285.71 2.06"/>
      <path class="cls-5" d="M38.01,296.24l-4.4-.82,2.81-1.34c.68-.32,1.49,1.43,1.59,2.17Z"/>
      <path class="cls-1" d="M616.13,346.17c-.1,1.76-.41,3.59-.96,5.12l-.14-8.12,1.12-.11-.02,3.1Z"/>
      <polygon class="cls-5" points="298.67 2.05 298.58 4.11 295.47 4.07 295.42 2.05 298.67 2.05"/>
      <path class="cls-8" d="M616.13,346.17l.02-3.1,1.02-.09c.27.3-1.04,3.19-1.04,3.19Z"/>
      <path class="cls-5" d="M1.82,185.86l-.89-3.27c.13,0,2.31.16,2.08.66l-1.19,2.61Z"/>
      <path class="cls-5" d="M3.86,209.72c-.27-.23-.93-3.2-.93-3.2.13,0,2.29.16,2.07.65l-1.14,2.54Z"/>
      <path class="cls-1" d="M231.51,2.11l-.13.97-3.6,3.72c-1.69.38-3.87,2.45-4.2,4.9l10.06-3.23,6.61,1.29c4.77.93,9.21,1.64,13.97,1.98l13.18.95c1.51,2.18,3.35,4.13,5.18,4.99,1.92.91,5.14-1.55,7.06-1.81,17.43-2.39,1.92-3.67,24.77-1.97,1.62.12,4.25,2.41,6.31,1.82,3.16-.89,6.43-1.37,8.84-1.57,1.49-.13,3.56-2.66,4.03-4.06h1.01s-1.05,4.52-1.05,4.52l15.03,2.87c1.93-1.12,3.85-.92,6.23-.37,2.99.7,6.77.04,7.88,2.82l-1.95,3.9c-.43.85-2.48.14-3.64-.12l-16.71-.14c-3.4-.03-9.35.41-11.57-1.55-.23-.2.35-2.41.27-2.71-.07-.28-.45-.33-.76-.22-7.98,3.06.18-.41-16.36,1.9l-19.03,2.65c-3.4.47-7.17,1.11-10.67.53l-4.24,3.35-3.26-8.89c-3.88-2.08-7.84-.07-11.64,2.16-3.62.23-9.28.16-13.06-.46l-14.03-2.31-5.22,4.57c-.13-4.63.41-7.53,1.33-11.82l-3.26,3.82c-.54.64-2.88-.91-3.73-.93l-12-.31-6.77,5.59c-.98.8-2.01,3.48-3.18,3.28l-4.48-.76,3.31-8.74s3.88-2.36,4.8-1.9c4.97-2.37,10.94-4.2,16.72-4.2h9.67c1.95,0,3.92-2.35,3.57-4.34,1.32.02,3.37-.11,4.71-.2Z"/>
      <path class="cls-4" d="M163.72,64.86l-.12,2.13-6.48,3.27c-1.76.89-3.46,2.11-4.34,3.4-4.72.6-8.28,5.13-12.21,7.29l-14.84,6.71c2.83-.09,5.76-.23,7.99-.62-.17,2.58,13.73-1.34,15.24-2.17l12.81-6.97c-.14,1.3-.5,3.43-.98,4.5-.4.89-2.88,1.05-4.44,1.14-1.07.06-2.59,2.78-3.6,3.31-3.46,1.79-15.77,6.03-18.33,6.4-3.67.54-21.88,1.84-23.35-2.86h-7.12c-10.43.03.33-4.69-20.33-1.73l.23-2.98c1.34-.1,14.65-.36,19.09.29,2.61.39,5.73,2.07,8.76.96l1.72,2.46,3.38-3.75c.26-.02.73.02,1,.04l2.3.09c.52.02.8-1.11.86-1.61.48-.06,1.39-.24,1.85-.18,5.55.72,15.53-4.66,20.72-7.93l16.29-10.25,3.91-.92ZM124.4,88.33c0-.35-.28-.63-.63-.63s-.63.28-.63.63.28.63.63.63.63-.28.63-.63Z"/>
      <path class="cls-8" d="M163.72,64.86l-3.91.92c-4.07-.61-7.44.71-11.07,3-7.15,4.51-14.16,8.74-21.62,12.47-1.82.91-3.55,1.56-4.33,2.71-.46-.06-1.37.12-1.85.18-1.18.03-2.56.61-3.16,1.52-.27-.02-.74-.06-1-.04-1.41.13-3.75.8-5.1,1.29-3.04,1.11-6.15-.58-8.76-.96,2.51-1.63,5.71-2.61,8.79-3.25-.24,2.79,12.61-5.18,13.37-5.73,8.96-6.39,14.13-15.7,24.77-17.06,2.12-.27,20.04-.58,21.76-2.87,1.23,4.32-3.95,6.89-7.88,7.82Z"/>
      <path class="cls-3" d="M41.61,87.72c.85.39,2.32.64,3.45.59l5.88-.24c-5.33,3.45-10.86,7.39-14.19,12.64-.79,1.25-2.18,3.57-2,4.99l-3.03,1.09c.55-3.08-1.58-2.07-4.69-7.5l-6.21,5.83c-3.86,3.63-3.25,11.74-9.9,11.4,4.06-8.97,11.64-20.6,20.61-25.73l3.69-.15c.59-.02.68-.99.81-1.78l.15-.93c1.35.19,3.99-.16,5.44-.23Z"/>
      <path class="cls-1" d="M171.72,55.03l.02-5.01,2.46-4c.44-.71,0-2.74-.54-3.27-.03-.47.96-4.57.96-4.57-.12.93,2.46-.21,2.15-.89l-1.12-2.51c-.03-.47-.11-1.29-.08-1.72l.96-3.06c.33-.02,2.45,0,2.24-.53l-1.07-2.69,1.07-2.72c4.69,2.81-3.91-1.06,10.02-9.98l-6.08,18.97-4.72,14.09c-1.26,3.76-1.71,8.07-6.28,7.9Z"/>
      <path class="cls-2" d="M150.52,59.93l2.31,1c.23.1.68.15,1.01.2v2.65c-10.64,1.36-19.82,6.81-28.78,13.19-.76.54-13.61,8.52-13.37,5.73,3.93-1.46,4.65-1.07,12.47-9.43,1.89-2.02,4.56-3.59,6.64-5.32,5.89-4.9,12.19-7.88,19.72-8.03Z"/>
      <path class="cls-8" d="M226.8,2.32c.36,1.99-1.62,4.34-3.57,4.34h-9.67c-5.78,0-11.74,1.83-16.72,4.2-.92-.46-4.8,1.9-4.8,1.9-.96.25-2.41.8-3.24,1.32-13.94,8.91-5.34,12.79-10.02,9.98.7-7.57,11.69-14.39,16.92-17.88l3.71-.27c.4.34,2.02,1.69,2.48,1.14l2.26-2.66,7.49-.43c.65-.04,1.99-.05,2.01-.43s.09-.92.15-1.36l12.99.16Z"/>
      <path class="cls-2" d="M66.84,85.84c-6.51,1.75-13.17,4.66-18.05,8.98-1.72,1.52-5.54,1.61-5.17,4.75l-1.74,1.08c-.39-.03-.8-.13-1,.04-.3.26-.77.8-1,1.11l-2.27,3.07-1.23-.38.37-3.77c3.33-5.25,8.86-9.19,14.19-12.64,1.59-.47,3.81-1.26,4.99-2.28,3.64-.02,7.53-.39,10.91.05Z"/>
      <path class="cls-5" d="M36.17,87.94c-.13.78-.04,2.69-.96,2.71l-3.69.15c-8.97,5.13-16.55,16.75-20.61,25.73-1.03-.05-2.73.55-3.73,1.08.06-.52,8.75-15.34,9.85-16.74,3.47-4.68,13.7-14.19,19.15-12.93Z"/>
      <path class="cls-3" d="M83.82,85.66v1.18l-.23,1.8-2.67.38c-3.4-4.61-17.22-.27-22.07,1.81-3.36,1.44-6.57,3.24-9.67,5.2l-.39-1.2c4.88-4.32,11.54-7.24,18.05-8.98l16.98-.18Z"/>
      <path class="cls-5" d="M55.93,85.79c-1.18,1.02-3.41,1.81-4.99,2.28l-5.88.24c-1.14.05-4.33-.09-5.18-.48,0,0,1.34-.88,1.86-1.04s1.61-.77,3.13-.95,11.06-.05,11.06-.05Z"/>
      <path class="cls-5" d="M239.79,1.16c-1.53,2.39-5.55,2.59-8.41,1.93l.13-.97c.82-.06,2.31-.95,3.13-.95h5.15Z"/>
      <path class="cls-5" d="M213.81,2.16c-.06.45-.13.98-.15,1.36s-1.36.39-2.01.43l-7.49.43-2.26,2.66c-.47.55-5.79-.53-6.19-.87-.03-.41,10.18-3.78,11.83-4.02s6.27,0,6.27,0Z"/>
      <path class="cls-8" d="M171.74,50.02c0-1.2,1.92-7.27,1.92-7.27.54.53.98,2.56.54,3.27l-2.46,4Z"/>
      <path class="cls-5" d="M278.65,2.15c-.49.36-1.91,1.27-2.48.88-.72-.48-1.51-1.98-1.76-2.8,1.18,0,3.61,1.3,4.24,1.92Z"/>
      <path class="cls-1" d="M212.46,147.76l.2,2.06c-1.67,4.58-3.17,9.97-3.99,14.9-3.75-3.54-7.51-1.96-12.52-1.75-4.11.17-10.99-1.96-14.99-1.2-.88.17-1.63,2.75-.95,3.1s2.51,1.12,3.41,1.19l9.88.74c1.13,7.57,10.79,3.76,8.96,8.2-2.01,4.9-3.27,2.01-5.14,12.09.61,2.83,1.29,5.74.17,8.15-5.27.14-9.93-2.33-14.73-3.57-5.71-1.48-11.39-1.84-17-2.76l-18.55-3.03-15.18-2.72-7.39-1.33-13.49,1.86c-5.15-4.69-10.57-2.64-16.48-2.77l-14.62-.31c-7.58-.16-14.98-2.31-22.64-.66-.86.19-1.99.49-2.11.01-.09-.35-.23-1.25-.26-1.51,3.49-5.6,12.11-7.36,19.2-6.3l14.3,2.13c1.59.24,4.51-.03,5.78-.64,1.79-.86,3.33-8.05.91-10.11-.89-.75-3.44-1.29-5.07-1.68-11.76-2.76-5.25,3.66-17.55-1.09-6.01,1.65-12.45-.48-16.38-5.25-.55-1.67-.78-6.14,1.48-6.19,26.79-.54,21.26-2.99,52.11-.78,43,3.08,31.89-9.88,63.74-5.78l38.89,5.01Z"/>
      <path class="cls-1" d="M689.03,42.06c1.48,6.25,2.07,12,1.92,18.95-.11.31.01-.04.55-1.62l2.04-1.73c.45-.39,1.43,1.77,1.43,2.41l.23,38.86c-.08.21-.19.63-.23.84-1.08-.06-2.83-.18-3.82-.12-.46-4.51-.42-8.37-.29-13.89l-3.46.74-.19-13.69c-.02-1.46-2.08-20.8-3.29-20.98-4.99-1.58-4.75,19.46-6.85,18.83-2.41-7.61.68-15.3-4.57-20.32l-7.78-7.43-9.21-.29c-7.65-5.99-9.38,1.16-14.2.09l-14.12-3.13c-4.32-.96-14.51.7-22.99.72l-12.14.03c-2.59,0-5.52.56-8,1.11l-5.03-.57c-1.15-.13-2.59,2.71-4.04,3-2.04.41-5.54-2.05-7.62-3.42-5.68,4.97-12.02,4.62-18.53,4.18-2.11.09-6.28,1.16-8.61,1.12l-7.87-.13-3.59,1.06c2.55-.75-11.61-1.34-11.88-2.51l-6.78.84c-.09-7.67-5.26-10.74-11.07-12.01-.92-.2-2.54,2.49-3.46,2.62l-9.1,1.3c-4.74-2.29-10.01-2.67-15.06-.88-2.76.98-7.24,1.71-9.38,2.86l-13.01,6.98c-2.28,1.22-4.42,2.1-6.78,2.08.13-3.4,3.77-12.59,7.93-13.24l8.36-1.32s9.27-2.33,11.38-2.85c3.78-1.54,6.64-2.46,10.28-2.71l6.31-.43c24.76-1.69,13.11-.42,23.92.52l12.04,1.05c4.57.4,7.78,1.09,12.38,2.2,6.69,1.62,16.02,1.25,22.76,0,5.87-1.09,9.21-1.04,14.98.39,3.22.8,9.43-4.61,13.09-2.05,1.93,1.35,3.76,2.65,6.32,2.5,15.96-.93,9.54,3.25,25.4,1.36l3.39-2.46c.74-.54,3.03,1.56,4.21,1.64l16.71,1.07c3.57-.54,16.54,2.09,16.54,2.09.71.24,5.91.67,5.91.67,2.57-.98,5.7,3.59,6.59,6.06,1.54.52,5.23,1.36,6,2.46.13,3.01.33,7.07,3.49,8.33,1.84-4.83,3.97-9.51,8.8-11.18Z"/>
      <path class="cls-4" d="M592.91,202.29l.54,8.06c.04.58.41,2.59.96,2.69l2.74.47c0,.54.16,1.6.14,2.14l-1.32,30.67c-.18.19-.66,1.65-.66,2.28v16.61s0,6.32,0,6.32l1.41,38.82.21,36.65-3.62.06c-.06-.53-.2-1.62-.72-1.7l-1.47-.21c.1-3.95-.1-11.52-1.02-15.78l1.08-1.32v-11.54c0-.52-1.92-1.85-1.81-1.46,1.16-14.82-1.61-78.79.1-87.37l1.41-7.04.32-17.34,1.71-1.04Z"/>
      <path class="cls-4" d="M545.01,191.36c.67,5.66-.85,11.22-1.27,17.3l-1.27,18.57c-.82,11.98-.48,18.15,0,30.2l1.36,34.29,1.95,47.55c.06,1.41-.85,3.9-1.89,4.02-5.16.6-4.63-11.74-4.66-16.03-.05-7.5,0-14.63-.46-22.03l-2.16-34.85c-1.25-20.28-2.77-40.22-.43-59.84l2.88-1.83.64,11.42c1.65.91,3.48-34.21,5.3-28.77Z"/>
      <path class="cls-4" d="M331.09,197.36c-.3,14.02-1.17,17.66-1.09,33.76l.16,31.87.63,19.36c.16,5.02.3,9.89-.08,14.9l-.94,12.4-6.07-3.59.18-42.89-.31-58.42c-.01-2.37.66-5.4.96-7.42,3.63.46,5.63-.09,6.55.03Z"/>
      <path class="cls-3" d="M292.63,316.42l.9-.02c-.06.01.22,1.38.54,1.42l9.5,1.37c.74.11,2.91-.26,3.11-.92l.58-1.88,1.87-1.23,1.28,3,4.11.08v.85s.82,2.48.82,2.48c.2.61,1.81-.36,2.18-.59l2.77.22c.97.47,2.89.85,4.21.89s3.72-1.46,4.17-2.9c.33-1.04-.38-2.62-1.25-3.66l8.64.2-.85,9.3-4.31,1.82c-2.56-.24-4.24.12-6.38.69-3.05.8-7.89-2.91-9.75,1.8l8.83,3.39c.67.26,2.38,2.39,2.01,3l-.98,1.63c-14.06-.37-7.59-2.08-25.18-2.39-3.32-.06-5.38-.82-9.3-2.56l-.61,4.13-1.98-.07c-.84-8.79-1.2,2.96-3.07-11.74-.38-2.98-1.39-6.13,1.1-7.69,2.13.31,3.83-.53,5.73-2.57l1.31,1.94Z"/>
      <path class="cls-4" d="M311.16,191.4c-4.04,43.02,1.67,74.74.41,118.5-5.74-1.61-5.69-6.18-5.75-10.04l-.77-50.38c-.05-3.53-.51-7.45-.78-11.06-1.24-16.45-.93-32.26,1.26-47.85.25-.05,1.57-.62,1.69-.21l.89,3.01s1.87-1.21,3.03-1.97Z"/>
      <path class="cls-4" d="M593.14,360.08c.13-.28.35-.74.42-1.02l4.43,5.38c4.44-2.35,8.15-3.57,12.3-3.26.42,1.81,1.45,7.02-.09,8.58l-8.21,8.32c-1.85-1-4.06-2.01-5.2-1.92s-1.56,2.85-1.52,3.95l-7.33-1.18c-1.01-.16-2.55-1.14-3-1.79,2.88-6.52-11.88-8.7-16.56-9.09.06,2.73.36,4.68.93,6.85-.72-.18-2.18-.28-2.97-.34.8-2.65.68-7.27-3.63-7.5-1.63-.03-1.57,4.32-.84,5.94l-2.82.03c.56-2.52.16-5.34-2.16-6.56l-7.44-3.92c-.8-.97,1.27-5.28,2.43-5.42l8.45,4.1c8.94,4.34,8.47-1.45,18.02.25l11.02,1.96c1.56.28,3.86-2.01,3.75-3.38Z"/>
      <path class="cls-4" d="M43.57,147.41l-.65,16.03c-.42,10.47.25,19.93.48,30.08.31,13.27.73,25.85,2.1,38.94l1.87,17.92,1.82,17.71-3.76-.99c-.86-.23-1.38-2.8-1.53-3.81l-1.28-9.09-1.31-17.71-1.79-17.18c-1.64-15.74-3.69-46.91-1.63-62.61l-.05-2.03c0-1.77.08-5.14.27-7.04l2.88,4.12c.84-1.66,1.94-3.72,2.58-4.33Z"/>
      <path class="cls-3" d="M214.5,301.19l5.06,4.19c3.8-1.47,6.24-1.43,9.72,1.81l2.74-5.45c2,.29,4.58,1.05,6.54,1.59l1,3.55c3.29.81,6.48,1.92,9,2.41l8.49,1.64c.43-1.2,1.25-4.56,1.52-6.39.14-.46,2.57-1.32,2.82-.63.7,1.95-1.08,6.18-3.16,7.75l-1.43,9.75c-2.87-1.67-6.98-.21-9.08-.86-9.67-3.01-12.54-4.57-23.62-6.38-.68-.11-2.98,2.07-2.54,2.6l1.51,1.82c.76.91,2.59,2.08,2.24,2.9l-1.16,2.72-7.24-2.89c-3.3-1.32-6.19-2.58-8.13-5.06,1.1-3.23,2.08-7.05,2.88-11l.73-3.6c.11-.55,1.69-.4,2.12-.45Z"/>
      <path class="cls-3" d="M544.23,347.31l-.56,3.61c-.12.75-.04,2.27.1,3.02.1.56,1.9.95,2.54,1.01l9.78.8c1.49.12,3.89-2.29,3.92-3.76l.58-1.93-3.39-1.94c3-1.59,9.53,2.45,12.88,2.98l-.81,4.63c-.24,1.35,12.62,4.23,15.52,3.36l1.37-6.93c.43-.19.96-.58,1.2-.32l1.17,1.27.1,6.64,4.51.33c.11,1.36-2.18,3.65-3.75,3.38l-11.02-1.96c-9.55-1.7-9.08,4.09-18.02-.25l-8.45-4.1c-1.15.14-3.23,4.44-2.43,5.42l7.44,3.92c2.32,1.22,2.72,4.04,2.16,6.56-3.85.04-9.35.09-13.58-.38-1.8-.2-2.88-5.03-3.33-6.46l-.83,3.51c-.22.92-3.14,1.52-3.45.62-.87-2.57-1.31-8.2-1.52-11.09-.31-4.14-.64-7.15,2.66-10.26l2.25-2.13c.59-.55,2.16.18,2.97.45ZM542.34,362.12c0-.61-.5-1.11-1.11-1.11s-1.11.5-1.11,1.11.5,1.11,1.11,1.11,1.11-.5,1.11-1.11Z"/>
      <path class="cls-3" d="M213.54,177.44c.06,12.66-1.08,12.86-.48,25.2l2.04,41.79,2.1,29.93,1.43,19.29c-2.38-3.11-5.15-7.12-5.55-10.52-2.23-18.68-.56-27.39-2.79-46.89l-2.83-24.81c-.18-1.54,0-4.3-.04-5.96-.04-1.49-.17-3.56-.13-4.98l.44-13.94.41-9.67,2.43,2.51,2.98-1.94Z"/>
      <path class="cls-4" d="M233.4,204.44c0,8.25.78,16.55,1.22,25.14l1.63,32.38.69,14.39.75,20.67c-1.88.84-5.99.07-6.04-1.37-.3-10,.24-18.71-.67-28.03-1.77-18.18-.88-28.48-2.61-43.76-.74-6.55-.8-13.03-.79-19.32l5.81-.09Z"/>
      <path class="cls-6" d="M55.05,178.45c-2.14,3.09.37-24.36,1.19-22.95,3.93,4.77,13.54,5.49,16.38,5.25s5.79-1.67,17.55,1.09c1.63.38,4.19.92,5.07,1.68,2.42,2.06.88,9.25-.91,10.11-1.27.61-4.19.88-5.78.64l-14.3-2.13c-7.09-1.06-15.71.71-19.2,6.3Z"/>
      <path class="cls-4" d="M285.49,195.41c.01,5.38.18,10.96.56,16.69l1.8,27.39,2.4,39.83c.01.2,3.41,30.37-1.26,26.21-.47-.42-1.07-1.44-1.17-2.06l-1.57-10.28c-1.13-7.38-.47-15.22-1.03-22.86l-2.66-36.1-1.42-15.07c-.44-4.73-.37-13.32.33-17.63,1.27.38,2.34-1.09,2.27-2.56-.04-.75-1.33-1.34-2.27-1.42l-.04-2.08,4.04-.06Z"/>
      <path class="cls-4" d="M23.71,158.55l.49,26.08,4.3,55.93,1.38,22.74-5-.19-1.48-26.74-1.92-22.89-2.1-30.88-.82-13.88c-.27-4.65-.77-9.24,1.27-12.94l3.87,2.77Z"/>
      <path class="cls-1" d="M207.41,205.47c.05,1.66-.13,4.42.04,5.96-5.02-2.56-10.24-1.46-15.88-2.19l-40.75-5.28-11.91-1.82c-9.81-3.96-13.18-1.27-20.4-6.07,5.71-1.02,10.56-.56,16.29.13l53.82,6.57,18.79,2.69Z"/>
      <path class="cls-4" d="M568.94,226.27l-.53,37.26c-3.59-.54-2.75,8.42-1.64,8.62l2.45.44-.15,1.91-2.52.45.65,13.39,1.57,38.03c.06,1.54-1.88,3.91-3.12,3.99l-.77-11.1-2.43-47.58c-.56-11.07-1.26-21.67-1.27-32.22l2.07-.43c.37-.08-.21-1.56-.58-1.56h-1.49c0-1.14.17-3.06.13-4.11,1.27.1,2.79.29,3.12,1.18l1.91,5.1c1.21-3.52,1.21-7.8,1-12.34l1.6-1.01Z"/>
      <path class="cls-3" d="M255.75,220.49c-.14,9.9,1.15,19.5,1.32,30.01l.79,48.45c-1.59.31-4.13.51-4.21-.33l-.29-3.28-.8-11.79-1.19-42.11c-.01-.36-.65-1.1-.75-1.08l.03-5.82c.29-.48.83-2.3.87-3.16l.17-3.74c.53.08,2.29-.86,2.02-1.49l-1.15-2.75.02-2.79,3.16-.12Z"/>
      <path class="cls-2" d="M673.78,100.21l-12.11,9.13c-3.09,2.33-7.85,10.85-18.47,17.73-1.28.83-2.57,2.1-1.85,2.97l-.11,1.41-7.02,1.9c-1.37.37-3.03,1.27-3.28,2.21l-1.74.25c-4.34.61-9.62,5.36-12.1,9.92-.67,1.23-2.97,3.01-4.07,3.85l-2.69-1.19c-.52.35-1.17-.93-1.36-1.55,1.42-1.66,3.38-4.45,4.97-6.05s2.58-2.52,3.13-4.02l7.69-4.75,3.51-.79-3.17-.64c6.73-1.24,12.4-4.61,16.88-9.04l10.03-9.91c2.39-2.37,9.19-7.24,8.86-9.33l8.09-1.53,4.81-.56Z"/>
      <path class="cls-3" d="M571.19,192.56v3.1c-.05,11.61-1.66,9.78-2.17,24.64l-1.9.6c-.35.11.2,1.55.57,1.61l1.25.18v3.57s-1.61,1.01-1.61,1.01c.21,4.55.21,8.83-1,12.34l-1.91-5.1c-.33-.89-1.85-1.08-3.12-1.18-.5-11.8.54-23.47,1.84-35.83.97-9.2,3.68-17.74,6.1-26.13l1.68.03c.43,0,.4,1.52.31,2.18l-2.26,16.73c-.07.49.41,2.29.78,2.25.39-.04,1.02-.01,1.44,0Z"/>
      <path class="cls-2" d="M365.47,77.81c-1.24.91-3.7,1.49-5.6,2.38-15.75,7.4-24.3,20.82-40.89,22.73-1.28.15-2.62,2.19-2.43,2.82-6.53,1.6-14.2-.98-22.31,1.83s-13.62,7.34-18.56,12.99l-4.12,3.3c.49-1.67.55-3.6-.05-5.11.84-3.55,4.79-2.49,6.21-6.95,1.5-.64,3.37-1.66,5.11-2.68l6.46-3.78c2.68-.09,5.26-.52,8.87-1.08l-4.61-2.55h2.89c2.64,1.76,5.99.87,9.01.24,7.64,1.33,15.84-.34,22.97-5.21l9.97-6.81,9.87-7.23c1.25-.91,2.52-1.95,3.05-2.72,7.21-.55,5.23-2.64,14.15-2.16Z"/>
      <path class="cls-4" d="M259.23,161.48l-1.08,7.38-1.65,16.91c-1.14,11.71-.59,23.28-.74,34.72l-3.16.12c-4.68-.73-2.62-25.4-2.37-29.99l.38-7.1,1.21-16.07c.1-1.39.74-3.24,1.42-3.98l.92-.6c.87-.57,1.09-.96,1.24-.58l.99,2.4,2.85-3.21Z"/>
      <path class="cls-3" d="M340.74,140.76c-3.91,8.15-4.58,17.25-6.11,26.29-1.75,10.37-3.33,20.34-3.54,30.32-.92-.12-2.92.43-6.55-.03.33-17.18,2.95-34.65,8.93-50.73,2.8,0,6.83-7.33,7.26-5.85Z"/>
      <path class="cls-3" d="M360.6,109.78c-.19.58-.6,1.7-1.11,2.02-8.85-.24-17.5,1.97-23.95,8,5.26-.7,8.37-1.1,11.93-1.17.5.44.62.46,1.05.07l2.94-1.73c1.07.96,2.42,1.87,3.74,2.55-.64.69-1.78,1.7-2.56,2.24h0l-3.11,6.1c-.92,1.8-2.58,3.43-4.31,4.08-1.28.17-3.99-2.04-3.99-2.04.13-.89.24-2.23.33-3.18,1.74-.06,3.63-3.45,4.35-5.32l-9.53-.22c-1.6-.04-4.09.16-5.54.27,4.3-5.51,11.11-9.93,18.64-10.6,2.38-.21,4.43-.43,6-1.08,1.39.02,3.86.18,5.13,0Z"/>
      <path class="cls-3" d="M237.4,152.29c.16,2.87-.31,5.77-.92,9.04-2.67,14.41-3.1,28.8-3.08,43.11l-5.81.09c.02-10.2-.18-20.17,1.06-30.92.62-5.4,1.84-15.1,3.16-19.88,1.09-.1,1.83-1.62,2.33-3.15,0,0,2.33,1.49,3.26,1.71Z"/>
      <path class="cls-3" d="M321.51,135.71c-.12.31-.7.68-.98.84,0,0-.64,1.1-1.09,1.26-.49,2-.76,4.27-.08,5.91-.02.47-.02,1.34-.15,1.76l-2.7-.14-.76-.77c-.22-.22-1.31,1.16-1.36,1.49l-1.91,12.67,2.1-3.05,1.05.04c-1.62,5.82-2.3,12.46-2.91,18.92l-1.57,16.76c-1.17.76-3.03,1.97-3.03,1.97l-.89-3.01c-.12-.41-1.44.16-1.69.21,1.12-8-.81-16.44,1.62-25.06l2.44-8.63,2.55-12.87c.36-1.83,2.09-4.6,2.99-6.16.07.91,6.37-2.14,6.37-2.14Z"/>
      <path class="cls-3" d="M293.55,101.71l4.61,2.55c-3.6.55-6.18.99-8.87,1.08-6.24.21-11.89.16-18.63,3.34l7.06,3.11c-1.42,4.46-5.37,3.4-6.21,6.95l-4.79,3.9c-1.45-3.18-5.03-4.36-8.82-3.84l-9.09,9.08c-1.22,1.22-2.21,2.29-3.32,2.88l2.35-6.66c1.94-.79,4.65-4.24,5.47-6.13.2-.45-1.1-1.93-.82-2.34s.96-1.22,1.15-1.67c4.35,4.1,7.12-6.71,23-10.1l2.82-.6c.37-.08.13-1.2.11-1.46l13.98-.09Z"/>
      <path class="cls-8" d="M351.32,79.97c-.53.78-1.8,1.81-3.05,2.72l-9.87,7.23-9.97,6.81c-7.13,4.87-15.33,6.54-22.97,5.21,9.12-1.9,17.25-7.23,24.44-13.86l4.76-2.08,5-5.15,11.66-.89Z"/>
      <path class="cls-2" d="M408.63,83.68c-16.79,7.22-16.87,19.83-42.31,26.75,2.05.29,5.03.1,7.12-.65l5.99,1.19c-12.53,1.56-12.8,2.14-24.23,8.56-1.31-.68-2.67-1.59-3.74-2.55l8.02-5.17c.51-.33.92-1.44,1.11-2.02,4.56-.64,13.4-3.21,17.22-6.39l14.3-11.94c3.58-2.99,7.07-6.15,11.3-7.47l2.95-.92,2.26.63Z"/>
      <path class="cls-3" d="M339.66,80.86l-5,5.15-4.76,2.08c-7.18,6.64-15.31,11.96-24.44,13.86-3.02.63-6.37,1.51-9.01-.25l.86-1.09c7.2-1.05,13.81-3.99,19.56-8.34l13.17-9.95c2.16-1.63,5.6-2.59,8.71-3.5l.92,2.04Z"/>
      <path class="cls-6" d="M330.42,5.88c-.04.53,0,1.85-.48,2.18l-2.41,1.71,9.46-.36c2.94-.11,8.12,3.18,10.96,4.13,1.23-.56,3.9-1.89,4.72-1.15l3.81,3.46-2.9,3.98-.88.13c-1.1-2.78-4.88-2.12-7.88-2.82-2.38-.55-4.3-.76-6.23.37l-15.03-2.87,1.05-4.54,2.83-4.05,2.99-.16Z"/>
      <path class="cls-2" d="M581.98,147.23c1.11.09,2.06,2.18,2.11,3.47-.86,1.46-1.64,3.1-2.21,4.69l-.73.2-1.97,6.05.12,1.78-.26.9s-3.25,2.44-2.85,3.19v1.12c-.37.83-.86,2.14-1.08,3.02l-.93,3.72c-.34,1.36-.74,2.92-1,4.33l-1.03,5.7c-.26,1.43-.96,3.67-.96,5.18v1.99c-.42-.01-1.05-.04-1.44,0s-.84-1.75-.78-2.25l2.26-16.73c.09-.67.12-2.17-.31-2.18l-1.68-.03c1.41-4.89,2.67-10.12,4.7-14.91,1.23-2.9,3.5-5.97,5.25-8.61l2.79-.62Z"/>
      <path class="cls-3" d="M33.02,113.81l-3.22,9.93c-.34,1.05-.67,2.68-.88,3.78-.29.74-.82,2.41-.99,3.4l-2.95,17.08c-.58,3.36-1.34,7.49-1.28,10.54l-3.87-2.77c-.03-.9-.07-2.14-.06-2.98-.02.13,2.38-.32,2.57-.85.88-2.45.26-7.64-1.49-10.07,1.07-6.33,3.16-19.35,6.29-25.05.78-1.43,4.55-3.35,5.86-3.03Z"/>
      <path class="cls-3" d="M569.06,274.49l.13,10.83.03,6.81c0,.51,1.76,1.68,1.72,1.36l.34,41.54c0,1.01-.94,3.45-1.26,3.77-1.29-3.89-1.79-6.76-4.43-6.95.06-.37.07-1.13.04-1.51,1.25-.08,3.19-2.45,3.12-3.99l-1.57-38.03-.65-13.39,2.52-.45Z"/>
      <path class="cls-3" d="M271.49,102.73l-9.66,2.16c-9.1-.69-11.5.44-17.03,4.7-4.09,3.15-9.27,5.2-11.25,10.15-.6,1.49-6.69,8.59-8.02,8.07,1.15-2.27,2.25-7.33,4.12-9.02l9.11-8.25c1.15-1.69.63-1.55-1.16-1.43,7.89-8.45,24.18-9.59,33.89-6.37Z"/>
      <path class="cls-3" d="M371.67,79.83c-5.76,1.79-13,3.22-17.85,7.32-10.32,8.72-21.05,14.51-33.33,18.69-1.15.3-2.77.2-3.94-.1-.19-.63,1.16-2.68,2.43-2.82,16.59-1.9,25.14-15.33,40.89-22.73,1.89-.89,4.35-1.47,5.6-2.38,1.15-.85,2.95-1.94,4.16-1.69,1.04.21,2.14,2.86,2.04,3.7Z"/>
      <path class="cls-4" d="M48.79,94.82l.39,1.2c-.42,2.74,4.86.4,5.55,3.78-1.76,3.09-3.63,6.14-5.77,8.86-1.9-1.4-3.98-.64-5.94,1.22l-11.09,12.06c-.42.79-1.5,1.66-2.13,1.8l3.22-9.93c.5-1.55,1.47-3.48,2.13-5.02l2.46-3.92,2.27-3.07,1-1.11c.2-.17,0,0,0,0,4.5-5.88,6.2-4.34,7.92-5.86Z"/>
      <path class="cls-3" d="M646.03,102.98c-2.53,1.98-5.19,4.27-6.98,6.79-1.42,1.24-2.67,2.69-3.86,4.15-5.37,6.61-13.75,13.26-21.99,15.5,3.95.54,8.75,1.74,11.91,1.16l3.17.64-3.51.79c-8.23-.3-18.29-1.68-24.34,3.92l-10.21,9.45.15-1.84c4.5-6.61,10.77-11.82,18.84-13.43-4.23-.19-7.75.19-10.91-.74.36-1.33,2.7-1.35,4.88-1.71,4.01-.67,8.33-2.72,12.01-3.09,5.03.52,9.45-3.49,13.31-7.38l11.03-11.12c1.09-1.09,2.17-3.93,2.46-5.38,1.34-.31,2.58-.55,3.55,0s.49,2.29.49,2.29Z"/>
      <path class="cls-2" d="M445.05,90c-2.5.67-5,2.24-7.12,4.32l-7.52,7.39c-5.81,4.14-12.2,7.78-19.01,9.01.09-1.1.98-2.99,1.8-3.73l3.27-2.94c7.91-.96,14.22-7.66,18.79-14.07,3.01-.29,5.57-2.35,7.94-4.49l6.27-.46-4.43,4.97Z"/>
      <path class="cls-8" d="M395.32,95.91c1.63,2.24,5.16,3.4,8.08,4.09-4.35,4.18-9.52,7.12-16.03,9.01l2.07,1.52-8.01.44c-.5.03-1.5.03-2,0l-5.99-1.19c3.15-1.14,7.04-2.77,9.99-4.98l11.88-8.88Z"/>
      <path class="cls-3" d="M287.32,164.4c.08.9.34,2.5.32,3.35-1.15,8.7-2.17,18.81-2.15,27.66l-4.04.06-.37-13.64c-.38-13.84,1.88-13.11,2.59-23.2.3-.03,1.41-.29,1.44.07l.31,2.92.24,2.38c.06.56.83.4,1.67.39Z"/>
      <path class="cls-2" d="M49.96,117.74c-1.89,4.23-3.02,9.69-3.91,14.17-.36,1.84-.42,4.67-.42,6.6-.83.24-1.59,5.33-1.59,5.33.06.9-.43,2.66-.47,3.56-.65.6-1.17,4.66-2.46,4.56s-3-4.35-3-4.35c1-9.97,2.81-20.36,7.65-29,1.57-.07,4.21-.88,4.21-.88Z"/>
      <path class="cls-2" d="M217.53,148.86l-1.31,7.38c-.42,2.38-.76,6.9-.83,9.15-.74.19-1.81,1.01-1.77,1.76.05.85.15,2.06.15,2.62v3.77s-.24,3.46-.23,3.9c0,0-1.4,2.08-2.98,1.94s-2.43-2.51-2.43-2.51c.16-3.8-.07-8.48.54-12.17.82-4.93,2.32-10.32,3.99-14.9l4.87-.95Z"/>
      <path class="cls-1" d="M604.18,149.82c-.08,2.86-1.24,5.73-3.12,7.92-5.77-.92-8.99,4.56-14.06.14-1.44-1.26-3.67-2.38-5.13-2.49.58-1.59,1.35-3.23,2.21-4.69l2.87-.17,10.23-.71c2.24-.16,5.25.83,6.99,0Z"/>
      <path class="cls-3" d="M544.31,184.65l.95,4.96-.24,1.75c-1.83-5.44-3.65,29.67-5.3,28.77l-.64-11.42-2.88,1.83,1.32-11.09c.62-5.23.73-10.15,2.02-14.96l4.78.16Z"/>
      <path class="cls-2" d="M177.44,69.82c-1.21-.04-4.25.39-5.41,1.18l-8.33,5.65c-.51.35-1.43.97-1.94,1.25l-12.81,6.97c-1.51.82-15.4,4.75-15.24,2.17,1.99-.79,5.17-2.88,7.2-3.46,6.92-1.99,13.84-4.08,18.66-9.47l13.92-7.79,5.24.02-1.28,3.49Z"/>
      <path class="cls-4" d="M335.21,325.04c-.35,3.8.2,5.94-5.2,8.67l4.63,3.47,1.88,1.44c.45.35-.26,2.14-.82,2.15s-2-.23-2.52-.5c-7.44-3.9-5.95.86-8.55-2.91l.98-1.63c.37-.61-1.34-2.74-2.01-3l-8.83-3.39c1.86-4.71,6.7-1,9.75-1.8,2.14-.56,3.82-.92,6.38-.69l4.31-1.82Z"/>
      <path class="cls-1" d="M579.19,147.85c-1.75,2.64-4.02,5.71-5.25,8.61l-12.32-4.18-4.43,3.26c.87-2.87,3.02-7.17,6.04-8.06,1.95-.57,13.27-3.46,14.01-3.12.91.42,1.76,2.58,1.94,3.48Z"/>
      <path class="cls-8" d="M691.16,99.65c.99-.06,2.74.06,3.82.12-1.57,3.27-5.8,4.93-9.15,7l-4.84,2.98c-1.93.86-4.24.47-6.13-.57l-10.72,1.64c3.98-5.55,10.7-5,12.89-7.9,3.38-.53,6.73-1.65,9.92-3.03l4.22-.24Z"/>
      <path class="cls-4" d="M341.55,126.73c-3.33.12-6.77.24-9.9-.08l-2.14.2c-1.07,2.49-3.4,5.02-5.05,7.71-1.86,3.02-2.33,7.48-5.1,9.18-.68-1.64-.58-4.7.08-5.91l1.09-1.26c.28-.17.86-.53.98-.84l4.18-10.94s3.77-2.85,5.14-3.32c1.45-.11,3.94-.3,5.54-.27l9.53.22c-.72,1.87-2.61,5.26-4.35,5.32Z"/>
      <path class="cls-2" d="M426.5,86.03c-1.27,1.94-4.82,3.14-6.82,4.86l-14.17,12.19c-3.9,3.36-8.71,4.93-14.11,7.25.92.25,3.08.73,4.02.43v1.13s-13.02-.06-13.02-.06l-.97-.85,8.01-.44-2.07-1.52c6.51-1.9,11.68-4.83,16.03-9.01,2.06-1.98,6.2-2.69,6.26-5.98l4.64-3.34,5.24-3.82c2.13-.54,4.75-.77,6.95-.84Z"/>
      <path class="cls-1" d="M312.45,119.7c-.05,1.02.28,3.64,1.29,4.05s3.32.27,4.43,0l2.59-.65c.63-.16.52,2.16.57,2.54-.72.14-2.24,1.33-2.68,2.09l-2.99,5.14c-5.38-2.42-11.3-1.14-16.17,2.03l3.61-6.88,3.44-3.38c1.3-1.27,4.07-3.13,4.39-4.83l1.5-.09Z"/>
      <path class="cls-2" d="M599.15,170.72c.25-.01.76-.08,1-.11l2.28,1.87-1.76,10.06c-.83,2.71-1.78,7.47-1.7,9.95-.6.03-1.79,1.93-1.88,2.89l-.47,5.27-3.48-3.96c.76-7.15,1.39-14.53,3.47-21.73.47-1.63.72-2.88.72-4.15l1.81-.09Z"/>
      <path class="cls-1" d="M85.09,192.81c-5.69,2.73-9.97,1.22-15.23.61l-13.98-1.63c-.94-.11-2.35-.54-3.02-.87-.86-.41,1.51-3.44,2.67-3.33l20.29,1.9c3.4.32,6.33,1.38,9.27,3.32Z"/>
      <path class="cls-8" d="M613.03,149.56l-4.33,7.45-4.29,8.63c-.9,1.8-2.7,4.33-4.26,4.97-.25.03-.76.1-1,.11l-.86-2.18,2.77-10.8c1.88-2.18,3.04-5.06,3.12-7.92,1.28-.61,3.88-1.91,4.8-2.99.19.62.83,1.89,1.36,1.55l2.69,1.19Z"/>
      <path class="cls-8" d="M261.83,104.9c.42,3.8-5.03,1.61-8.2,9.07-.19.45-.88,1.27-1.15,1.67s1.02,1.89.82,2.34c-.83,1.89-3.53,5.34-5.47,6.13l-4.29,1.74c.07-1.02.29-2.97.88-3.76l7.15-9.55c-2.63-1.37-4.72-2.34-6.76-2.92,5.53-4.26,7.93-5.39,17.03-4.7Z"/>
      <path class="cls-8" d="M547.97,160.81l1.08.94c.44.38,1.41,1.39,1.85,1.88-3.12,7.12-4.28,16.71-6.59,21.02l-4.78-.16-.1-1.82.73-1.17c-.71-1.94,5.64-20.41,5.43-20.38l2.38-.32Z"/>
      <path class="cls-2" d="M641.99,100.69c-.29,1.45-1.38,4.29-2.46,5.38l-11.03,11.12c-3.85,3.89-8.28,7.9-13.31,7.38,6.85-6.24,13.23-12.79,19.75-19.98,1.94-2.14,4.55-3.67,7.05-3.9Z"/>
      <path class="cls-8" d="M660.88,102.3c.33,2.08-6.47,6.96-8.86,9.33l-4.58-1.65c-2.81-1.01-5.83-1.15-8.39-.2,1.79-2.52,4.45-4.81,6.98-6.79,4.88-1.07,9.92-1.19,14.85-.68Z"/>
      <path class="cls-4" d="M437.26,84.88c-2.38,1.44-5.35,2.01-7.89,2.95-7.81,2.9-13.41,9.21-19,14.96-3.31,3.4-10.9,6.69-14.95,7.97-.95.3-3.1-.18-4.02-.43,5.4-2.32,10.21-3.89,14.11-7.25l14.17-12.19c2-1.72,5.55-2.92,6.82-4.86,2.71-.09,7.12-.56,7.98-3.05l2.11.12c.49.03.61,1.35.67,1.78Z"/>
      <path class="cls-4" d="M677.01,102.92c-2.18,2.9-8.9,2.35-12.89,7.9-3.56.96-4.61,5.61-6.98,7.76l-7.57,6.84c-2.48,2.24-5.47,4.12-8.22,4.62-.71-.87.58-2.15,1.85-2.97,10.62-6.87,15.38-15.4,18.47-17.73l12.11-9.13c.78.04,2.94-.57,3.01.21l.22,2.51Z"/>
      <path class="cls-6" d="M244.41,122.08c-2.4.15-3.96-1.23-5.65-4.14l-5.21,1.81c1.98-4.95,7.16-6.99,11.25-10.15,2.04.59,4.13,1.56,6.76,2.92l-7.15,9.55Z"/>
      <path class="cls-8" d="M586.15,352.16l-1.37,6.93c-2.9.87-15.75-2.01-15.52-3.36l.81-4.63c4.52.72,11.38.69,16.08,1.06Z"/>
      <path class="cls-6" d="M268.62,41.09c12.17,1.98-9.01,12.62-11.77,14.27.76-9.08,6.99-8.22,7.14-15.02l4.63.75Z"/>
      <path class="cls-3" d="M584.95,377.14c-2.67.02-6.53.07-9.2-.61l-6.43-1.63c-.58-2.18-.87-4.12-.93-6.85,4.68.39,19.44,2.57,16.56,9.09Z"/>
      <path class="cls-5" d="M62.08,99.54c-5.13,4.99-9.15,11.54-12.12,18.2,0,0-3.46,1.96-4.21.88l2.32-7.76c.07,0,.67-.74.72-1.08l.17-1.11c2.14-2.73,4.01-5.78,5.77-8.86l4.23-2.18c.64-.33,2.72-.9,2.82-.2l.29,2.12Z"/>
      <path class="cls-8" d="M251.45,303.39c.08.92.28,3.02.92,2.59l2.34-1.55,3.87.09c-.27,1.83-1.09,5.18-1.52,6.39l-8.49-1.64c-2.53-.49-5.72-1.59-9-2.41l-1-3.55,12.88.07Z"/>
      <path class="cls-3" d="M596.15,129.73c-3.85-.15-10.12.28-13.98.95-4.8.83-9.67,2.8-12.82,6.88l-2.14.05c.54-.63,1.82-1.94,2.47-2.59.54-.54.29-2.41-.41-2.62l-2.19-.67c8.11-6.24,20.32-6.2,28.88-3.37.35.11.18,1.06.18,1.38Z"/>
      <path class="cls-5" d="M271.56,123.86l-.03.88-.89,1.15c-2.52,3.27-5.82,10.54-7.12,14.84l-1.39-4.22-1.1,3.12c-.15.41-.98-.82-1.25-1.12,1.2-5.63,3.73-11.03,6.94-15.87l4.79-3.9c.6,1.51.54,3.44.05,5.11Z"/>
      <path class="cls-2" d="M590.37,143.55l-1.98.37c-1.49-.95-3.47-1.22-5.03-.49.28-.76,1-2.25,1.63-2.76,2.45-1.98,6.9-6.09,9.27-8.59,0,0,2.87-2.1,2.9-2.55l1.15-.14c3.15.94,6.68.56,10.91.74-8.07,1.61-14.34,6.82-18.84,13.43Z"/>
      <path class="cls-2" d="M242.39,126.67c2.6,6.29-5.08,10.55-1.94,13.96l-3.05,11.67c-.93-.23-4.5,1.34-5.59,1.44l1.01-3.63c1.45-5.23,5.56-20.54,9.57-23.43Z"/>
      <path class="cls-4" d="M73.89,91.76c.23,1.06-2.95,1.73-3.77,2.52-17.51,16.87-13.48,14.25-22.07,35.53l-.79,1.97c-.14.34-.62.21-1.19.13.88-4.49,2.02-9.94,3.91-14.17,2.97-6.66,6.98-13.22,12.12-18.2l3.88-3.77,4.46-3.88,3.47-.13Z"/>
      <path class="cls-8" d="M416.47,104.05l-3.27,2.94c-.83.74-1.72,2.63-1.8,3.73-5.17.93-10.56,1.19-15.98,1.17v-1.13c4.06-1.27,11.64-4.56,14.95-7.97,2.05,0,4.21.45,6.1,1.26Z"/>
      <path class="cls-5" d="M301.63,123.9c.18.04.53.07.77.09-.86,2.19-2.12,4.2-3.93,5.71.03.32.09.68.02.9l-.96,2.18c-1.29,1.81-3.31,5.56-3.97,7.89l-1.07-1.65c-1.99-3.05-1.15,5.55-5.9,9.9,1.07-5.5,7.61-26.6,15.04-25.03Z"/>
      <path class="cls-2" d="M261.59,147.68l-.02,4.07c0,.44-.08,1.31-.12,1.77-.58.05-1.72.24-1.72.8,0,.68.11,1.95.05,2.51l-.55,4.65-2.85,3.21-.99-2.4c-.16-.38-.37.01-1.24.58l-.92.6c.08-5.54,1.46-10.82,3.39-15.89l.35,3.81,1.89-4.7c.34-.85,1.92.32,2.73.99Z"/>
      <path class="cls-5" d="M228.89,118.64c.2.02.53.09.76.15-1.87,1.69-2.97,6.75-4.12,9.02l-4.89,9.63c-.94-.88-2.11-1.78-3.22-2.52,1.27-4.85,5.11-16.91,11.47-16.28Z"/>
      <path class="cls-1" d="M445.05,90c.09.27.32.97.46,1.23.67,1.22,4.76-1.97,3.99.08-.17.44-.8,1.97-1.27,2.04-10.19,1.51-4.32,11.35-17.83,8.37l7.52-7.39c2.12-2.09,4.62-3.66,7.12-4.32Z"/>
      <path class="cls-2" d="M279.57,101.8c.02.26.26,1.38-.11,1.46l-2.82.6c-15.88,3.39-18.65,14.2-23,10.1,3.18-7.46,8.63-5.26,8.2-9.07l9.66-2.16,1.99-.04c.57-.01,1.58-.62,2.08-.89h3.99Z"/>
      <path class="cls-8" d="M327.42,315.53c.87,1.04,1.58,2.61,1.25,3.66-.45,1.44-2.8,2.94-4.17,2.9-.24-.45-1.13-2.05-1.75-1.82l-2.46.93-2.77-.22c-.45-.92-1.8-1.67-2.99-1.89v-.85s0-4.2,0-4.2l12.88,1.49Z"/>
      <path class="cls-2" d="M293.56,140.68c-2.61,9.2-2.46,7.02-4.95,17.18l-.89,3.65c-.17.71-.46,2.16-.4,2.89-.85.01-1.62.17-1.67-.39l-.24-2.38-.31-2.92c-.04-.35-1.14-.09-1.44-.07l.14-1.97c.23-.26.68-.74.72-1.08.17-1.76.76-5.45,2.07-6.65,4.75-4.35,3.92-12.95,5.9-9.9l1.07,1.65Z"/>
      <path class="cls-4" d="M554.83,159.47l-5.02,15.3-2.51,10.9c-.41,1.77-.93,3.79-2.05,3.94l-.95-4.96c2.3-4.31,3.47-13.9,6.59-21.02-.43-.49-1.41-1.5-1.85-1.88l5.78-2.27Z"/>
      <path class="cls-8" d="M563.46,139.8c-.32,1.58-1.1,3.12-2.33,4.89l-6.11,8.75c-.56.8-3.07,1.42-3.68,1.34-.38-.67-1.15-1.92-1.12-2.64s.81-2.01,1.57-2.96l7.67-9.64,4.01.27Z"/>
      <path class="cls-3" d="M598.97,192.49c.02.8.28,2.38.25,3.18-.06,1.93-.47,5.61-.39,7.61l-1.77,1.18.09,9.04-2.74-.47c-.55-.1-.92-2.1-.96-2.69l-.54-8.06c-.13-1.98.02-3.65.23-5.59l3.48,3.96.47-5.27c.08-.96,1.28-2.86,1.88-2.89Z"/>
      <path class="cls-3" d="M331.38,105.69c.91.02,2.42.17,3.37.24l-.19,3.77c-3.93-.25-11.57,2.14-15.01,4.07,2.61-1.46-9.1,4.34-8.23,4.1.14-.73.02-1.95,1.22-3.13s7.99-3.46,10.03-6.01l.91-3.23,7.9.19Z"/>
      <path class="cls-3" d="M311.32,117.87l-.37,1.92c-.33,1.7-3.09,3.56-4.39,4.83l-3.44,3.38-4.64,1.7c1.81-1.51,3.07-3.52,3.93-5.71,7.36-3.98,2.61-4.41,8.92-6.12Z"/>
      <path class="cls-4" d="M303.11,128.01l-3.61,6.88c-1.82,2.85-3.27,5.74-4.47,9.44l-3.39,10.46c-.4,1.25-1.86,2.74-3.03,3.07,2.49-10.16,2.35-7.98,4.95-17.18.66-2.33,2.68-6.08,3.97-7.89.35-.5.79-1.59.96-2.18.06-.23,0-.59-.02-.9l4.64-1.7Z"/>
      <path class="cls-8" d="M173.48,66.31l-13.92,7.79-6.8-.45c.89-1.28,2.58-2.51,4.34-3.4l6.48-3.27c3.24-.41,6.7-.7,9.89-.69Z"/>
      <path class="cls-8" d="M232.03,301.74l-2.74,5.45c-3.49-3.23-5.92-3.28-9.72-1.81l-5.06-4.19c.53-.66,2.48-1.64,3.49-1.49l14.03,2.04Z"/>
      <path class="cls-5" d="M309.26,314.23l-.13.92-1.87,1.23h-13.73s-.9.03-.9.03l.02-4.22c.19-1.53,16.43.71,16.62,2.04Z"/>
      <path class="cls-2" d="M322.56,108.73c-2.03,2.55-9.45,5.39-9.99,6.13s-1.11,2.28-1.25,3.01c-6.31,1.71-1.56,2.14-8.92,6.12-.24-.03-.59-.06-.77-.09l1.24-4.92c6-4.94,12.48-8.5,19.69-10.25Z"/>
      <path class="cls-2" d="M355.47,109.78c-1.57.64-3.62.86-6,1.08-7.53.67-14.34,5.09-18.64,10.6-1.37.47-3.84,3.71-5.25,3.62l-4.74-5.94c-2.73-1.94-6.05-1.54-8.38.57l-1.5.09.37-1.92c-.88.24,10.84-5.56,8.23-4.1,1.84.93,3.19,2.02,5.3,3.96,7.96-1.81,8.86-4.57,15.53-6.36.4-.11-.89-1.16-.93-1.35l16.03-.24Z"/>
      <path class="cls-8" d="M220.64,137.44c-.14.28-2.65,8.84-3.11,11.42l-4.87.95-.2-2.06c1.25-4.44,2.71-8.89,4.96-12.83,1.11.73,2.28,1.64,3.22,2.52Z"/>
      <path class="cls-3" d="M567.19,138.49c-.98,6.22-3.98,3.47-3.96,8.99-3.01.89-5.17,5.19-6.04,8.06-1.57.77-1.81,2.21-2.37,3.93l-5.78,2.27-1.08-.94,3.38-6.03c.61.07,3.12-.55,3.68-1.34l6.11-8.75c1.23-1.77,2.01-3.3,2.33-4.89l3.73-1.31Z"/>
      <path class="cls-2" d="M321.51,135.71s-6.3,3.05-6.37,2.14c.03-1.22-.1-3.9.53-4.98l2.99-5.14c.44-.76,1.96-1.94,2.68-2.09,1.26,1.02,2.99.36,4.35-.86l-4.18,10.94Z"/>
      <path class="cls-4" d="M275.68,120.56c-1.02,3.43-3.07,6.55-5.27,10.05-5.55,8.83-4.46,15.52-7.9,15.11.08-1.32.6-3.61,1.02-4.99,1.3-4.3,4.6-11.57,7.12-14.84l.89-1.15.03-.88,4.12-3.3Z"/>
      <path class="cls-5" d="M547.1,347.32c1.84.61,5.37.82,7.31.83.7,0,2.17.29,2.78-.04l3.39,1.94-.58,1.93c-5.37-.82-10.86-1.02-16.34-1.06l.56-3.61h2.88Z"/>
      <path class="cls-8" d="M80.92,89.02c-.24.03-1.39.97-1.64,1.11-2.91,1.59-5.39,1.63-5.39,1.63l-3.47.13c-6.01-2.9-11.68,1.4-11.56-1.06,4.85-2.08,18.67-6.42,22.07-1.81Z"/>
      <path class="cls-4" d="M177.44,69.82c.24,1.75-.91,4.82-2.59,5.18-2.91.61-5.78,1.39-8.59,2.24l-1.98.6c-.35.11-.51-.85-.59-1.2l8.33-5.65c1.16-.79,4.2-1.22,5.41-1.18Z"/>
      <path class="cls-2" d="M567.22,137.61c-.15.17.01.66-.02.88l-3.73,1.31-4.01-.27c2.51-3.16,4.26-5.21,7.64-7.81l2.19.67c.7.22.95,2.08.41,2.62-.65.65-1.93,1.96-2.47,2.59Z"/>
      <path class="cls-4" d="M691.16,99.65l-4.22.24c.2-.87.52-2.65.52-3.53l-.05-9.86,3.46-.74c-.13,5.52-.17,9.38.29,13.89Z"/>
      <path class="cls-4" d="M571.28,335.04c1.75.15,2.07,2.98,1.78,4.98-.2,1.43-4.12,1.81-6.31.74s-1.52-6.56-1.16-8.9c2.64.19,3.14,3.06,4.43,6.95.31-.31,1.27-2.76,1.26-3.77Z"/>
      <path class="cls-8" d="M263.53,140.73c-.42,1.38-.93,3.67-1.02,4.99-.03.47.11,1.36.18,1.87l-1.1.09c-.81-.67-3.76,4.15-4.62,3.71s-.35-3.81-.35-3.81c1.1-2.88,1.44-6.5,3.16-9.06.27.3,1.11,1.54,1.25,1.12l1.1-3.12,1.39,4.22Z"/>
      <path class="cls-8" d="M594.93,353.25l-1.37,5.82c-.07.28-.29.74-.42,1.02l-4.51-.33-.1-6.64,6.4.13Z"/>
      <path class="cls-5" d="M245.48,130.76l-5.03,9.86c-3.15-3.41,4.54-7.67,1.94-13.96l1.15-.83,4.29-1.74-2.35,6.66Z"/>
      <path class="cls-8" d="M36.38,104.49l1.23.38-2.46,3.92-.4-3.09c-.18-1.41,1.21-3.73,2-4.99l-.37,3.77Z"/>
      <path class="cls-8" d="M34.75,105.7l.4,3.09c-.66,1.54-1.62,3.47-2.13,5.02-1.31-.32-5.08,1.6-5.86,3.03,1.12-3.47,2.8-6.72,4.56-10.04l3.03-1.09Z"/>
      <path class="cls-5" d="M341.23,129.91l3.99,2.04c-.63,3.35-2.44,6.13-4.48,8.81-5.72,5.36-3.82,6.04-7.26,5.85l3.58-9.82c.92-2.52,2.54-5.1,4.17-6.87Z"/>
      <path class="cls-8" d="M443.2,85.49c-2.37,2.14-4.93,4.19-7.94,4.49l-5.89-2.14c2.54-.94,5.51-1.51,7.89-2.95,1.65.25,4.38.72,5.94.61Z"/>
      <path class="cls-2" d="M229.65,118.79c-.24-.06-.56-.13-.76-.15-1.61-6.15,5.89-6.5,8.72-9.53,1.79-.12,2.3-.26,1.16,1.43l-9.11,8.25Z"/>
      <path class="cls-1" d="M207.73,186.55l-.44,13.94c-.55.06-2.73-2.03-2.61-2.92l1.11-8.03.33-2.24c.06-.45,1.24-.67,1.61-.75Z"/>
      <path class="cls-3" d="M566.35,374.56c-1.61-.05-3.22-.55-4.46-1.56-.73-1.62-.79-5.98.84-5.94,4.31.22,4.43,4.85,3.63,7.5Z"/>
      <path class="cls-5" d="M596.15,129.73c.25-.05.74-.17,1.01-.21-.04.45-2.9,2.55-2.9,2.55l-9.88-.42c-.66-.03-2.39-.9-2.21-.98,3.86-.67,10.13-1.1,13.98-.95Z"/>
      <path class="cls-1" d="M590.1,329.39c-.99-4.57-1.11-9.42-.72-14.32-.11-.39,1.8.94,1.8,1.46v11.54s-1.08,1.32-1.08,1.32Z"/>
      <path class="cls-4" d="M19.79,152.8l.07-3.13c.15.05.02-1.99.02-1.99l.98-5.79c1.75,2.43,2.37,7.61,1.49,10.07-.19.53-2.58.97-2.57.85Z"/>
      <path class="cls-8" d="M291.34,312.25l1.31-.06-.02,4.22-1.31-1.94c-1.9,2.04-3.6,2.88-5.73,2.57l.53-4.02c1.69-.1,3.52-.38,5.22-.77Z"/>
      <path class="cls-1" d="M598.84,203.28l.42,10.96c.02.53-2.08,1.77-1.97,1.41.02-.54-.13-1.6-.14-2.14l-.09-9.04,1.77-1.18Z"/>
      <path class="cls-3" d="M568.41,263.52c-.03,2.36.99,6.81.81,9.06l-2.45-.44c-1.11-.2-1.95-9.16,1.64-8.62Z"/>
      <path class="cls-2" d="M314.54,314.04l-.02,4.2-4.11-.08-1.28-3,.13-.92c1.7-.32,3.62-.39,5.28-.2Z"/>
      <path class="cls-4" d="M319.22,145.48l-1.56,5.1c-.24,2.54-.6,4.37-2.01,5.14l-1.05-.04c.91-3.39,1.59-6.87,1.92-10.34l2.7.14Z"/>
      <path class="cls-1" d="M93.85,192.48c-1.98,2.79-6.49,3.31-8.47-.26,2.26-.68,4.59-.66,8.47.26Z"/>
      <path class="cls-1" d="M579.29,163.42l-.12-1.78s-.08-1.44.17-2.99,1.8-3.06,1.8-3.06l2.35,2.19-4.21,5.64Z"/>
      <path class="cls-1" d="M575.19,179.6c-.1,2.48-.06,5.4-1.72,6.91l-1.33-1.11,1.03-5.7,2.02-.1Z"/>
      <path class="cls-4" d="M570.95,293.5c.03.32-1.72-.85-1.72-1.36l-.03-6.81c.13-.15,2.06.55,2.04,1.07l-.29,7.11Z"/>
      <path class="cls-3" d="M291.34,312.25c-1.7.39-3.53.67-5.22.77.15-1.16,1.1-2.39,2.04-2.58,1.46-.29,4.34.03,3.18,1.81Z"/>
      <path class="cls-3" d="M554.41,348.15c-1.93,0-5.47-.22-7.31-.83.85-.47,3.07-1.15,4.61-1.49.95-.21,2.75,1.38,2.7,2.32Z"/>
      <path class="cls-1" d="M577.05,171.74c.03,1.54-.45,3.15-1.7,3.73l-1.18-.11.93-3.72,1.96.1Z"/>
      <path class="cls-1" d="M595.31,271.54v-6.32c1.33-.22,2.12,2.19,2.11,3.65,0,.97-1.23,2.77-2.11,2.68Z"/>
      <path class="cls-4" d="M287.64,167.75c.02-.85-.25-2.46-.32-3.35-.06-.73.23-2.18.4-2.89,1.34-.1,2.09,2.04,2.11,3.7.01.93-1.25,2.62-2.19,2.54Z"/>
      <path class="cls-1" d="M571.18,195.67v-3.1s.01-1.99.01-1.99l2-1-.02,4.92c0,.57-1.84,1.34-1.99,1.18Z"/>
      <path class="cls-4" d="M45.63,138.52c0,1.97,1,5.41-1.59,5.33,0,0,.76-5.1,1.59-5.33Z"/>
      <path class="cls-3" d="M579.03,164.32l.14,3.31-3-.12c-.4-.75,2.85-3.19,2.85-3.19Z"/>
      <path class="cls-3" d="M573.47,186.5c-.09.84-.28,2.3-.29,3.07l-2,1c0-1.51.7-3.75.96-5.18l1.33,1.11Z"/>
      <path class="cls-4" d="M261.57,151.75l.02-4.07,1.1-.09,1.13,2.68c.28.67-1.73,1.59-2.25,1.48Z"/>
      <path class="cls-3" d="M281.49,201.54c.16-.98.02-2.91,0-3.99.94.08,2.23.67,2.27,1.42.07,1.48-1,2.94-2.27,2.56Z"/>
      <path class="cls-3" d="M215.39,165.39c-.02.58-.77,4.26-1.61,4.38,0-.56-.1-1.78-.15-2.62-.04-.75,1.02-1.57,1.77-1.76Z"/>
      <path class="cls-3" d="M575.35,175.48l-.16,4.12-2.02.1c.25-1.41.66-2.97,1-4.33l1.18.11Z"/>
      <path class="cls-4" d="M251.69,227.64c.06-1.34.44-3.29.88-4.24l1.15,2.75c.26.64-1.5,1.58-2.02,1.49Z"/>
      <path class="cls-3" d="M254.71,304.44l-2.34,1.55c-.64.42-.84-1.68-.92-2.59.9,0,2.46.59,3.26,1.05Z"/>
      <path class="cls-1" d="M579.18,167.63c.02.52-.04,1.75-.55,1.88-.33.09-1.13.1-1.44.11l-1-1v-1.12l3,.12Z"/>
      <path class="cls-1" d="M99.82,193.96l2.39-.49c.38-.08.94,1.48.57,1.62l-1.58.6c-.56.21-1.96-1.62-1.38-1.74Z"/>
      <path class="cls-4" d="M261.45,153.52l.03,2.44c0,.51-1.17.8-1.71.87.07-.55-.04-1.82-.05-2.51,0-.56,1.14-.75,1.72-.8Z"/>
      <path class="cls-3" d="M577.18,169.62l-.13,2.12-1.96-.1c.22-.88.71-2.19,1.08-3.02l1,1Z"/>
      <path class="cls-1" d="M599.15,170.72l-1.81.09c0-.64.61-1.72.95-2.28l.86,2.18Z"/>
      <path class="cls-3" d="M561.18,239.44v-1.99s1.49,0,1.49,0c.38,0,.95,1.49.58,1.56l-2.07.43Z"/>
      <path class="cls-4" d="M569.02,220.3l-.08,2.39-1.25-.18c-.37-.05-.92-1.5-.57-1.61l1.9-.6Z"/>
      <path class="cls-1" d="M593.32,347.07c-.54,0-1.55-.2-2.07-.36-.35-.1-.14-1.18-.13-1.55l1.47.21c.52.07.66,1.17.72,1.7Z"/>
      <path class="cls-1" d="M595.32,248.6c0-.63.48-2.09.66-2.28l.96.92c.25.24.09,1.22-.25,1.25l-1.37.11Z"/>
      <path class="cls-1" d="M613.32,341.2c-.45.79-1.45,1.56-2.39,1.96.02-.46.28-1.66.83-1.77.39-.08,1.26-.16,1.56-.19Z"/>
      <path class="cls-4" d="M250.66,234.54c0-.86.56-2.7.87-3.16-.04.86-.57,2.68-.87,3.16Z"/>
      <path class="cls-3" d="M275.57,101.8c-.51.27-1.51.88-2.08.89l2.08-.89Z"/>
      <path class="cls-3" d="M283.8,156.66c.03-.36.63-1.1.72-1.08-.03.34-.48.82-.72,1.08Z"/>
      <path class="cls-4" d="M668.97,100.76l1.17-.76-1.17.76Z"/>
      <circle class="cls-3" cx="214.15" cy="298.79" r=".5"/>
      <path class="cls-4" d="M48.07,110.86c.1-.33.5-.81.72-1.08-.05.34-.66,1.09-.72,1.08Z"/>
      <path class="cls-3" d="M539.43,182.68c-.02-.38.63-1.22.73-1.17l-.73,1.17Z"/>
      <path class="cls-4" d="M251.37,241.44c-.23-.21-.75-.73-.75-1.08.1-.02.74.72.75,1.08Z"/>
      <path class="cls-2" d="M706.13,100.63l-3.34,2.93-.84.08c-3.46.09-7.07,1.49-9.21,4.18-5.74,2.99-10.26,7.53-15,12.78-5.93,6.56-22.26,14.76-28.73,11.08,11.7-2.38,18.47-6.75,25.91-15.68,1.61-1.93,4.84-3.77,6.06-6.24l4.84-2.98c3.35-2.07,7.59-3.73,9.15-7,.04-.22.15-.63.23-.84l3.82-.18-.03-18.59c0-.66.95-2.57,1.02-2.29l.59,21.38,5.52,1.38Z"/>
      <path class="cls-4" d="M692.74,107.81l.05,1.98c-12.05,9.49-18.66,21.73-33.64,24.55l-10.78,2.03c-.9.17-5.88-.47-6.59-.49l-10.83-.33c.25-.94,1.91-1.84,3.28-2.21l7.02-1.9,7.77.23c6.47,3.68,22.8-4.52,28.73-11.08,4.74-5.25,9.25-9.79,15-12.78Z"/>
      <path class="cls-6" d="M710.01,128.73c-4.26,1.83-12.23-12.96-9.58-18.03.37-.71,3.56-1.03,3.79-.26.29.96.59,2.67.79,4.31l.45,3.69c.09.71,2.81-.7,2.47-.66l-2.46-13.75-2.68-.48,3.34-2.93c4,1,4.12,5.78,4.08,9.2l-.2,18.9Z"/>
      <path class="cls-6" d="M710.01,130.72c-.11,4.06.82,8.7-.93,12.17-.12-.48-.32-2.1-.92-2.13l-3.12-.15c-.78-.04-2.72-1.77-2.33-2.48l2.04-3.74,1.63-2.99c.45-.82,2.71-.71,3.63-.69Z"/>
      <path class="cls-6" d="M706.19,172.69v10.9c0,2.29-.24,4.58-1.1,6.09.27-3.23.15-6.43-2.96-8.6l1.43-8.11,2.63-.28Z"/>
      <path class="cls-6" d="M707.87,159.39c-.21,3.24,1.74,7.25-1.65,9.13l-2.82-.88c-.28-.09,2.09-10.39,4.48-8.25Z"/>
      <path class="cls-4" d="M629.2,135.79c-.95,2.63-3.67,4.66-6.47,6.41l-5.63,3.51c2.48-4.56,7.76-9.31,12.1-9.92Z"/>
      <path class="cls-6" d="M708.97,143.81l-.68,9.12c-2.31-.06-3.71-2.6-3.36-5.15.16-1.15.47-3.25,1.2-3.4l2.85-.57Z"/>
      <path class="cls-6" d="M521.08,18.88l3.4-.07c1.29.06,3.47.29,4.63.2l18.88.95c2.3,2.45,6.11,3.41,9.4,2.72l7.58-1.59c.29,1.51,2.54,2.13,4.18,3.03,5.38,2.98,10.2,1.22,15.96,1.33,2.99.06,6.7,5.51,10.4.19,4.71,3.86,9.89,1.85,15.04,2.18l10.44.68-2.19-3.69c4.74-3.37,31.86,3.21,37.15,3.35,0,0,11.53,1.06,15.07,2.55l8.68,3.64,7.73,3.27c1.56.66,4,2.32,5.44,3.1l-3.85,1.33c-4.82,1.67-6.95,6.35-8.8,11.18-3.16-1.26-3.36-5.33-3.49-8.33-.77-1.1-4.45-1.94-6-2.46-.89-2.47-4.02-7.04-6.59-6.06l-3.39,1.29c-.65.25-1.81-1.73-2.52-1.96,0,0-13.84-1.92-16.54-2.09l-16.71-1.07c-1.17-.08-7.6.82-7.6.82-15.86,1.9-9.45-2.29-25.4-1.36-2.57.15-4.39-1.15-6.32-2.5-3.66-2.56-9.87,2.85-13.09,2.05-5.77-1.43-9.11-1.48-14.98-.39-6.74,1.25-16.07,1.62-22.76,0-4.6-1.11-7.82-1.81-12.38-2.2l-12.04-1.05c-10.82-.94.84-2.21-23.92-.52l-6.31.43c-3.64.25-6.5,1.16-10.28,2.71-2.11.51-11.38,2.85-11.38,2.85l-8.36,1.32c1.88-3.11,4.4-5.76,7.37-8.73,2.23-2.23,5.04-2.94,8.07-4.13,4.92-1.92,8.71-2.33,13.61-2.67l18.44-1.27,11.72-.94c3.72,1.95,7.58,1.96,11.68,1.88Z"/>
      <path class="cls-4" d="M692.88,40.73c1.86-.65,4.85-.64,7.13.22v36.92c-.06-.29-1.01,1.62-1.01,2.29l.03,18.59-3.82.18-.23-38.86c0-.64-.98-2.79-1.43-2.41l-2.04,1.73c-.54,1.58-.66,1.93-.55,1.62.15-6.95-.44-12.7-1.92-18.95l3.85-1.33Z"/>
      <path class="cls-3" d="M618.81,24.81l2.19,3.69-10.44-.68c-5.15-.33-10.33,1.68-15.04-2.18-3.71,5.32-7.41-.13-10.4-.19-5.76-.11-10.58,1.65-15.96-1.33-1.63-.9-3.89-1.53-4.18-3.03.7-.15,2.19-2.04,3.04-2.12.52-.05,14.29,1.53,14.29,1.53l13.92,1.85c4.15.55,10.26-2.59,13.3,2.27,2.52.19,6.91.25,9.29.18Z"/>
      <path class="cls-8" d="M548.18,17.95l-.19,2.01-18.12.65-.76-1.6c15.67-1.31.86-2.56,19.07-1.06Z"/>
      <path class="cls-8" d="M568.97,19.08c-.03,1.02-1.03,1.55-1.54,1.6-.85.08-1.74.27-2.44.42l-7.58,1.59-2.26-4.6c4.63.12,9.2.5,13.84.99Z"/>
      <path class="cls-3" d="M550.14,18l2.22.02,2.77.07,2.26,4.6c-3.29.69-7.1-.27-9.4-2.72l.19-2.01c.49.04,1.42.04,1.96.05Z"/>
      <path class="cls-6" d="M386.58,18.72c.8.44,1.61,1.59,1.91,2.56-5.27,7.23-19.54,3.29-21.68,1.16s-5.39-3.67-9.16-3c.55-1.27,1.84-2.78,3.09-3.49l12.26,2.49,3.84,5.35,3.91-3.1,5.84-1.96Z"/>
      <path class="cls-2" d="M387.43,81c-3.31,1.68-6.96,3.02-10,4.93l-16.06,10.13c-4.01,2.53-11.59,6.72-15.88,7.68-.62.14-1.74.76-2.21,1.08h-2.69s-1.09.11-1.09.11h-1.92c-.35,0-.85.49-1.08.71l-1.75.27c-.95-.08-2.45-.22-3.37-.24.13-.7.32-1.48.87-1.62l2.25-.55c2.88-.7,6.14-1.4,8.89-2.23,11.07-3.34,19.6-11.28,29.42-16.8-.19.11,14.69-6.91,14.63-3.49Z"/>
      <path class="cls-6" d="M280.41,5.2l-.24,3.49,2.64,1.3c.45.22.71-1.59.77-1.79,3.19-.7,5.99,1.41,9.37,1.38l16.34-.15,8.17,1.95c.89.21,2.13,2.02,2.1,2.79-2.42.2-5.69.68-8.84,1.57-2.06.58-4.69-1.7-6.31-1.82-22.85-1.7-7.34-.42-24.77,1.97-1.92.26-5.14,2.72-7.06,1.81s-3.67-2.81-5.18-4.99l-13.18-.95c-4.76-.34-9.21-1.05-13.97-1.98l-6.61-1.29-10.06,3.23c.33-2.46,2.51-4.53,4.2-4.9l7.46-1.66c1.37-.3,3.97-.04,5.38.26,9.09-4.59,4.16,1.54,13.83.49,2.91-.32,16.52,1.79,19.68,3.89l6.27-4.6ZM277.57,10.53c0-.28-.22-.5-.5-.5s-.5.22-.5.5.22.5.5.5.5-.22.5-.5ZM273.69,14.03c0-.61-.5-1.11-1.11-1.11s-1.11.5-1.11,1.11.5,1.11,1.11,1.11,1.11-.5,1.11-1.11Z"/>
      <path class="cls-3" d="M285.63,4.06c1.63,4.08,6.68,1.82,9.84,0l3.11.04c1.16,2.17,4.84,1.78,6.78.94l3.08-.08c7.07,5.09,14.09,1.1,15.15,5.14-.47,1.4-2.54,3.93-4.03,4.06.03-.76-1.21-2.57-2.1-2.79l-8.17-1.95-16.34.15c-3.38.03-6.18-2.08-9.37-1.38h0c-.05.2-.32,2.01-.77,1.79l-2.64-1.3.24-3.49c.31-.23.82-.76,1.12-1.06l4.11-.08Z"/>
      <path class="cls-6" d="M409.66,94.02c-.06,3.29-4.2,4-6.26,5.98-2.92-.69-6.45-1.85-8.08-4.09l6.47-5.15,7.87,3.26Z"/>
      <path class="cls-1" d="M403.42,83.97c-4.23,1.32-7.72,4.48-11.3,7.47l-14.3,11.94c-3.81,3.19-12.66,5.75-17.22,6.39-1.27.18-3.75.02-5.13,0l-16.03.24-4.88-.32.19-3.77,1.34-.27c.35-.05.82-.65,1.32-.77s2.39-.15,3.17-.06h2.69c.06-.43,2.17-1.17,2.17-1.17,4.3-.96,11.92-5.06,15.93-7.59l16.06-10.13c2.61-.34,5.25-.83,8.18-1.45l5.68-1.2c3.17-1.62,11.62-2.38,11.89-.74l.24,1.43Z"/>
      <path class="cls-2" d="M159.81,65.78l-16.29,10.25c-5.19,3.27-15.17,8.65-20.72,7.93.78-1.15,2.51-1.8,4.33-2.71,7.46-3.74,14.46-7.97,21.62-12.47,3.64-2.29,7.01-3.61,11.07-3Z"/>
      <path class="cls-3" d="M152.77,73.66l6.8.45c-4.82,5.39-11.74,7.48-18.66,9.47l-.35-2.62c3.93-2.16,7.49-6.69,12.21-7.29Z"/>
      <path class="cls-8" d="M140.56,80.95l.35,2.62c-2.03.58-5.21,2.67-7.2,3.46-2.23.39-5.16.53-7.99.62l14.84-6.71Z"/>
      <path class="cls-2" d="M116.78,85.62l-3.38,3.75-1.72-2.46c1.36-.49,3.69-1.16,5.1-1.29Z"/>
      <path class="cls-2" d="M120.94,84.14c-.07.5-.34,1.63-.86,1.61l-2.3-.09c.6-.91,1.98-1.49,3.16-1.52Z"/>
      <circle class="cls-8" cx="123.77" cy="88.33" r=".63"/>
      <path class="cls-8" d="M174.62,38.18l1.03-3.41,1.12,2.51c.31.69-2.28,1.83-2.15.89Z"/>
      <path class="cls-8" d="M176.54,29.99l1.17-3.21,1.07,2.69c.21.53-1.91.51-2.24.53Z"/>
      <path class="cls-3" d="M39.88,101.8c.23-.32.7-.86,1-1.11l-1,1.11Z"/>
      <path class="cls-2" d="M70.42,91.89l-4.46,3.88-3.88,3.77-.29-2.12c-.1-.7-2.18-.13-2.82.2l-4.23,2.18c-.69-3.38-5.97-1.04-5.55-3.78,3.09-1.96,6.31-3.76,9.67-5.2-.12,2.46,5.56-1.84,11.56,1.06Z"/>
      <path class="cls-8" d="M307.26,316.38l-.58,1.88c-.21.66-2.38,1.03-3.11.92l-9.5-1.37c-.32-.05-.59-1.41-.54-1.42h13.73Z"/>
      <path class="cls-2" d="M317.52,320.97c-.37.23-1.98,1.19-2.18.59l-.81-2.48c1.19.23,2.54.97,2.99,1.89Z"/>
      <path class="cls-2" d="M324.51,322.08c-1.32-.04-3.24-.42-4.21-.89l2.46-.93c.62-.23,1.51,1.37,1.75,1.82Z"/>
      <path class="cls-8" d="M560,351.98c-.03,1.47-2.43,3.88-3.92,3.76l-9.78-.8c-.64-.05-2.44-.44-2.54-1.01-.14-.75-.21-2.26-.1-3.02,5.48.04,10.97.24,16.34,1.06Z"/>
      <circle class="cls-7" cx="541.23" cy="362.12" r="1.11"/>
      <path class="cls-6" d="M617.08,136.76c-.55,1.49-1.58,2.45-3.13,4.02s-3.55,4.39-4.97,6.05c-.92,1.08-3.52,2.38-4.8,2.99-1.75.83-4.75-.16-6.99,0l-13.1.88,3.19-2,2.94-3.32,10.21-9.45.32,1.88c.12.7,2.68.9,3.51.78l12.82-1.83Z"/>
      <path class="cls-8" d="M674.92,115.99c-7.44,8.93-14.21,13.3-25.91,15.68l-7.77-.23.11-1.41c2.75-.5,5.74-2.39,8.22-4.62l7.57-6.84c16.2,1.57,9.17-4.29,17.78-2.59Z"/>
      <path class="cls-8" d="M641.99,121.54c-4.48,4.43-10.15,7.8-16.88,9.04-3.15.58-7.95-.62-11.91-1.16,8.24-2.24,16.61-8.89,21.99-15.5,1.62,1.57,4.85,2.16,7.35,2.58-.55,1.98-.91,3.86-.56,5.04Z"/>
      <path class="cls-6" d="M652.02,111.63l-10.03,9.91c-.35-1.17.01-3.05.56-5.04-2.5-.42-5.74-1.02-7.35-2.58,1.19-1.46,2.44-2.91,3.86-4.15,2.55-.94,5.58-.81,8.39.2l4.58,1.65Z"/>
      <path class="cls-8" d="M624.77,132.01l-7.69,4.75-12.82,1.83c-.83.12-3.39-.09-3.51-.78l-.32-1.88c6.05-5.6,16.11-4.21,24.34-3.92Z"/>
      <path class="cls-8" d="M289.3,105.34l-6.46,3.78c-1.74,1.02-3.61,2.04-5.11,2.68l-7.06-3.11c6.74-3.19,12.39-3.13,18.63-3.34Z"/>
      <path class="cls-2" d="M316.52,145.35c-.33,3.46-1.01,6.95-1.92,10.34l-2.1,3.05,1.91-12.67c.05-.33,1.14-1.72,1.36-1.49l.76.77Z"/>
      <path class="cls-8" d="M359.49,111.8l-8.02,5.17-2.94,1.73-1.05-.07c-3.56.06-6.67.47-11.93,1.17,6.44-6.03,15.09-8.23,23.95-8Z"/>
      <path class="cls-6" d="M569.36,137.56c1.66,1.98,5.74.1,7.68.69l7.95,2.42c-.63.51-1.35,2-1.63,2.76l-1.39,3.81-2.79.62c-.18-.9-1.03-3.06-1.94-3.48-.74-.34-12.06,2.54-14.01,3.12-.02-5.52,2.97-2.78,3.96-8.99.04-.22-.12-.71.02-.88l2.14-.05Z"/>
      <path class="cls-3" d="M588.4,143.91l-1.12,4.79-3.19,2c-.05-1.28-3.79-2.75-4.9-2.85l4.18-4.43c1.56-.73,3.54-.46,5.03.49Z"/>
      <path class="cls-4" d="M347.48,118.63l1.05.07c-.43.39-.55.37-1.05-.07Z"/>
      <path class="cls-6" d="M435.26,89.98c-4.56,6.41-10.88,13.12-18.79,14.07-1.89-.81-4.05-1.26-6.1-1.26,5.6-5.75,11.19-12.05,19-14.96l5.89,2.14Z"/>
      <path class="cls-6" d="M680.98,109.75c-1.22,2.47-4.45,4.31-6.06,6.24-8.61-1.7-1.58,4.16-17.78,2.59,2.38-2.15,3.42-6.8,6.98-7.76l10.72-1.64c1.89,1.04,4.21,1.43,6.13.57Z"/>
      <path class="cls-3" d="M325.52,122.46l.17,2.31c-1.36,1.22-3.09,1.89-4.35.86-.06-.39.05-2.7-.57-2.54l-2.59.65c-1.11.28-3.42.42-4.43,0s-1.35-3.03-1.29-4.05c2.33-2.11,5.65-2.51,8.38-.57l4.69,3.33Z"/>
      <path class="cls-8" d="M582.17,130.68c-.18.08,1.55.95,2.21.98l9.88.42c-2.37,2.5-6.82,6.61-9.27,8.59l-7.95-2.42c-1.95-.59-6.02,1.3-7.68-.69,3.14-4.08,8.01-6.05,12.82-6.88Z"/>
      <path class="cls-2" d="M270.65,125.89l.89-1.15-.89,1.15Z"/>
      <polygon class="cls-1" points="590.37 143.55 590.22 145.38 587.28 148.7 588.4 143.91 590.37 143.55"/>
      <path class="cls-3" d="M297.54,132.79l.96-2.18c-.16.59-.61,1.68-.96,2.18Z"/>
      <path class="cls-8" d="M334.56,109.7l4.88.32c.04.19,1.33,1.24.93,1.35-6.67,1.79-7.57,4.56-15.53,6.36-2.12-1.94-3.46-3.03-5.3-3.96,3.44-1.93,11.09-4.32,15.01-4.07Z"/>
      <circle class="cls-1" cx="272.58" cy="14.03" r="1.11"/>
      <circle class="cls-3" cx="277.07" cy="10.53" r=".5"/>
    </g>
  </g>
</svg>