<?xml version="1.0" encoding="UTF-8"?>
<svg id="Calque_2" data-name="Calque 2" xmlns="http://www.w3.org/2000/svg" viewBox="0 0 98.6 547.39">
  <defs>
    <style>
      .cls-1 {
        fill: #370409;
      }

      .cls-2 {
        fill: #a49cb8;
      }

      .cls-3 {
        fill: #3e1e18;
      }

      .cls-4 {
        fill: #74585c;
      }

      .cls-5 {
        fill: #422622;
      }

      .cls-6 {
        fill: #573f3b;
      }

      .cls-7 {
        fill: #4d3234;
      }

      .cls-8 {
        fill: #fdfdfd;
      }

      .cls-9 {
        fill: #5c4544;
      }
    </style>
  </defs>
  <g id="Calque_1-2" data-name="Calque 1">
    <g>
      <path class="cls-8" d="M1.94,536.59c.01.24.17.71.21.94.43,3.01,6.28,5.31,9.92,5.85l6.96,1.03c.23.37.27,1.29.2,1.72l-.22,1.26H0v-10.98l1.94.18Z"/>
      <path class="cls-7" d="M51.76,119.33l-.31,58.69-.53,28.89c-.21,11.5-.42,27.72.03,35.23l.13,4.61c-.17-.03-.29,2.19-.01,2.36l-.07,13.62-2.04,1.32.07,27.41c0,.61,1.97,2.12,1.9,1.54l-.02,40.62c-1.92-.26-2.15,2.9-2.01,5.13l.21,3.31c.04.59,1.15.8,1.81.87v3.68l-1.26.17c-.32.04-.63.67-.63.99l-3.72-1.26-.38-20.39c-.01-.66-.91-2.82-.92-2.44,4.02-12.91,1.07-36,1.28-50.49.07-5,.68-9.8-.59-14.07l.1-10.33.31-105.63,1.21-19.16c2.17.09,3.49-2.33,3.84-4.6l1.64-.05Z"/>
      <path class="cls-3" d="M11.08,1.13l2.07.94c.82,10.44,13.67-.04,21.53,4.16,2.37,2.4-1.99,5.82-1.95,7.7l.28,13.41c.04,1.98,1.03,3.71,2.59,3.82l.39,3.11c-1.29,1.34-.71,3.12-.28,5.35l2.59,13.59c1.45,7.6,2.09,15.6,5.73,22.04l-.06,1.9c.47.49.13,2.05.24,2.16l.11,2.62c.03.61.43,1.69.67,2.28v2h-1c-3.59-6.74-10.24-30.06-14.53-41.4l-4.63-12.23c-2.76-7.29-8.12-13.97-12.14-21-1.71-3-4.23-2.89-6.65-4.63C-2,1.13,11.08,1.13,11.08,1.13Z"/>
      <path class="cls-4" d="M44.4,85.47c.44.82,8.44.84,8.44.84,9.42-8.32,2.07-12.51,9.19-25.63.93-1.71-.43-4.57.66-7.64s4.52-4.65,4.52-4.65c.28-.28.75-.74.98-1.02.53-.64,1.17-2.22,1.14-3.05l5.77-4.02-4.82,9.35c-1.24,2.4-4.96,5.74-5.86,8.06-1.77,4.55-3.43,9.99-4.14,14.58-.88,5.68-2.33,9.83-3.83,15.44l-3.61,13.57c-1.54-.35-6.8.98-6.8.98l-5.27-17.5c-3.23-10.73-6.57-21.17-10.44-31.75l-6.41-17.54c-.73-1.99-2.62-4.38-3.63-6.22C15.93,21.25,11.69,13.68,6.06,6.97c2.95.42,4.93,1.63,6.65,4.63,4.01,7.03,9.38,13.72,12.14,21l4.63,12.23c4.29,11.33,11.34,33.9,14.93,40.64Z"/>
      <path class="cls-4" d="M44.86,505.63c-6.14,6.58-9.97,15.79-12.07,24.41-.25,1.03-2.2,2.99-1.51,3.45l3,2.01-10.48,1.52c8.78,1.81,16.78,1.57,24.94,1.43l.11,3.78c-.28-.02-.85,2.17-.85,2.17l-14.69-.03c-.58,0-1.57,1.98-1.31,2.02-.61,0-1.81-.42-2-1-.34-1.03-1.43-2.29-2.37-2.26-1.53.04-2.85,1.01-2.63,2.26,0,0-5.75-.61-5.98-.98l-2.18-3.52,5.26.69c.55.07,1.25-2.33.8-2.72-4.11-3.6-7.22-.45-10.63-5.79,5.14-.72,7.55-1.45,10.45-3.93,2.46-2.11,10.56-7.89,9.33-8.2l-2.16-.54c1.42-4.18,7.94-4.41,6.87-10.06,0,0,1.04-4.57,1.13-4.95l2.21-9.45c.21-.91,2.38-2.58,3.03-2.01.51.46,1.97,2.13,1.95,2.81l-.22,8.9Z"/>
      <path class="cls-2" d="M48.74,538.45c-8.16.14-16.16.38-24.94-1.43,0,0,8.74-5.94,8.99-6.98,2.1-8.63,5.92-17.83,12.07-24.41,1.69,4.77,2.63,10.26,2.25,15.78-1.19,17.18,1.44,10.1,1.64,17.04Z"/>
      <path class="cls-4" d="M43.98,323.66l.02,28.08c.64,13.15-1.28,36.76,1,47.91,0,.62,1.33,1.16,1.84,1.23-.38,3.33-1.25,6.29-3.58,10.26-.56-6.66-1.04-12.14-1.05-18.56l-.14-64.82,2.15-10.92-.16-33.96c0-.64-1.93-20.55.62-23.79,1.28,4.28.67,9.08.59,14.07-.21,14.48,2.74,37.58-1.28,50.49Z"/>
      <path class="cls-1" d="M84.01,20.77c-3.06,5.71-6.32,14.48-8.92,19.52l-5.77,4.02c-.08-2.35.93-6.71,1.89-9.38l2.96-8.19c2.01-5.56,2.85-12.7,6.73-17.11,1.92-2.18,3.59-3.45,3.36-6.04l.02-2.21c.55-.06,15.92,1,14.18,2.21s-11.39,11.46-14.45,17.17Z"/>
      <path class="cls-9" d="M19.02,544.41l-6.96-1.03,2.81-1.62c.76-.44-1.99-2.38-2.12-3.25-.71-5.05-6.6-1.64-9.92-7.05.71-2.4,2.2-4.57,4.9-4.59,1.05,0,6.57-1.15,7.23-1.71,0,0,7.79-1.89,10.37-2.87,1.23-.47,3.48-1.24,4.56-1.89l2.16.54c1.22.31-6.87,6.09-9.33,8.2-2.9,2.48-5.31,3.2-10.45,3.93,3.41,5.34,6.52,2.2,10.63,5.79.45.39-.25,2.79-.8,2.72l-5.26-.69,2.18,3.52Z"/>
      <path class="cls-6" d="M52.83,101.29l.18,9.01s-1.73,1.4-1.8,1.85l-1.1,7.23c-.34,2.26-1.67,4.69-3.84,4.6l-.25-21.7s5.26-1.33,6.8-.98Z"/>
      <path class="cls-4" d="M50.9,346.59l.11,46.9c0,1.64-1.83,4.74-2.91,4.41.16-1.3.99-3.99.99-5.53l-.09-32.65v-11.98c0-.32.31-.94.63-.99l1.26-.17Z"/>
      <path class="cls-7" d="M49,357.73v2c-.25-.02-1.48-.34-1.59.04.33-1.07-1.85,40.31.69,38.14l-1.26,2.98c-.5-.07-1.84-.62-1.84-1.23l-.02-41.06c2.1-.68,2.89-.81,4.02-.86Z"/>
      <path class="cls-4" d="M50.99,262.73l-.08,30.27c.07.58-1.9-.93-1.9-1.54l-.07-27.41,2.04-1.32Z"/>
      <path class="cls-2" d="M36.77,510.33c1.07,5.66-5.45,5.88-6.87,10.06-1.08.66-3.34,1.43-4.56,1.89l6.14-7.4c1.73-1.8,3.55-3.49,5.3-4.56Z"/>
      <path class="cls-6" d="M47,544.39h1v1c.27.03-1.68,1.03-2.18,1.03l-13.82-.03c-.26-.04.73-2.02,1.31-2.02l13.69.03Z"/>
      <path class="cls-4" d="M53.02,110.3l-1.26,9.03-1.64.05,1.1-7.23c.07-.45,1.8-1.85,1.8-1.85Z"/>
      <path class="cls-4" d="M50.89,333.62v9.3c-.65-.07-1.77-.28-1.81-.87l-.21-3.31c-.14-2.22.09-5.39,2.01-5.13Z"/>
      <path class="cls-7" d="M57.2.4c.28,2.14.55,3.14.55,3.14-1.12,3.17-.27,6.67.21,9.87l1.41,9.41c-1.4,3.55-1.47,7.78,1.54,10.44l.08,2.25c-4.91,3.79-1.47,22.35-6,32.62-2.25-3.58,2.46-12.02-1.05-18.86l.16-1.75.08-1.44.65-4.74c.34-.39,1.15-1.1,1-1.58l-.96-3.02-3.18-13.91c.07-1.42,1.26-3.56.95-4.88-.39-1.62-5.1-2.49-6.47-.93-2.58,2.93-2.33,8.17-3.72,11.99-2.65,7.27.04,14.17,2.37,18.5-.06.53-.14,1.6-.16,2.14l-2.75,1.66-1.2-4.89c-1.09-4.45-3.1-8.37-4.73-12.13l-.39-3.11c.93-5.4,1.39-10.82,1.86-16.69.35-4.39,1.4-8.85-1.55-12.05l.92-2.01c5.46.39,15.26-.6,20.36-.01Z"/>
      <path class="cls-3" d="M67.99,1.24h8.93c1.12.06,6.8.06,7.37.14l-.02,2.21c.23,2.59-1.44,3.86-3.36,6.04-3.89,4.41-4.72,11.55-6.73,17.11l-2.96,8.19c-.96,2.67-1.97,7.03-1.89,9.38.03.83-.61,2.41-1.14,3.05l-.98,1.02s-3.87,3.06-4.52,4.65.27,5.93-.66,7.64c-4.93.35-1.23-10.49-1.53-8.42l1.02-6.8c.53-3.57.9-7.19-.51-9.94l-.08-2.25c1.81-.93,1.78-3.06,1.8-5.35l.1-10.43c.02-1.91-3.07-4.1-4.85-4.06-.48-3.2-1.33-6.69-.21-9.87,0,0-.28-1-.55-3.14,1.15.13,8.39.85,10.79.85Z"/>
      <path class="cls-4" d="M36.84.41l-.92,2.01-12.22.39c-3.23.1-7.12-3.21-10.54-.74l-2.07-.94c1.39-2.02,25.76-.72,25.76-.72Z"/>
      <path class="cls-7" d="M12.75,538.51c-3.68,1.21-7.02.57-10.61-.97-.03-.23-.19-.71-.21-.94-.08-1.39.49-3.77.89-5.13,3.33,5.41,9.21,2,9.92,7.05Z"/>
      <path class="cls-4" d="M12.75,538.51c.12.88,2.88,2.81,2.12,3.25l-2.81,1.62c-3.64-.54-9.48-2.83-9.92-5.85,3.58,1.54,6.93,2.18,10.61.97Z"/>
      <path class="cls-9" d="M30,545.39c-1.36-.02-3.76-.16-5,0-.22-1.25,1.1-2.22,2.63-2.26.94-.03,2.02,1.23,2.37,2.26Z"/>
      <path class="cls-5" d="M49,347.75v9.98c-1.12.05-1.92.18-4.02.86l.02,41.06c-2.28-11.15-.36-34.77-1-47.91.65-1.38,1.3-3.72,1.28-5.25l3.72,1.26Z"/>
      <path class="cls-3" d="M45.28,346.49c.03,1.53-.63,3.87-1.28,5.25l-.02-28.08c.01-.37.91,1.78.92,2.44l.38,20.39Z"/>
      <path class="cls-9" d="M54.83,41.33l-.65,4.74-.08,1.44-.16,1.75c-2.39,2.07-2.16,5.48-2.15,9.08l.05,9.84.07,5.31c0,.44-.31,2.01-.35,2.43-.05.56.57.91,1.24,1.37l.04,9.02s1.44.19.16.92-5.43.81-8-1v-2l.92-2.16c.91-2.14,1.19-5.27-.75-6.83l-.03-.91s-.09-3.59-.14-3.27l-.06-2.57c1.93-.63,1.34-2.94.94-5.2l-1.15-7.35c-.07-.67-.21-1.88-.19-2.51l.12-3.78c.02-.54.1-1.6.16-2.14.54-5.14-4.17-9.75-.32-14.7.74-.96,3.68-1.84,4.7-1.24,3.03,1.79,1.17,8.62,5.64,9.77Z"/>
      <path class="cls-5" d="M35.91,2.42c2.95,3.2,1.9,7.66,1.55,12.05-.47,5.87-.93,11.29-1.86,16.69-1.56-.11-2.55-1.85-2.59-3.82l-.28-13.41c-.04-1.87,4.31-5.29,1.95-7.7C26.83,2.03,13.97,12.51,13.15,2.07c3.41-2.47,7.31.84,10.54.74l12.22-.39Z"/>
      <path class="cls-5" d="M41.91,51.29l.18,1.88c.08.82.67,2.22,1.1,2.95-.56,4.26-.53,8.78,1.75,12.35l.45,2.66-.11,4.19-1.25-.08c-3.65-6.44-4.28-14.44-5.73-22.04l-2.59-13.59c-.43-2.23-1.01-4.01.28-5.35,1.63,3.77,3.64,7.68,4.73,12.13l1.2,4.89Z"/>
      <path class="cls-6" d="M45.92,82.06l-.92,3.4c-2.03-2.83-.97-10.21-.97-10.21l1.26-.06c1.93,1.56,1.55,4.73.63,6.87Z"/>
      <path class="cls-5" d="M62.03,60.67c-7.12,13.12.23,17.31-9.19,25.63l-.08-.84s-.14-4.29-.14-5.11.18-3.07.18-3.07c-.12.23,1.12-.97,1.16-1.31l1.03-7.85c4.53-10.27,1.09-28.83,6-32.62,1.42,2.76,1.05,6.38.51,9.94l-1.02,6.8c.31-2.07-3.4,8.77,1.53,8.42Z"/>
      <path class="cls-1" d="M67.21,48.38l.98-1.02c-.23.28-.7.74-.98,1.02Z"/>
      <path class="cls-5" d="M49,359.73l.09,32.65c0,1.53-.83,4.23-.99,5.53-2.54,2.17-.36-39.21-.69-38.14.12-.37,1.35-.06,1.59-.04Z"/>
      <path class="cls-6" d="M54.83,41.33c-4.47-1.15-2.61-7.98-5.64-9.77-1.02-.6-3.95.29-4.7,1.24-3.84,4.95.87,9.56.32,14.7-3.64-3.71-5.02-11.23-2.37-18.5,1.39-3.82,1.14-9.06,3.72-11.99,1.37-1.56,6.08-.69,6.47.93.32,1.32-.87,3.45-.95,4.88l3.18,13.91.96,3.02c.15.48-.66,1.2-1,1.58Z"/>
      <path class="cls-5" d="M60.92,33.25c-3.02-2.66-2.94-6.89-1.54-10.44l-1.41-9.41c1.78-.04,4.87,2.15,4.85,4.06l-.1,10.43c-.02,2.29.01,4.43-1.8,5.35Z"/>
      <path class="cls-6" d="M55,68.12l-1.03,7.85c-.05.35-1.28,1.54-1.16,1.31-.67-.46-1.29-.81-1.24-1.37.04-.42.36-1.99.35-2.43l-.07-5.31-.05-9.84c-.02-3.6-.25-7.02,2.15-9.08,3.51,6.84-1.2,15.28,1.05,18.86Z"/>
      <path class="cls-6" d="M44.66,49.63l1.22,13.64c.39,2.26.99,4.57-.94,5.2-2.84-2.52-3.59-12.92-3.03-17.18l2.75-1.66Z"/>
    </g>
  </g>
</svg>