<?xml version="1.0" encoding="UTF-8"?>
<svg id="Calque_2" data-name="Calque 2" xmlns="http://www.w3.org/2000/svg" viewBox="0 0 573.89 372.33">
  <defs>
    <style>
      .cls-1 {
        fill: #310301;
      }

      .cls-2 {
        fill: #040104;
      }

      .cls-3 {
        fill: #5c534f;
      }

      .cls-4 {
        fill: #ccc4c3;
      }

      .cls-5 {
        fill: #46302d;
      }

      .cls-6 {
        fill: #0b040a;
      }

      .cls-7 {
        fill: #271621;
      }

      .cls-8 {
        fill: #250606;
      }

      .cls-9 {
        fill: #150a13;
      }
    </style>
  </defs>
  <g id="Calque_3" data-name="Calque 3">
    <g>
      <path class="cls-2" d="M390.87,86.58l1.05,4.75c-1.71.5,11.82-.79,19.94-1.38l8.86-.08c5.27,2.76,2.76,1.25,7.53,1.82.02-.18-.13,1.02-.15,1.14-2.59.95-5.66,2.65-7.51,3.08-1.09.25-20.66,3.35-21.54,3.14-1.86-.44-4.22-1.11-5.43-.56-1.02.46-1.89,2.35-1.66,3.35l-1.51,2.62c-.41.7,2.33,6.54,9.42,4.92.85.9,1.57,2.04,3.02,4.37,2.01.02,8.13-.46,10.82-.71.7-.07,1.67,2.21,2.37,2.31,1.28.18,9.16-.58,8.86-2.42l1.88-.3c1.84,1.48,4.39,1.78,7.14,1,3.22-.92,4.86,1.71,7.02,2.78,0,0,7.02,1.91,5.93-3.32l3.88-1.53c2.24.11,5.65.33,7.79.2l8.33,6.21c9.76,8.62,16.02,1.63,16.02,1.63l4.81-.82c1.76.67,8.45,5.58,9.11,6.38s1.09,2.64,1.51,4.01c0,0,21.59,11,19.48,15.22l-1.28.2c-2.13-1.94-5.54-2.72-7.01-.17l-8.76,1.46s-.18,4.05,3,3.95c-.53.96-1.34,2.25-2.21,2.64-1.05.46-3.71-.13-5.04-.35l-2.14-.35c-.6-.1-1.29,2.2-.74,2.45l2.42,1.12c2.62,1.22,5.27,2.03,7.76,2.31-.38,1.3-1.3,4.25-1.74,5.26l-4.3,5.64-1.98-.99c-.6-1.52-1.63-3-2.88-4.06l-.38-2.62.88-1.9c.67-1.45-3.6-1.23-6.58-6.4l-5.96,2.87c1.8,1.03,3.57,1.97,4.77,2.48l.08,4.66c-3.22-1.52-12.64-6.04-12.64-6.04-.66.57-2.66-.42-3.42-.86-.96-.55-3.31-1.5-4-.65s-1.08,3.17-1.08,4.32c-.47.14.97,3.86.97,3.86,1.02.9-2.38,3.86-3.65,3.39l-5.21-1.91c-.95-.35-2.61-1.83-3.68-2.04-3.3-.64-5.24-1.82-7.4-3.67l-1.45,1.91c-.25.33-1.83.54-1.88.14l-4.43.27c-3.91-.78-6.92,2.3-6.92,2.3-.69-.05-1.53.4-2.23.9l-.77.1-4.48.69c.05.54-5,5.29-2.16,7.94.97.91,2.9,1.68,4.46,2.26-1.07,4.43,1.04,9.04,6.45,10.7,3.91-5.52-3.38-11.54,3.72-16.46.88,2.28,2.4,4.26,4.58,5.04-.58,4.46-4.14,3.88-3.48,11.73,1.22-.55,2.5-2.21,3.14-1.8l3.79,2.41,2.86-7.7c.26-.71.19-2.53.37-3.23.23-.88,2.07-1.2,4.47-2.01l-1.15-4.44,4.1.71.54,5.1c.12,1.14,2.85,1.63,3.97,2.22.48-.94,1.69-3.03,2.71-3.61s3.36.62,4.1,1.53c.73,1.06.69,2.15.43,4.38.53.49,2.83,1.8,4.24,2.5,1.13.56,3.55-1.89,4.83-2.19l12.16-2.9.14-4.06,4.04,1.08,1.15,2.63c.3.69,2.9.67,3.35.05l2.52-3.51,2.63-.14c1.92-.55,4.33-.26,6.27.27,1.14.25,4.07-.65,4.73-1.03l-.35-8,2.63,1.78c0,1.12.53,3.66,1.61,3.91s13.92-3.24,13.92-3.24l-4.2-9c-.15-.33-.39-1.64-.43-1.99s1.09-.66,1.37-.44l2.41,1.96c.52-2.79-.5-6.91-1.45-10.05.07-.74,2.47-.78,4.13-.45l1.35-6.24c.3-1.38-.67-3.59-1.9-4.31l-1.51-3.01c-.35-.7-2.4-.52-3.16-.71-1.76-1.09-3.44-1.93-6.56-3.29-.33.2,1.68-2.16.97-2.63l-3.61-2.4c-.8-.53-2.62-1.3-3.61-1.73-2.66-3.29-15.08-12.28-15.27-12.95-1.62-5.76-8.34-6.76-13.97-6.69l-3.21.04c-.66,0-.36,2.14-.91,2.45l-4.02,2-3.9-4.06c-2.54.77-5.99,1.32-8.8.96-1.84-.24-4.48-.94-6.36-1.32-.32-.65-5.04-1.16-5.04-1.16l-2.8-.62-2.85-3.67c.1-1.91.19-4.31-.07-6.13l2.23-.26,9.61-.41,4.04-.08,6.97.17s20.52.91,23,1.04l16.8.89c4.52.24,8.54,1.19,13.27.79,3.17-.27,5.11,1.94,7.62,3.17,4.32,2.13,9.67,3.41,14.29,4.54l1.87.89,2.25,1.24,6.06,4.98c-1.51-.36,10.77,13.16,9.86,10.94.35,1.07,1.41,3.01,1.89,4.07-1.67-1.03,2.88,13.98,3.81,10.77.06,1.17,2.15,26.22,2.15,26.22,0,.94,1.32,97.62,1.32,97.62l-.14,2.1-1.73.02c.16,2.89.17,5.56-.55,7.74-1.1.71-2.39,2.04-3.13,3.26h-1.39c-1.13-1.36-3.2-2.33-4.51-1.29l-1.67-.03-1.07-2.76.51-8.3,1-71.12.8-34.34c.14-6.15,1.3-26.74-4.65-29.98-.16-4.21-19.77-24.92-18.68-16.9-1.11-.35-2.83-.85-3.99-1.15-.44-.11-1.32-.16-1.82-.2-.68-1.13-2.77-.19-4.16.55l-1.85-.06c-.96-.03-2.55.95-3.23,1.66l-6.46.24s-.01.71-.03,1.25l-.04.79c.13,1.81,2.18,3.93,4.04,5.49,15.39,12.83,18,24.8,19.15,44.21l2.01,33.92,1.65,31.36,2.1,34.34.59,10.25c.02.39-.36,1.51.02,1.56l2.97.39,2.35.3c.4.05-.01,1.12-.1,1.53l-7.27.55c-1.68.13-5.09,3.02-4.07,4.63-5.53-1.62-10.5,5.24-11.89,8.98,2.42,2.79,3.65,4.03,4.22,6.09-3.05,2.16-11.58,2.8-13.99,7.59l-3.26.16-8.02,2.02c-1.16-.5-26.78,9.01-26.78,9.01-.66.08-9.94,2.92-9.94,2.92l-6.16-.51c-.96-.08-2.78,1.54-2.82,2.33l-4.2.24c.47-1.58-15.58,2.87-12.84,3.75l-3.13.22c-1.61-1.67-13.75,2.94-16.71,4.22-3.94,1.7-9.49,1.96-13.07,3.92-12.76,6.97-10.43,4.59-19.05,5.08l-12.08.69c-2.96.17-7.57,2.71-10.78,3.48l-7.23,1.74-8.15,1.97c-2.75.66-6.86.57-9.66.71l-7.45-9.96c-1.94-1.98-7.72-1.54-10.59-1.64l-12.09-.42-5.76-1.83c-4.28,7.54,8.85,5.1,7.9,12.95l-2.02,1.13c-1.84-2.82-5,.47-6.95,1.08-6.61,2.05-13.4-.37-19.7-.93-6.39-.57-10.29-1.44-16.26-3.97-2.99-1.27-13.12-6.12-13.12-6.12,0,0-11.01-2.02-11.78-2.04l-7-1.06-.02-2.11,2.96-6.99c.85-2.02,1.74-5.17,2.2-6.98.28-1.11,1.53-3.24,1.15-4.31s-2.19-2.49-3.12-3.18l3.02-1.38c.77-.35.09-2.3-.11-3.06,1.2.52,1.52-21.57-.1-19.01l-.04-23.78-.91-10-.42-7.79.08-7.11c.02-1.85-.24-4.46-.09-6.21.32-3.84-.31-7.35-.7-10.9s-.33-8.15-.3-11.87c.02-3.37.18-6.06-.25-10.39l-9.73,5.19-1.37-9.23-.84-3.03c-.54-1.94,6.41-1.67,5.67-4.44l2-.06c.19.59,1.96,2.45,2.34,1.8l1.64-2.8c3.58-.55,8.43-.36,10.97-2.83,1.71-2.86,2.79-5.67,4.58-9.67l-12.76-2.77c.91,3.79,1.08,5.22-.74,7.21l-31.96,5.31-48.7,8.43c.46-1.37,1.52-2.97,2.94-5.12-.29-2.85-1.43-8.33-2.32-11.15-.22-.69-2.3-2.3-1.73-2.71s2.27-1.47,3.15-1.54c8.94-.71,7.39-11.28,7.45-11.23-.62-.52-2.43-1.1-3.46-1.33l-13.34-2.9-14.98-2.22c-3.4-.5-6.93,0-8.2-3.17-.37-5.56,8.33-7.7,14.03-7.92l7.21-.28,2.09,1.76c.53.45-1.59,1.84-2.18,2.26l-2.09,1.46c-.48.34.61,2.24,1.17,2.39,1.38.37,3.87,1.18,4.6.43l3.19-3.29c.34-.35,1.34,1.87,1.64,2.22.41.47,1.57.25,2.2-.02.56-.24.62-1.77.56-2.69s1.5-2.75,2.34-2.43c.9.35,2.28,1.3,3.59,2.24l-.11-3.31,3.97-6.05,1.19-.41s32.36-.46,32.66-.74c8.5-.76,25.96-.71,43.83-.63.71,1.25,1.71,2.29,3.47,3.98l6.35,4.27,1.45,1.31c.46.42,7.28,1.02,9.34,1.52,3.03.73,8.66-7.84,8.18-5.13l.36-2.05,1.89-.14,12.26,2.23,2.27,6.07c.89,3.16,3.84,4.17,6.43,4.08l1.48,2.92c.43.85,3.48.22,4.11.94.9,1.03,2.54,3.87,3.82,4.35,3.55,1.32,6.05,4.19,8.12,6.94,1.78.82,4.6,2.16,6.45,3.42l.99,2.09-4.09.3c3.59.88,5.95,2.15,6.08,5.5l.55,13.98.96.89,3.39,39.25,1.69,16.75,1.85,17.12,2.08,23.86,1.45,19.98c.41,5.66.94,11.09,2.17,16.76,2.81.41,5.91-.23,7.78-1.72l5.94.39.25,2.53c-3.67,1.15-7.75,2.18-12.09,2.86-2.12.33-6.66-.37-7.61,1.23-2.23,3.99,2.75,6.95,4.46,8.89.83.94,2.69,2.97,4.26,1.83.89-.64,1.93-1.86,3.54-3.63l6.63,1.6c3.03-5.22,7.23-4.58,11.93-4.4,3.6.13,5.52-7.83,2.09-9.64-4.29-1.8-12.45-.94-12.23-3.71.26-1.19.72-3.38.73-4.98l.38-66.68v-2.37s-.02-5.62-.02-5.62l.03-2.35-.26-38.71s.1-13.38.16-13.91c.03-.25-.31-17.05-.31-17.05l3.53,1.42c1.78.71-.81,4.22,2.12,6.84.44.39-2.37-19.58-2.37-19.58,1.52-2.94-6.6-14.26-9.89-14.63-.81-1.35-2.07-2.08-3.47-2.95-2.75-1.71-5.75-4.71-8.69-6.01,3.25-8.2-3.22-9.43,1.68-16.73.57-.85,3.39-1.04,4-.17.76,1.08,2.86,3.75,3.75,3.1.74-.54,1.97-1.71,3-2.65,9.6-8.8,2.48-2.39,10.72-7.46l-4.42-2.12,3.33-3.07c.55-.51-1.51-3.44-.87-3.83l5.18-3.14c4.51,10.23-.39,7.24,2.95,12.21.73,1.09,4.22.6,5.69.16.56-.16,1.38-2.48.82-2.66l-3.14-.99c-1.12-3.06-1.41-7.33-1.08-10.79l4.67-2.72c2.09-1.22,4.04-2.14,6.42-3.08l4.15-2.09ZM388.74,182.13l-1.38.58c-.53.22-.23,1.85-.07,2.46l2.18,8.21,7.82-2.12.57,7.25c2.27-1.15,5.33-5.16,4.74-8.17-.48-2.42-1.3-4.02,1.07-6.6,0,0,3.73,2.71,7.23,3.34l8.37,1.51c-.89-3.11-1.13-7.48-1.03-10.84,0,0-11.51-2-12.19-2.16-.76-2.24-1.35-4.51-2.3-5.58-1.24-1.39-4.66-2.04-6.86-1.5l4.04,2.51c1.08.51-2.32,5.38-3.59,4.28l-5.56-4.8-3.06,11.65Z"/>
      <path class="cls-8" d="M135.15,316.16l.3,5.21c.07,1.15,2.35,1.74,3.72,1.76-.21,2.41-2.16,4.03-4.69,4.06l-7.92,4.09-3.45,3.76c1.97.63,4.97.91,7.26.81,7.6,3.2,16.92,4.77,24.77,2.12,2.16.66,6.17-.44,9.19-.59-.93,2.47-3.13,6.9-5.14,8.11-3.9,2.05-8.24,2.73-9.95,6.46-.4-.01-3.94,1.01-3.94,1.01l-.03-.64-.63-2.71c-.16-.69-2.88.05-2.55.53l-3.67.82-1.77-1.05c-.61-.36-1.34,1.69-1.22,2.21l-1.02,1.02c-.46.06-1.71.1-1.73.61-.01.37-.18,1.08-.25,1.38l-.85,1.19-2.18-.06-8.43-4,6.55.4c.07-4.52-4.21-3.44-4.01-8.59,1.88.61,4.69.51,6.85-.05-10.02-3.29-19.95-4.77-29.11-8.75l1.25-5.95,16.11.19c1,.56,3.59,2.28,4.23,1.5,5.43-6.52-7.46-2.7-7.29-7.68l6.48.85-.04-6.72,13.16-1.29Z"/>
      <path class="cls-5" d="M330.11,2.05c3.96.4,5.97,1.82,5.97,1.82,0,0-1.04,3.51-.02,6.2,2.49,1.43,6.95,2.46,9.96,3.08l8.81,3.97s2.69-.52,3.34.1c.91.87,2.26,2.53,2.8,3.38,0,0-50.53-4.7-52.16-14.9-.16-1,9.03-4.53,9.03-4.53.89.06,8.31.47,12.27.87Z"/>
      <path class="cls-6" d="M243.11,321.02l-2.96,6.99-11,5.14.48,3.31-7.9-.04c-1.84,0-4.84.62-6.66,1.03l-6.13,1.75c-.92-.08-2.7-.38-3.59-.31.65-1.58,2.5-5.53,2.5-5.53l-10.8,2.86c.13-.83,0-2.52-.7-2.82l-5.37-2.32,6.4-1.78s3.28.26,4.06-.76l11.73-3.46c-1.17,2.48,7.56,1.58,12.97,1.75,1.79.06,3.72-2.94,4.29-4.61l12.69-1.2Z"/>
      <path class="cls-6" d="M571.46,268.18l1.12.18-.22,13c-2.15,1.39-4.28,3.53-5.74,5.66l-23.16,4.14-.7-.58,1.73-2.18-7.03-7.62-1.52,9.49,1.67,2.21-4.74.92c-.58-2.05-1.8-3.3-4.22-6.09,1.38-3.75,6.36-10.61,11.89-8.98,1.27,2.02,3.4,3.05,5.11,4.11,4.97,3.07,9.6-1.39,15.12-2.79,2.81-.71,6.83.36,8.7-2.58l-1.13-5.64c.74-1.22,2.03-2.55,3.13-3.26Z"/>
      <path class="cls-3" d="M355.77,11.93s10.03,9.03,12.18,12.98l9.19,16.89c1.46,2.68,1.45,5.92,2.75,8.87l8.78,19.89s4.03,17.82,5.7,18.48,17.48.9,17.48.9c-6.77,2.08-21.64,1.89-19.94,1.38l-1.05-4.75c-.51-2.32-1.29-4.77-2.2-7.1-.31-1.13-.07-4.57-.64-5.75l-9.5-19.64c-.02-4.69-4.85,5.32-7.1,2.16-.76-2.86-16.59-39.12-16.59-39.12l.93-5.2Z"/>
      <path class="cls-3" d="M544.67,101.58c-4.62-1.13-9.97-2.42-14.29-4.54-2.51-1.24-16.38-3.73-20.9-3.97l-16.8-.89c-2.47-.13-23-1.04-23-1.04l-6.97-.17-15.88.75c-.59-.09-17.94-.65-18.6-.06-3.91.01-4.46.92-7.53-1.82,7.74-.07,84.08.27,95.73,2.29,3.15.55,15.7,3,19.02,4.59s7.3,2.22,9.21,4.84Z"/>
      <path class="cls-8" d="M345,342.94l-.18,2.04c-.65.11-1.98.24-2.64.24h-2.5c-.56,0-.82,1.16-.86,1.72l-4.63.27c-.91.05-2.65-.19-3.63-.29l-1.23-2.61c-5.23,1.57-11.58,3.09-14.35-1.16l2.02-1.13c9.75-1.35,2.03-3.59,11.03-5.26l-1.08-5.45c2.87.1,8.65-.33,10.59,1.64l7.45,9.96Z"/>
      <path class="cls-3" d="M441.72,321.13c-3.54,4.81-22.52,7.6-24.76,8.64-21.92,10.19-26.3,4.73-30.82,5.91l-24.83,6.51c-3.32.87-6.79,1.19-10.38,1.78l-6.11,1,.18-2.04c2.8-.14,6.91-.05,9.66-.71l8.15-1.97,7.23-1.74c3.21-.77,7.82-3.31,10.78-3.48l12.08-.69c8.62-.49,6.29,1.89,19.05-5.08,3.57-1.95,9.13-2.21,13.07-3.92,2.96-1.28,15.09-5.89,16.71-4.22Z"/>
      <path class="cls-6" d="M179.31,335.09l-.12,5.7c-.79-.06-2.4.51-3.4.85.97,3.52-.72,5.36-2.51,8.31l-.04.88h-15.08c1.93-7.58,1.35,1.58,9.86-14.82.08-.15.17-.51.26-.66.7-.02,2.4-.05,2.67.63l1.16,3.02,7.2-3.92Z"/>
      <path class="cls-2" d="M231.46,334.95l-.1,1.35-.18,1.8c-.32.25-1.55,1.94-.94,2.19l1.93.8v1.99c-1.6-.22-3.76.34-4.69,1.74-.83,1.24.03,3.31,1.7,3.25l.02,1.28c-1.07,1.22-2.98,1.54-4.84,1.57l-.21-1.39c-.05-.35-.85-.36-.91,0l-.22,1.42c-.42,0-1.25-.04-1.66,0,0-.24.07-1.18-.25-1.29l-1.92-.62c-3.76-2.29-5.38-7.2-4.14-11.58,1.83-.41,4.83-1.04,6.66-1.03l7.9.04-.48-3.31c.73.51,1.64,1.21,2.31,1.79Z"/>
      <path class="cls-5" d="M205.34,338.9l-5.24.41c-2.62.2-5.52,2.13-7.15,4.1l-9.88.52c-4.81-.14-5.25,5.4-9.79,6.03,1.79-2.96,3.48-4.79,2.51-8.31,1-.34,2.62-.91,3.4-.85l2.98.23c1.11.09,3.15-.57,4.26-.8,3.7-.75,7.06-2.62,10.62-4l10.8-2.86s-1.85,3.95-2.5,5.53Z"/>
      <path class="cls-3" d="M308.04,344.24c.37,3.86,9.07.6,9.04,4.54-2.63-.03-6.19-1.31-9.05-1.54-5.01-.4-9.26-.63-13.94-1.58l-9.91-2c-5.3-1.07-15.09-5.6-12.1-4.33,5.98,2.53,9.87,3.4,16.26,3.97,6.3.56,13.09,2.99,19.7.93Z"/>
      <path class="cls-8" d="M122.37,359.21l4.04.84,1.03,2.96c.03,1.96.8,3.88-.25,6.08s-1.79,3.24-5.82,3.24-5.53-3.2-5.9-5.22-.01-7.92-.01-7.92c2.36.15,4.76.32,6.91.02Z"/>
      <path class="cls-6" d="M355.77,11.93l-.93,5.2-8.81-3.97c-1.52-1.82-2.11-4.02-1.63-6.37,0,0,10.4,2.71,11.38,5.14Z"/>
      <path class="cls-6" d="M314.99,343.16c2.77,4.25,9.12,2.73,14.35,1.16l1.23,2.61-.71,2.01-12.78-.15c.03-3.94-8.67-.68-9.04-4.54,1.95-.61,5.11-3.9,6.95-1.08Z"/>
      <path class="cls-3" d="M542.75,290.59l.7.58-7.89,3.78c-3.58,4.5-12.03,5.83-16.69,6.06,2.42-4.79,10.94-5.43,13.99-7.59l4.74-.92c1.64-.82,3.43-1.57,5.15-1.9Z"/>
      <path class="cls-7" d="M336.08,3.87c.74.12,8.31,2.91,8.31,2.91-.48,2.35.12,4.55,1.63,6.37-3.01-.62-7.48-1.65-9.96-3.08-1.03-2.69.02-6.2.02-6.2Z"/>
      <path class="cls-3" d="M240.15,328.01l.02,2.11-1.18,1.1-4.81,2.74-1.76,1.17-.96-.19c-.66-.58-1.58-1.28-2.31-1.79l11-5.14Z"/>
      <path class="cls-5" d="M215.06,337.46c-1.23,4.39.38,9.3,4.14,11.58l-.21,1.11c-3.5-1.92-10.06-10.94-10.06-10.94l6.13-1.75Z"/>
      <path class="cls-4" d="M142.08,350.13c.55,1.12,1.92,2.03,3.19,2.18l.03.64c-11.94-.05-6.67,3.14-14.96,7.14l1.24-3.77.85-1.19,1.74-.62c.31-.11.24-1.21.24-1.37l1.02-1.02,2.99-1.17,3.67-.82Z"/>
      <path class="cls-3" d="M457.69,317.17c-3.01,3.97-8.07,4.62-12.84,3.75-2.74-.87,13.31-5.33,12.84-3.75Z"/>
      <path class="cls-5" d="M564.72,119.64c.91,2.22-11.38-11.31-9.86-10.94,3.96,1.73,8.69,7.36,9.86,10.94Z"/>
      <path class="cls-5" d="M168.02,336.01c-8.51,16.4-7.93,7.25-9.86,14.83-1.7,0-8.92,1.1-8.92,1.1,1.71-3.73,6.05-4.41,9.95-6.46,2.01-1.21,4.2-5.63,5.14-8.11-3.03.15-7.04,1.25-9.19.59s-4.79-2.27-6.8-2.99l11.63.22c1.05.02,3.73,1.74,4.43,1.12.56-.49,1.55-1.57,1.74-2.29l1.88,1.98Z"/>
      <path class="cls-5" d="M570.42,134.48c-.93,3.21-5.49-11.81-3.81-10.77,2.26,2.61,3.64,7.16,3.81,10.77Z"/>
      <path class="cls-4" d="M183.07,343.92l-4.66,5.55c-1.42,1.7-3.4,1.36-5.17,1.36l.04-.88c4.54-.63,4.98-6.17,9.79-6.03Z"/>
      <path class="cls-3" d="M470.86,315.1c-2.77.82-6.05,1.65-8.97,1.82.04-.79,1.85-2.41,2.82-2.33l6.16.51Z"/>
      <path class="cls-3" d="M131.58,356.31l-1.24,3.77c-.33.99-2.05,2.45-2.89,2.92l-1.03-2.96,2.98-3.8,2.18.06Z"/>
      <path class="cls-3" d="M317.84,1.18l-2.89,1.79-6.13,2.74-2.73-2.48-.03-3.24,4.8.18c2.23.08,4.68.53,6.98,1.01Z"/>
      <path class="cls-5" d="M573.74,260.42c.08,3.12-1.13,5.45-1.17,7.94l-1.12-.18c.72-2.18.72-4.84.55-7.74l1.73-.02Z"/>
      <path class="cls-3" d="M572.36,281.36c-.02,1.31-.62,3.75-1.6,4.54-.84.68-3.05,1.08-4.14,1.12,1.46-2.14,3.59-4.28,5.74-5.66Z"/>
      <path class="cls-4" d="M200.1,339.31c-1.27,3.08-4.09,3.94-7.15,4.1,1.64-1.97,4.54-3.9,7.15-4.1Z"/>
      <path class="cls-5" d="M232.26,344.8l-3.05,4.56-.02-1.28c-.14-1.97,1.21-3.63,2.99-4.99v-1.99c.4,1.2.1,3.15.08,3.7Z"/>
      <path class="cls-3" d="M334.19,347.22c-.09.77-3.77,1.73-4.34,1.72l.71-2.01c.97.1,2.72.34,3.63.29Z"/>
      <path class="cls-6" d="M232.18,341.09l-1.93-.8c-.62-.26.62-1.94.94-2.19l1,2.99Z"/>
      <path class="cls-3" d="M342.18,345.22c-.03.55-3.36,1.72-3.36,1.72.04-.56.29-1.72.86-1.72h2.5Z"/>
      <path class="cls-6" d="M221.37,350.94l-2.38-.8.21-1.11,1.92.62c.32.1.25,1.04.25,1.29Z"/>
      <path class="cls-6" d="M224.37,350.93l-1.34.02.22-1.42c.05-.35.85-.34.91,0l.21,1.39Z"/>
      <polygon class="cls-6" points="231.36 336.3 231.46 334.95 232.41 335.13 231.36 336.3"/>
      <path class="cls-2" d="M246.02,8.81l-.54,2.2c-.58,2.36,1.1-.48,8.03-.1,1.7.09,4.02-.38,4.66.78.69,1.26,5.64,4.02,6.7,2.54.75-1.04,3.58.38,4.13,1.78.43,1.07,1.77-3.17,4.65-3.31,4.04-.2,18.62,5.82,21.93,7.26-.09.63-74.09,13-74.09,13,.67,3.4-17.78,13.31-19.35,11l-12.57,2.27s9.6,17.41,12.33,17.77c.08.21,11.4,1.71,11.4,1.71,1.63-.75,4.83.37,6.74.95l1.43,3.14c-2.37,1.17,2.45,29.18,2.58,34.92,0,0,13.93,4.68,14.09,5.85l.44,3.13c.17,1.23,5.96.64,6.83,4.76l-19.2-.11-18.19.3-4.78.03c-.34-.03-.75-.11-1-.04l-2.99.85c-.28.02-19.9,4.03-26.14,4.46.73-4.32-.13-9.59-3.57-12.28l-.29-3.1c.4-1.81-1.91-8.74-1.91-8.74.8-3.11-1.38-7.68-2.52-11.36-2.54-8.22-7.1-24.75-7.1-24.75-.09-2.34-.71-4.95-1.29-7.08-3.38-12.37-4.2-8.56-3.68-15.07.24-2.95-.06-7.26,1.37-10.47,3.84-8.68,13.52-9.25,19.21-12.14,3.04-1.54,5.33-2.31,8.58-3.1l8-1.95,8.02-2.03c2.78-.7,5.17-1.2,8.45-1.31l11.41-.39c.56-.02,1.45-1.67,1.39-1.97l26.83.6Z"/>
      <path class="cls-6" d="M89.27,151.78l-2.42,7.25c-.29.88.3,2.61.59,3.37,1.42,3.75,6.04,11.16,4.22,15.14l-3.09,6.78-27.28-5.5-57.38-10.64c-.83-.15-2.2-1.76-2.2-2.33l5.74-1.33,2.69,2.27c.67.32,1.47-1.43,1.58-2.17l.13-.92,5.87-.93c2.55,2.05.72-1.19,9.76-1.64l2.15-.11c.36-.02.15-.99.1-1.3l13.53-.25,2.82,1.34c.68.33,1.49-1.43,1.59-2.17l11.56-1.16,2.81,1.33c.68.32,1.49-1.43,1.59-2.17l5.58-1.16c2.23,2.4,5.01-.08,7.34-1.82l5.75-.19,2.65,1.23c.52.24.68-2.03.6-2.17l.7-.39,1.33-.32,1.7-.03Z"/>
      <path class="cls-3" d="M173.11,123.95l-3.68,2.5c-3.14.61-6.04,2.31-7.27,5.27-3.16.63-6.45,3.68-6.79,6.87l-7.21.28c-5.7.22-12.92,5.12-14.03,7.92l-1.51,8.53c.33.81-.4,4.41-.4,4.41l-3.85.66c-12.21,2.1-24.56,3.42-36.88,2.35l-4.04-.35c-.29-.75-.88-2.49-.59-3.37l2.42-7.25,2.08-2.29,2.27-.21c.67-.06.12-1.65.01-3.19l3.61-1.96-1.49-2.78s6.4-10.38,7.07-10.46l15.57-1.95-1.76-5.14.72-.93c7.57,6.43,5.47,16.12,10.92,18.01,8.71,3.04,29.07-9.76,31.46-11.65,0,0,11.42-6.88,9.82-17.57,3.43,2.7,4.29,7.96,3.57,12.28Z"/>
      <path class="cls-3" d="M110.09,53.89c1.62,1.14,5.85,1.62,7.63,2.71,14.05,8.58,15.47,1.17,17.18,2.43s-4.38,7.01-4.38,7.01l-4.44-4.02-4.33,2.59c.49.57,2.56,2.68,2.77,3.77l1.55,8.16-4.49,4.92s-18.94,20.75-17.79,23.84l-5.49-2.54c-1.54-.71-4.23-.93-5.98-1.21.21-.99-1.88-3.79-3.25-3.85-3.38-.15-7.01.76-9.77,2.17-.83-.13-2.33-.67-3.09-1.02-.53-4.21,6.71-6.83,3.08-11.06l-.31-1.94c3.8-1.74-2.08-7.5,4.34-17.99,2.79-4.55,8.08-9.49,13.2-11.33,2.67-.96,4.83-1.45,6.46-2.61h7.1ZM119.3,62.6c-4.58-4.17-9.06-4.35-14.03-5.23-5.7-1.01-8.65,1.85-11.94,5.79-1.66,1.99-8.62,1.96-6.98,6.92.99,2.98,32.95-7.47,32.95-7.47ZM96.13,82.49c7.07.58,10.92-3.95,14.02-9.19-5.48,1.48-10.8,4.77-14.02,9.19Z"/>
      <path class="cls-5" d="M1.7,165.84c0,.57,1.38,2.17,2.2,2.33l57.38,10.64,27.28,5.5,38.4,7.84c.61.12,2.38-.37,2.24-.43l.05,7.88-27.95-3.71c-.94.09-2.75-.13-3.73-.27-.28-.51-2.11-2.4-3.07-2.53l-8.98-1.2c-1.1-.15-3.1-.65-4.16-.6-3.77-3.34-9.83-3.17-14.8-3.81l-13.19-1.69h-3.86c-.53-.01-1.55-.36-2.07-.49-.23-.78-2.25-1.73-3.55-1.97l-10.2-1.89c-4.61-.86-9.36-1.85-14.06-1.94-.75-.92-1.79-1.56-2.93-2.08-1.49-.68-3.75-1.7-5.31-1.81-2.19-.15-4.78-.29-6.94-.24-3.6-2.15-4.78-4.93-4.41-9.08.47.07,1.16-.43,1.63-.46Z"/>
      <path class="cls-9" d="M131.29,84.74l.07,1.04c-.31.25-.88.69-1.08,1l-9.47,14.84c-4.72.37-8.91,1.09-9.63,5.12-1.06,5.94,1.3,11.7,6.12,14.08-.07.51.02,1.5.05,2.05l-.72.93c-9.03-7.69-10.35,1.18-16.06-3.95-.02-.91.6-2.46.66-3.3l.32-4.75c1.85.06,2.29-3.48,2.86-5.09.68-1.95,9.49-17.86,12.71-16.78-.76,7.38,10.15-4.99,14.17-5.2Z"/>
      <path class="cls-3" d="M219.19,8.2c.06.3-.83,1.95-1.39,1.97l-11.41.39c-3.28.11-5.67.61-8.45,1.31l-8.02,2.03-8,1.95c-3.24.79-5.54,1.56-8.58,3.1-5.69,2.89-15.37,3.46-19.21,12.14-1.42,3.21-1,8.04-.78,11,.47,6.35.27,2.08,3.09,14.55.49,2.16,1.2,4.74,1.29,7.08,0,0,4.56,16.53,7.1,24.75,1.14,3.68,3.32,8.25,2.52,11.36,0,0-8.48-24.76-10.55-34.11-.78-3.54-5.25-18.28-4.49-26.12.34-3.51-.05-7.16.83-10.66,2.12-8.41,43.63-19.12,47.42-19.24l12.44-.37,6.2-1.12Z"/>
      <path class="cls-9" d="M299.86,2.04c1.63.46,4.58.97,6.23,1.2.84.12,2.24,1.79,2.73,2.48,0,0-13.15,7.77-13.49,7.19s-4.1,1.36-4.1,1.36c-.58.78-8.32,2.64-8.32,2.64l-3.78-.97c-.17-1.25-.68-3.57-1.11-4.36-2.23-.65-4.58-1.27-5.13-2.63,1.6-1.44,3.13-3.02,4.16-4.7l3.14-.23c1.63.56,4.15.67,6.2.15,0,0,2.59-2.17,2.59-2.23l10.89.12Z"/>
      <path class="cls-5" d="M130.73,65.98l1.14,2.1-1.24,9.72c-4.61,8.92-8.52,5.09-13.51,12.14-3.22-1.08-12.03,14.84-12.71,16.78l-1.19-.1.07-1.71c-1.15-3.09-.4-6.6,1.84-9.33l9.04-11.01c2.97-2.62,9.46-13.35,7.8-20.01l4.33-2.59,4.44,4.02Z"/>
      <path class="cls-5" d="M116.63,123.8l1.76,5.14s-13.98,1.54-15.82,4.11-5.33,11.08-5.33,11.08c0,0-2.96,5.08-3.62,5.14l-2.27.21c-.05-.53-.18-1.47-.13-1.95l.23-2.03.79-.99c.37-.12,1.2-3.95,1.2-3.95.68-1.22,1.37-2.57,1.98-3.84.79-1.49,1.92-6.07,1.92-6.07.81-1.83,2.06-6.79,2.06-6.79.5-1.24.94-2.74,1.18-4.02l.71.03c5.27,4.62,6.14-3.98,15.35,3.92Z"/>
      <path class="cls-7" d="M267.04,6.19l10-1.94c.56,1.36-.45,3.63.97,7.33.42.79.94,3.11,1.11,4.36-5.47-1.41-3.32,3.9-18.07,3.04s-16.15-5.6-15.57-7.96l.54-2.2c1.91.16,21.02-2.62,21.02-2.62Z"/>
      <path class="cls-3" d="M131.42,86.77c.12,1.98-.73,5.14-2.01,6.87,0,0-7,10.99-8.9,11.98s-8.73,1.72-8.73,1.72c2.69,9.67,6.49,6.59,5.51,13.48-4.82-2.39-7.17-8.15-6.12-14.08.72-4.04,4.91-4.75,9.63-5.12,3.78-6.12,8.49-15.21,10.55-15.84l.06,1Z"/>
      <path class="cls-4" d="M103.2,53.84c-1.63,1.17-3.79,1.65-6.46,2.61-5.12,1.84-10.42,6.78-13.2,11.33-6.42,10.49-.54,16.25-4.34,17.99-1.35-10.09-1.22-18.69,7.04-26.21,4.71-4.29,10.8-7.9,16.96-5.72Z"/>
      <path class="cls-4" d="M131.87,68.08l-1.14-2.1s4.79-6.19,4.09-6.81-2.83,5.95-16.88-2.63c-1.78-1.09-6.01-1.57-7.63-2.71,8.63-2.98,13.59,5.78,17.53,3.57,2.43-1.37,7.89-2.8,9.04-.73,2.32,5.04-1.47,9.37-5.01,11.4Z"/>
      <path class="cls-7" d="M131.29,84.74c-4.02.21-14.93,12.57-14.17,5.2,5-7.05,8.91-3.22,13.51-12.14l.66,6.94Z"/>
      <path class="cls-4" d="M103.29,104.91l-.07,1.71c-.7,1.43-1.56,3.66-1.67,5.19l-.32,4.75c-.56-.22-.67-10.79-2.71-13.86l4.77,2.21Z"/>
      <path class="cls-4" d="M92.53,101.48c-1.46-.23-3.52-.86-5.59-1.33-1.82-.42-5.56-.06-7.43-.35,2.75-1.4,6.38-2.31,9.77-2.17,1.37.06,3.45,2.86,3.25,3.85Z"/>
      <path class="cls-4" d="M76.43,98.78c-3.43-2.04.15-8.24,3.08-11.06,3.64,4.23-3.61,6.86-3.08,11.06Z"/>
      <path class="cls-3" d="M288.96,1.92c0,.07-2.59,2.23-2.59,2.23-2.04.52-4.57.41-6.2-.15,1.93-2.56,5.66-2.12,8.78-2.09Z"/>
      <path class="cls-5" d="M29.71,159.71c.05.31.26,1.29-.1,1.3l-2.15.11c-9.04.45-7.28,4.4-9.83,2.35l.07-.71c1.08-.35,9.37-3,12.01-3.05Z"/>
      <path class="cls-3" d="M306.09,3.24c-1.65-.23-4.6-.73-6.23-1.2.1-.19.8-.96,1.21-1.04l4.99-1,.03,3.24Z"/>
      <path class="cls-5" d="M76.54,153.65c-2.34,1.74-5.11,4.22-7.34,1.82,0,0,6.53-1.79,7.34-1.82Z"/>
      <path class="cls-5" d="M11.83,163.69c.91,2.19-1.03,3.41-1.7,3.09l-2.83-1.34.14-.93,4.39-.82Z"/>
      <path class="cls-5" d="M63.61,156.63c-.11.74-.91,2.49-1.59,2.17l-2.81-1.33,4.41-.84Z"/>
      <path class="cls-5" d="M47.64,158.63c-.1.74-.91,2.49-1.59,2.17l-2.82-1.34,4.41-.82Z"/>
      <path class="cls-5" d="M85.54,152.51c.08.14-.08,2.41-.6,2.17l-2.65-1.23c.52-.31,3.25-.94,3.25-.94Z"/>
      <path class="cls-2" d="M33.71,181.44c-.02,1.05.03,2.97-.21,3.92-1.53,6.01-1.09,18.17.05,24.72l1.8,1.55.1,13.69c-1.24,1.44-1.23,4.72,0,6.16l-.19,31.94c-5.3,4.18-4.83-.72-10.54,1.94l-.24-13.79c-.01-.59-.89-2.75-.88-2.31l-.2-28.92c0-.43.05-1.24.08-1.71l1.16-2.69c.22-.5-2.14-.43-2.28-.41l-.91-27.09c0-.5.09-1.45.13-1.98l.98-5.65-2.93.76v-2.06c4.71.09,9.46,1.08,14.07,1.94Z"/>
      <path class="cls-8" d="M58.58,318.08l1,.15,2.86,1.01c3.97.27,7.54-.13,10.92-1.33,4.29-1.52,9.05-.56,12.23,2.36l-1.83,3.04c1.55,2.52,1.77,5.18.79,7.86l-11.09-3.16c-5.82-1.66-9.94-.77-9.94-.77l-1.75,2.84-1.32,1.12c-1.16.05-6.87,2.23-6.88,3.01l-.03,6.04-.05,1.96-1.08,5.96c-4.14.47-12.9-1.12-12.9-1.12,0,0-.76-1.3-1.42-2.6s-.47-4.47-.47-4.47c.16-10.78-2.11-8.29,3.64-22.11-.09-1.91,4.25-2.32,4.19-4.62l7.33,4.38c1.3.68,4.5.53,5.8.46Z"/>
      <path class="cls-2" d="M35.33,271.28l.46,2.1s3.97,28.21,7,32.91c-.1,2.88-4.13,3.33-6.69,2.75-4.75-1.07-4.13-8.17-7.49-9-.22-.05-1.08-2.54-1.08-2.54.3-.37,1.58-2.26.93-2.56l-1.93-.89-2.04-6.57c.04-.89.6-2.9,1.43-3.17l3.48-1.12c1.68-1.5,2.51-5.05,3.05-7.8l.13-3.27c.03-.8,1.97-.77,2.74-.83Z"/>
      <path class="cls-6" d="M123.51,344.06c-.2,5.14,4.09,4.07,4.01,8.59l-6.55-.4,8.43,4-2.98,3.8-4.04-.84-6.89-2.32v-14.79c2.72.35,5.37,1.1,8.03,1.96Z"/>
      <path class="cls-8" d="M35.26,263.41l.07,7.88c-.76.07-2.71.03-2.74.83l-.13,3.27c-.54,2.75-1.38,6.3-3.05,7.8l.39-3.75-6.19,1.84-.04-2.04c1.64.05,4.2-.52,5.88-1.58,1.25-.79.34-4.05-.48-5.84l-5.19.47-.11-6.8,1.06-.14c5.71-2.66,5.24,2.23,10.54-1.94Z"/>
      <path class="cls-5" d="M84.55,331.17c.19.29.5.79.68,1.05,3.21,4.51,12.9,8.42,13.62,5.87l.76-2.68,1.63-.14c9.16,3.97,19.09,5.46,29.11,8.75-4.75,3.2-55.64-5.55-57-13.07l-.96-2.53,1.06-.39,11.09,3.16Z"/>
      <path class="cls-3" d="M42.79,306.29l1.7,1.99c.81,2.46,3.75,5.62,6.29,5.63.16.25.3.88.5,1.09l1.24,1.3c1.88.18,4.63.87,6.06,1.78-1.3.07-4.5.21-5.8-.46l-7.15-3.74c-4.59.82-8.25,15.54-8.25,15.54-4.55-9.65-1.65-14.56-4.86-21.11l-3.98-5.11c0-.25,0-.74,0-1l.08-2.16c3.36.83,2.74,7.93,7.49,9,2.56.58,6.6.13,6.69-2.75Z"/>
      <path class="cls-3" d="M54.04,345.81c-.04.63-.28,2.87-.66,3.69s-.57,1.04-2.11,1.43-5.54.07-5.54.07c0,0-3.83-1-4.06-1l-2.16-2.96c3.13-.39,9.61.59,11.09-.38s2.89-4.46,2.89-4.46c0,0,.6,2.98.56,3.61Z"/>
      <path class="cls-5" d="M23.56,279.24l.21-6.95,5.19-.47c.82,1.78,1.73,5.05.48,5.84-1.68,1.06-4.25,1.63-5.88,1.58Z"/>
      <path class="cls-6" d="M72.4,328.41l.96,2.53-11.6.21v-1.07s1.75-2.84,1.75-2.84c2.88.06,5.96.46,8.88,1.17Z"/>
      <path class="cls-5" d="M29.41,283.18l-3.48,1.12c-.83.27-1.39,2.28-1.43,3.17l-.89-6.2,6.19-1.84-.39,3.75Z"/>
      <path class="cls-5" d="M24.72,265.35l-1.06.14-.06-16.24c0-.44.87,1.72.88,2.31l.24,13.79Z"/>
      <polygon class="cls-5" points="21.58 186.45 19.63 183.6 19.64 181.56 22.57 180.8 21.58 186.45"/>
      <path class="cls-5" d="M122.37,359.21c-2.14.3-4.55.13-6.91-.02l.02-2.3,6.89,2.32Z"/>
      <path class="cls-3" d="M27.53,297.5l-1-3.46,1.93.89c.65.3-.63,2.19-.93,2.56Z"/>
      <path class="cls-7" d="M219.94,66.62l.43-8.94-1.38-6.54c.43-3.34,3.09-17.95,1.95-18.44,0,0,21.3-5.65,25.73-5.23s39.89-9.65,36.12-10.6c0,0,21.11-7.25,20.35-8.54l5.57-2.66c-.48-.69,45.09,8.45,52.26,14.95,3.42,3.1,9.52,18.78,9.52,18.78,1.07.27,6.17,55.09,5.03,55.02-1.62.59-131.28,10.53-133.83,13.98-.89,1.2-2.29,2.1-3.66,2.13-.16-1.17-14.09-5.85-14.09-5.85-.35-.98-.89-2.59-1.09-3.53-.7-3.21-2.91-34.53-2.91-34.53"/>
      <path class="cls-1" d="M526.58,112.7l2.81-3.78c5.54,4.1,10.1,8.97,15.02,14.32l-.85-5.57c4.64-.17,3.62,4.21,7.73,6.93-.3-2.18-.83-4.8-1.74-5.82l1.87-.05,5.57,8.25.33-3.36c5.96,3.24,4.8,23.83,4.65,29.98l-.8,34.34-1,71.12-.51,8.3c-3.44,2.75-8.6,2.25-13.07,2.02l-.59-10.25-2.1-34.34-1.65-31.36-2.01-33.92c-1.15-19.42-3.76-31.38-19.15-44.21-1.87-1.56-3.91-3.68-4.04-5.49,6.21,3.11,10.3,8.48,16.73,13.02l-7.22-10.14ZM540.42,124.97c-.5-2.41-8.67-13.85-11.01-11.84l7.6,9.05.69,3.08c.12.55,2.84.27,2.72-.29Z"/>
      <path class="cls-1" d="M543.57,117.67c-.55-.3-1.54-.81-2.01-1.14l.38-.89,1.63,2.03Z"/>
      <path class="cls-1" d="M363.1,184.57c.32.74.01,14-.16,13.91l.26,38.71-.03,2.35.03,5.62v2.37s-.39,66.68-.39,66.68c0,1.6-.47,3.79-.73,4.98-2.37.65-7.17,2.06-7.17,2.06-1.87,1.5-4.97,2.13-7.78,1.72-1.23-5.68-1.76-11.1-2.17-16.76l-1.45-19.98-2.08-23.86-1.85-17.12-1.69-16.75-3.39-39.25c.1-1.66.86-4.75,1.21-6.79l3.67,6.75,1.12-10.91c5.8,5.14,2.25,11.95,5.91,19.07,1.65-2.57-.16-17.56,1.21-17.6l2.72-.07c.6-.02.62,2,.63,2.76l.1,7.03c0,.69.92,2.04,1.33,2.5,3.35,3.7-2.11-8.74,4.56-10.45l.82,21.2c.26,6.73-1.48,13.07,1.82,19.84,1.95-5.68-.42-41.18,3.5-38.01ZM354.55,206.19l-.43-9.8c-.45-1.33-.91-2.22-3.07-4.35l.21,15.42,2.26,1.16c.43.22,1.05-1.85,1.03-2.43Z"/>
      <path class="cls-6" d="M357.05,85.3c18.11.62,18.57,9.16,18.57,9.16-.32,3.46-.03,7.73,1.08,10.79l3.14.99c.56.18-.26,2.49-.82,2.66-1.48.43-4.96.93-5.69-.16-3.35-4.97-6.17-.04-6.17-.04-8.24,5.07-1.12-1.34-10.72,7.46-1.03.94-2.26,2.1-3,2.65-.89.65-2.99-2.02-3.75-3.1-.61-.87-3.43-.68-4,.17-4.9,7.3,1.57,8.54-1.68,16.73-8.8-3.91-17.65-7.12-27.87-7.48-6.31-.22-13.16-3.3-20.44-3.32-5.5-.01-10.87-.82-15.74-2.09l1.73-4.1c-2.9-4.36,57.24-30.94,75.35-30.32Z"/>
      <path class="cls-5" d="M245.4,118.46l18.89.44s15.47.85,15.68.83c4.88,1.27,10.25,2.08,15.74,2.09,7.29.01,14.13,3.09,20.44,3.32,10.22.36,19.07,3.57,27.87,7.48,2.93,1.3,5.94,4.3,8.69,6.01-1.17,1.35-3.77.87-6.17.55,0,0-3.6,1.85-3.23,2.05,1.04.43,2.2.92,2.84,1.3-.59.29-1.62.92-1.36,1.4l1.48,2.85c-2.13,1.44,1.45,3.04,2.03,4.45,1.01,2.43,1.55,4.79,3.46,5.65.14,1.77.6,3.79,1.36,5.24l.08,1.45c.01.26-.15.76-.25,1.06-4.25-1.7-7.01-9.14-7.94-12.91-1.68-6.82-5.79-8.64-11.02-12.83-1.21-.97-2.98-3.24-4.12-4.52-.69.23-1.59.82-2,.49l-2.24-1.8-2.58,1.41c-1.99-1.6-9.69,2.55-9.69,2.55-.84-.36-.99,2.6-1.3,3.46l-1.12,3.19c-2.67,1.18-8.88-2.79-9.82-4.2-.44-.66-.04-1.87.43-2.71-1.58-.72-4.21-2.59-5.54-2.64l-7.21-.23c-1.11-.03-3.19.89-3.73,1.67l-1.89.14c-9.19-7.18-15.25,3.7-17.08.6l-1.89-3.21-5.25.18c-.52-1.13-22.26-.58-24.72-.66l-8.03-.26s-9.98.03-12.25.03c-.26.03-.78.08-1.05.07l-7.6.34-2.08-14.24,22.96-.18,19.2.11Z"/>
      <path class="cls-6" d="M164.61,188.15l-17.29,3.34c-4.63.89-13.46-1.06-17.93-.7-.78.06-2.08-.94-2.56-1.55-.61-.77-.41-3.29-.06-4.28,4.73-13.24.37-11.2,5.44-25.22,0,0,.73-3.6.4-4.41l1.51-8.53c1.27,3.18,4.8,2.67,8.2,3.17l14.98,2.22,13.34,2.9c1.03.22,2.85.81,3.46,1.33-.07-.06,1.49,10.51-7.45,11.23-.89.07-2.59,1.13-3.15,1.54s1.51,2.02,1.73,2.71c.89,2.81,2.04,8.29,2.32,11.15-1.42,2.15-2.48,3.75-2.94,5.12Z"/>
      <path class="cls-9" d="M370.5,39.39c2.25,3.17,8.01,10.01,8.03,14.7l9.5,19.64c.57,1.18.33,4.61.64,5.75.91,2.33,1.69,4.78,2.2,7.1l-4.15,2.09c-2.38.94-4.33,1.87-6.42,3.08l-4.67,2.72s-3.23-37.59-3.87-37.83c0,0-1.1-10.36-1.26-17.24Z"/>
      <path class="cls-5" d="M254.2,179.64c-2.54,2.47-7.39,2.28-10.97,2.83-1.23.19-2.85.62-3.97,1.01l-2,.06c-3.73-1.22-7.56.87-12.79,2.32l1.84,1.85c-5.02-1.69-10.06.43-15.04.73-7,.42-13.86.55-20.1,4.21-4.1-.96-9.64,1.82-13.77,1.8-6.6-1.27-13.33.45-19.17,3.94l-8.94.2c-.02-2.45-.76-4.84-1.96-7.09l17.29-3.34,48.7-8.43,31.96-5.31c2.3-.38,4.84-.46,8.61-.87l.31,6.1Z"/>
      <path class="cls-8" d="M354.93,157.52c-.14,1.73.74,5.55,1.77,7.01.45.63,3.01.29,3.27-.04l2.82,3.04.26,7.86.1,8.33c0,.21-.04.61-.06.86-3.92-3.17-1.55,32.33-3.5,38.01-3.3-6.77-1.56-13.11-1.82-19.84l-.82-21.2c-6.67,1.71-1.22,14.15-4.56,10.45-.41-.46-1.32-1.81-1.33-2.5l-.1-7.03c-.01-.76-.03-2.77-.63-2.76l-2.72.07c-1.37.04.44,15.04-1.21,17.6-3.66-7.12-.11-13.93-5.91-19.07l-1.12,10.91-3.67-6.75c-.34,2.04-1.1,5.13-1.21,6.79l-.96-.89-.55-13.98c-.13-3.34-2.48-4.62-6.08-5.5l4.09-.3,3.37,2.78c.55-1,1.63-3.44,2.14-2.98l3.41,3.03,2.66-3.73,3.05,1.69c-.39-.22,6.61-2.67,7.32-4.75.1-.3.27-.8.25-1.06-.05.09.57-1.05.78-1.43.16-.29-.34-.15-.85-.02-.76-1.45-1.22-3.47-1.36-5.24l1.26-.31,1.91.96Z"/>
      <path class="cls-6" d="M517.53,126.73c-.62,1.55-1.34,5.04-.52,6.44,2,2.16,12.33,5.49,14.51,3.48,1.23.72,2.2,2.93,1.9,4.31l-1.35,6.24c-1.66-.33-1.83,19.98-1.83,19.98,0,0-12.84,3.49-13.92,3.24s-1.62-2.79-1.61-3.91c2.4.02,5.34-5.12,3.69-7.04l1.35-4.16s2.64-11.65-1.93-10.95c2.11-4.23-19.48-15.22-19.48-15.22-.42-1.37-.85-3.21-1.51-4.01s-7.35-5.71-9.11-6.38c1.05-.18,2.98-1.13,3.98-1.2,1.77.73,3.38.21,5.44-1.33l1.19,3.18,3.84-.69c.79-.14.48,3.5.96,4.14,1.8,2.4,7.1,5.96,9.84,6.73,1.71-1.57,3.29-2.97,4.55-2.85Z"/>
      <path class="cls-9" d="M485.74,162.57c1.85.87,4.19,3.56,7.19.91,1.24,1.06,2.28,2.54,2.88,4.06l-2,6.35-2.03.58-4.04-1.08c-2.52-.67-4.96-.42-8.13-.07l-7.95.87s-4.1-.03-5.71,1.47c-.74-.91-3.08-2.11-4.1-1.53s-2.23,2.67-2.71,3.61c-1.12-.59-3.85-1.08-3.97-2.22l-.54-5.1,2.09-5.74,5.21,1.91c1.27.47,4.67-2.5,3.65-3.39,0,0-1.44-3.73-.97-3.86,2.79-.85,8.89,9.66,9.71,3.32.11-.85-.51-2.68-1.16-3.36l-3.46-3.64c.76.44,2.75,1.43,3.42.86,0,0,9.42,4.52,12.64,6.04Z"/>
      <path class="cls-3" d="M246.15,283.09l.03,15.11-6.93,1.29c-2.35.44-4.25.6-5.72-1.11l-.42-8.15c.73-.05,1.92,0,1.91-.56l-.05-2.22.22-21.43,6.46,1.76,1.19-1.56c3.86-.19.84-6.27,3.26-6.91l.04,23.78Z"/>
      <path class="cls-9" d="M402.6,190.33c-10.8-1.1-8.55-7.44-10.48-7.72l-3.38-.48s.98-8.94,3.06-11.65,5.15-2.95,5.15-2.95c2.2-.54,5.58,1.06,6.82,2.45.95,1.07,1.53,3.34,2.3,5.58.68.17,11.33-1.33,12.19,2.16s3.64,8.33,1.03,10.84-8.37-1.51-8.37-1.51c-3.51-.63-4.57,1.58-8.31,3.26Z"/>
      <path class="cls-7" d="M310.95,143.66c.89.23,2.29.45,3.26.49l3.02,4.24c3.52,4.94,7.08,9.57,11.6,13.09l1.18,5.02c-1.85-1.26-4.67-2.6-6.45-3.42-2.07-2.74-4.57-5.62-8.12-6.94-1.28-.48-2.92-3.31-3.82-4.35-.63-.72-3.68-.09-4.11-.94l-1.48-2.92c-2.59.09-5.54-.92-6.43-4.08l-2.27-6.07-12.26-2.23c.54-.79,2.62-1.71,3.73-1.67l7.21.23c1.33.04,3.96,1.92,5.54,2.64-.46.84,6.73,8.09,9.39,6.92Z"/>
      <path class="cls-9" d="M352.71,138.62c1.4.87,2.66,1.61,3.47,2.95-.59,1.11,2.05,6.57,4.11,6.47l3.01,8.11c.3.82,2.5.57,2.77.06,0,0,2.8,19.97,2.37,19.58-2.93-2.61-5.65-8.26-5.65-8.26l-2.82-3.04c-.23-2.85-1.37-5.85-3.77-7.26-.39-5.23-6.11-12.36-10.05-14.7-.64-.38-1.8-.87-2.84-1.3-.37-.19,3.23-2.05,3.23-2.05,2.4.32,4.99.8,6.17-.55Z"/>
      <path class="cls-1" d="M345.01,151.72c.93,3.77,3.69,11.21,7.94,12.91-.71,2.09-7.7,4.54-7.32,4.75l-3.05-1.69-2.66,3.73-3.41-3.03c-.51-.45-1.59,1.99-2.14,2.98l-3.37-2.78-.99-2.09-1.18-5.02.24-3.69.92-1.08c1.51,2.46,4.41,5.02,7.13,7.13-.31-5.91-4.17-8.78-5.86-13.13l.63-.95c1.99,2.31,5.68,4.87,7.07,7.66,1.67,3.35,3.08,6.54,6.65,9.28.45-4.21-.68-7.73-3.54-10.26-1.79-3.4-4.12-6.52-7.02-9.99l1.98-.9,4.92,4.36c.65.58,2.24,1.46,3.05,1.81Z"/>
      <path class="cls-7" d="M456.71,164.69l-2.09,5.74-4.1-.71c-.96-.17-2.72.92-3.88,1.5l-3.71,1.75c-.14.73-1.81,1.4-2.41,1.8-2.18-.78-3.7-2.77-4.58-5.04-1.79-4.65-4.68-1.02-7.22-5.23.7-.49,6.08-4.39,8.24-4.8s8.66-.71,8.66-.71c2.16,1.85,4.1,3.03,7.4,3.67,1.07.21,2.73,1.69,3.68,2.04Z"/>
      <path class="cls-9" d="M476.66,107.73l.99,3.59c1.47,1.19,3.3,2.32,5.57,3.01,2.74.84,7.16-.64,6.89-2.7l-3.46-4.8c-2.37-.25-4.72-.54-5.97-1.1.55-.31.24-2.44.91-2.45l3.21-.04c5.63-.07,12.35.93,13.97,6.69-3.4,1.53-7.32,3.7-7.07,7.62-1,.07-2.93,1.02-3.98,1.2l-4.81.82c-7.05,1.2-1.84-6.16-10.73-5.54-2.76.19-5.97-.49-5.7-3.07l6.27-7.29,3.9,4.06Z"/>
      <path class="cls-7" d="M420.57,95.89c.01.29.02.7.06.91l.6,3.1c.18.94,2.73.97,3.54,1.13-1.62,2-5.92,4.07-8.29,3.94-.33-.02-.98-.09-1.33-.13-6.18-3.18-4.69,2.37-9.34,2.1-.2-.38-3.7-1.27-3.7-1.27-2.98-.42-9.36-2.53-9.36-2.53.09-.43-.46-1-.82-1.31-.23-1.01.64-2.89,1.66-3.35,1.21-.54,3.57.12,5.43.56.88.21,20.45-2.89,21.54-3.14Z"/>
      <path class="cls-5" d="M244.78,241.53l.42,7.79-12.02,1.28,1.31,11.29c.1.86,1.19,2.94,1.93,2.94h4.04c.32,0,1.94-.79,2-.48l.39,1.87-1.19,1.56-6.46-1.76-.22,21.43.05,2.22c.01.57-1.18.51-1.91.56l-.91-16.85.04-9.15-.03-3.85-.17-17.02c0-.49-.12-1.47-.18-1.97.28.28,2.36,1.61,3.13,1.51l9.8-1.36Z"/>
      <path class="cls-8" d="M345.86,337.14c-1.71-1.94-6.7-4.9-4.46-8.89.95-1.6,5.5-.9,7.61-1.23,4.34-.67,8.42-1.71,12.09-2.86,2.41-.76,6.24-1.4,8.55-.65,1.41,6.86-12.95,9.5-17.39,10.39-1.79.36-4.59,3.31-6.4,3.24Z"/>
      <path class="cls-3" d="M243.76,205.43c-.02,3.73-.1,8.23.3,11.87l-.37,3.63-10.38,1.39-.15-2.39c-.04-.55-1.56-.65-1.98-.63,0-.76-.08-2.11-.15-2.89.68-.3,2.65-1.68,2.34-2.54l-1.21-3.39-1.12-3.16c.06-1.58.04-4.33-.08-5.88.55,3.32,11.31,5.48,12.79,3.99Z"/>
      <path class="cls-9" d="M431.98,100.59s15.93,4.48,17.02,6.32c.34.92-2.02,3.26-3.14,2.82l-14.33,2.83c-2.11-.67-3.85-.83-4.71.05l-1.88.3-5.33-4.53c-.74-.11-2.35.09-2.49-.54l-.62-2.87c2.37.13,6.67-1.94,8.29-3.94s5.29-1.7,7.2-.45Z"/>
      <path class="cls-7" d="M498.77,109.93c.19.67,12.61,9.66,15.27,12.95.99.43,2.81,1.2,3.61,1.73l-.13,2.12c-1.26-.12-2.83,1.28-4.55,2.85-2.74-.77-8.04-4.34-9.84-6.73-.48-.64-4.8-3.45-4.8-3.45,0,0-4.86-1.13-6.64-1.85-.25-3.92,3.67-6.09,7.07-7.62Z"/>
      <path class="cls-7" d="M283.19,135.69l-.36,2.05c.48-2.71-5.15,5.86-8.18,5.13-2.06-.5-8.88-1.1-9.34-1.52l-1.45-1.31-6.35-4.27c-1.76-1.69-2.76-2.74-3.47-3.98,0,0,19.97-3.27,29.15,3.91Z"/>
      <path class="cls-6" d="M362.08,319.18c-.22,2.77,7.94,1.91,12.23,3.71,3.42,1.81,1.5,9.77-2.09,9.64-4.7-.17-8.9-.81-11.93,4.4,0,0-9.28,1.39-10.16,2.03-1.58,1.14-3.43-.89-4.26-1.83,1.81.07,4.61-2.88,6.4-3.24,4.45-.88,18.81-3.53,17.39-10.39-2.32-.75-6.14-.1-8.55.65l-6.19-2.92s4.8-1.41,7.17-2.06Z"/>
      <path class="cls-6" d="M487.74,173.39l-.14,4.06-12.16,2.9c-1.28.3-3.69,2.76-4.83,2.19-1.41-.7-3.7-2.01-4.24-2.5.25-2.23.3-3.31-.43-4.38,1.61-1.5,5.71-1.47,5.71-1.47l7.95-.87c3.16-.35,5.6-.6,8.13.07Z"/>
      <path class="cls-8" d="M245.2,249.31l.91,10c-2.42.63.59,6.72-3.26,6.91l-.39-1.87c-.07-.32-1.68.47-2,.47h-4.04c-.74.01-1.83-2.07-1.93-2.93l-1.31-11.29,12.02-1.28Z"/>
      <path class="cls-6" d="M464.69,110.61c.46.04,1.31.25,1.8.35-.27,2.58,2.94,3.26,5.7,3.07,8.9-.62,3.68,6.74,10.73,5.54,0,0-6.26,6.99-16.02-1.63l-8.33-6.21c1.57-.1,4.55-1.27,6.12-1.12Z"/>
      <path class="cls-9" d="M162.16,131.72c.02.45,4.94,4.66,5.7,5.73s3.21,1.95,4.53,2.18l.11,3.31c-1.32-.94-2.7-1.89-3.59-2.24-.85-.33-2.39,1.54-2.34,2.43s0,2.45-.56,2.69c-.64.27-1.8.49-2.2.02-.3-.35-1.31-2.57-1.64-2.22l-3.19,3.29c-.73.75-3.22-.06-4.6-.43-.56-.15-1.65-2.06-1.17-2.39l2.09-1.46c.59-.42,2.71-1.81,2.18-2.26l-2.09-1.76c.35-3.19,3.63-6.24,6.79-6.87Z"/>
      <path class="cls-8" d="M237.25,183.54c.74,2.77-6.21,2.5-5.67,4.44l.84,3.03,1.37,9.23,9.73-5.19c.43,4.33.27,7.02.25,10.39-1.48,1.49-12.24-.67-12.79-3.99l-.65-8.16c-.22-2.75-1.41-4.7-4.02-5.58l-1.84-1.85c5.23-1.45,9.06-3.54,12.79-2.32Z"/>
      <path class="cls-1" d="M562.42,270.15c.79.9,1.53,2.07,1.9,3.1-4.15,7.34-11.48,5.7-18.69,9.19-1.7-1.05-3.84-2.09-5.11-4.11-1.02-1.61,2.39-4.5,4.07-4.63l7.27-.55c3.17-.24,6.06-1.37,8.89-3.03l1.67.03Z"/>
      <path class="cls-6" d="M448.99,106.92c.5-.02,1.25-.04,1.69-.1l.09,4.72-3.88,1.53c1.09,5.24-5.93,3.32-5.93,3.32-2.15-1.07-3.8-3.7-7.02-2.78-2.75.78-5.3.47-7.14-1,.86-.87,2.6-.71,4.71-.05l14.33-2.83c1.13.45,3.48-1.89,3.14-2.82Z"/>
      <path class="cls-6" d="M405.82,106.94c-2.74,3.56,10.47.74,9.34-2.1.35.04.99.12,1.33.13l.62,2.87c.13.62,1.75.42,2.49.54l5.33,4.53c.3,1.84-7.58,2.6-8.86,2.42-.7-.1-1.67-2.37-2.37-2.31-2.69.25-8.81.73-10.82.71-1.45-2.33-2.17-3.47-3.02-4.37l2.26-3.7s3.51.89,3.7,1.27Z"/>
      <path class="cls-3" d="M246.25,302.1c.2.77.88,2.71.11,3.06,0,0-.28,3.48.1,4.56s-.87,3.21-1.15,4.31l-7.67.85c-1.45.16-3.24-.56-4.12-1.8l.36-5.9,1.08-3.3,11.28-1.79Z"/>
      <path class="cls-6" d="M326.96,331.33l1.08,5.45c-9,1.67-1.28,3.91-11.03,5.26.95-7.85-12.18-5.41-7.9-12.95l5.76,1.83,12.09.42Z"/>
      <path class="cls-9" d="M531.53,136.65c-2.19,2.01-12.52-1.32-14.51-3.48-.82-1.39-.1-4.89.52-6.44l.13-2.12,3.61,2.4c.71.47,3.83,4.84,5.59,5.93.76.19,2.81.01,3.16.71l1.51,3.01Z"/>
      <path class="cls-9" d="M450.53,169.72l1.15,4.44c-2.4.82-4.24,1.13-4.47,2.01-.18.71-.11,2.53-.37,3.23l-2.86,7.7-3.79-2.41c-.64-.41-1.92,1.25-3.14,1.8-.66-7.85,2.9-7.27,3.48-11.73.6-.4,2.26-1.07,2.41-1.8l3.71-1.75c1.17-.57,2.93-1.66,3.88-1.5Z"/>
      <path class="cls-9" d="M435.95,169.72c-7.1,4.92.19,10.95-3.72,16.46-5.41-1.66-7.52-6.27-6.45-10.7.16-.65.68-1.48.4-1.98l7.25-2.73c-2.93-2.23-6.04-3.39-5.47-6.18l.77-.1c2.54,4.21,5.43.58,7.22,5.23Z"/>
      <path class="cls-9" d="M446.84,91.73c.88,1.62.17,4.22.07,6.13l-1.32.53c-.41.17-4.64-1.55-4.64-1.55l-6.14-1.44-14.18,1.4c-.04-.22-.04-.63-.06-.91,1.85-.43,4.92-2.13,7.51-3.08.01-.12.17-1.32.15-1.14.66-.59,18.1-.86,18.6.06Z"/>
      <path class="cls-5" d="M203.24,118.53c1.56.72,8.82,13.82,2.56,14.21-6.64.42-9.88.17-28.26.41l-1.19.41-3.69-1.73s-2.46-2.88-3.24-5.38l3.68-2.5c6.76-1.87,29.82-5.57,30.14-5.43Z"/>
      <path class="cls-9" d="M507.81,162.44c-.28.64-1.74,7.65-2.39,7.26l-3.98,3.8-2.63.14c-.52-.33-2.12-1.35-1.62-1.03.61-2.3.66-2.84.6-4.09,0,0,5.66-9.6,6.04-10.9.16-.54.86-1.73,1.19-2.28.29-.48,2.03-.18,2.08.36l.71,6.74Z"/>
      <path class="cls-6" d="M388.74,182.13l3.38.48c1.94.28-.31,6.62,10.48,7.72.6,3.02-2.46,7.02-4.74,8.17l-8.39-5.13-2.18-8.21c-.16-.61-.46-2.23.07-2.46l1.38-.58Z"/>
      <path class="cls-7" d="M176.36,133.57l-3.97,6.05c-1.32-.23-3.76-1.11-4.53-2.18s-5.68-5.28-5.7-5.73c1.23-2.95,4.12-4.66,7.27-5.27.78,2.5,3.24,5.38,3.24,5.38l3.69,1.73Z"/>
      <path class="cls-8" d="M244.86,234.41l-.08,7.11-9.8,1.36c-.77.11-2.85-1.23-3.13-1.51-.33-1.44-.74-3.51-.72-4.92l2.18-1.09c3.86,0,7.73-.33,11.54-.95Z"/>
      <path class="cls-7" d="M507.67,150.39c1.34,1.45,2,3.19,2.19,5.04l.63,6.14-2.68.87-.71-6.74c-.06-.54-1.8-.85-2.08-.36-.33.55-1.03,1.74-1.19,2.28-2.49-.28-5.14-1.09-7.76-2.31l-2.42-1.12c-.55-.25.15-2.55.74-2.45l2.14.35c1.33.22,3.99.81,5.04.35.87-.39,1.68-1.68,2.21-2.64l3.89.59Z"/>
      <path class="cls-3" d="M244.77,228.2c-.14,1.76.12,4.37.09,6.21-3.81.63-7.69.95-11.54.95l-.2-2.33c-.05-.55-1.41-.62-1.93-.65v-1.99c.72-.42,1.7-1.24,2.28-1.89,3.73-.52,7.9-1.2,11.31-.3Z"/>
      <path class="cls-7" d="M480.69,105.73c1.26.56,3.61.85,5.97,1.1l3.46,4.8c.27,2.05-4.15,3.54-6.89,2.7-2.27-.7-4.11-1.83-5.57-3.01l-.99-3.59,4.02-2Z"/>
      <path class="cls-8" d="M245.31,314.04c-.46,1.81-1.35,4.97-2.2,6.98l-12.69,1.2,3.1-9.13c.88,1.24,2.67,1.96,4.12,1.8l7.67-.85Z"/>
      <path class="cls-6" d="M512.09,164.74l.35,8c-.65.37-3.59,1.27-4.73,1.03-1.94-.52-4.35-.82-6.27-.27l3.98-3.8c.65.39,2.11-6.62,2.39-7.26l2.68-.87c.64.71,1.55,2.23,1.59,3.17Z"/>
      <path class="cls-9" d="M457.6,103.31c1.88.38,4.52,1.08,6.36,1.32l.73,5.98c-1.57-.15-4.55,1.02-6.12,1.12-2.14.14-5.55-.08-7.79-.2l-.09-4.72,3.52.51c.88.4,1.71-5.29,3.4-4.02Z"/>
      <path class="cls-7" d="M519.76,155.31c-.63-.43-10.07-7.57-10.07-7.57.03-.36.08-.92.05-1.24,2.31-.37,4.67-1.04,6.81-1.94l1.28-.2c4.57-.7,1.93,10.95,1.93,10.95Z"/>
      <path class="cls-8" d="M244.77,228.2c-3.41-.9-7.57-.22-11.31.3-1.06-2.02-1.58-4.68-.15-6.18l10.38-1.39.37-3.63c.39,3.55,1.02,7.06.7,10.9Z"/>
      <path class="cls-9" d="M254.2,179.64l-.31-6.1c-3.78.41-6.31.49-8.61.87,1.82-1.99,1.66-3.42.74-7.21l12.76,2.77c-1.79,4-2.87,6.81-4.58,9.67Z"/>
      <path class="cls-7" d="M427.96,164.6c-.57,2.79,2.55,3.95,5.47,6.18l-7.25,2.73c.28.5-.24,1.33-.4,1.98-1.56-.58-3.49-1.35-4.46-2.26-2.84-2.65,2.21-7.41,2.16-7.94l4.48-.69Z"/>
      <path class="cls-8" d="M246.25,302.1l-11.28,1.79-1.08,3.3c-.51-2.69-.21-5.95-.36-8.81,1.46,1.72,3.37,1.55,5.72,1.11l6.93-1.29-.03-15.11c1.62-2.56,1.3,19.53.1,19.01Z"/>
      <path class="cls-7" d="M366.07,156.2c-.28.51-2.47.76-2.77-.06l-3.01-8.11c-2.06.1-4.7-5.35-4.11-6.47,3.29.37,11.41,11.69,9.89,14.63Z"/>
      <path class="cls-3" d="M534.66,105.57c.67,1.72,2.94,1.86,5.02,2.19l9.89,11.02c.92,1.02,1.44,3.64,1.74,5.82-4.12-2.73-3.09-7.11-7.73-6.93l-1.63-2.03c-.35-3.14-3.84-6.63-7.17-7.18-.72-.82-1.58-2.15-1.93-3.09.5.04,1.38.09,1.82.2Z"/>
      <path class="cls-3" d="M557.33,123.62l-.33,3.36-5.57-8.25c-3.05-4.52-6.05-10.05-11.76-10.97-.25-.28-.68-.93-1.03-1.04-1.09-8.02,18.53,12.69,18.68,16.9Z"/>
      <path class="cls-3" d="M528.67,105.92c.86,2.71,3.8,2.15,6.1,2.53.38,2.8,4.59,6.53,6.79,8.07.47.33,1.46.84,2.01,1.14l.85,5.57c-7.36-6-13.48-14.68-17.84-10.54.03-.3.09-.75.09-.99l.08-2.99.07-2.85,1.85.06Z"/>
      <path class="cls-9" d="M518.41,159.48c1.65,1.93-1.29,7.07-3.69,7.04l-2.63-1.78c-.04-.94-.95-2.46-1.59-3.17l-.63-6.14c2.81.86,6.22,2.21,8.55,4.05Z"/>
      <path class="cls-9" d="M509.54,144.39l.2,2.12c.03.31-.02.88-.05,1.24l-2.01,2.65-3.89-.59c-3.18.1-3-3.95-3-3.95l8.76-1.46Z"/>
      <path class="cls-6" d="M469.69,155.67l3.46,3.64c.66.69,1.27,2.52,1.16,3.36-.82,6.33-6.92-4.17-9.71-3.32,0-1.15.38-3.47,1.08-4.32s3.05.1,4,.65Z"/>
      <path class="cls-6" d="M495.81,167.53l1.98.99c.07,1.25.02,1.79-.6,4.09-.5-.32,1.09.69,1.62,1.03l-2.52,3.51c-.45.62-3.05.64-3.35-.05l-1.15-2.63,2.03-.58,2-6.35Z"/>
      <path class="cls-8" d="M568.33,271.44l1.13,5.64c-1.88,2.94-5.89,1.87-8.7,2.58-5.52,1.4-10.14,5.86-15.12,2.79,7.22-3.49,14.54-1.85,18.69-9.19.86-.44,1.96-1.18,2.61-1.81h1.39Z"/>
      <path class="cls-9" d="M492.55,160.86c-5.28-.18-1.37-.59-6.89-2.94-1.2-.51-2.98-1.46-4.77-2.48l5.96-2.87c2.98,5.17,7.25,4.95,6.58,6.4l-.88,1.9Z"/>
      <path class="cls-7" d="M472.76,103.67l-6.27,7.29c-.49-.11-1.34-.31-1.8-.35l-.73-5.98c2.81.36,6.26-.18,8.8-.96Z"/>
      <path class="cls-5" d="M524.66,111.64c.3-.04.66-.13.87-.1l1.15.16c0,.24-.06.69-.09.99l7.22,10.14c-6.43-4.54-10.52-9.91-16.73-13.02l.04-.79c2.77-.71,5.02.87,7.55,2.62Z"/>
      <path class="cls-6" d="M560.76,270.12c-2.84,1.67-5.73,2.79-8.89,3.03.09-.41.5-1.48.1-1.53l-2.35-.3-2.97-.39c-.39-.05,0-1.17-.02-1.56,4.47.23,9.63.72,13.07-2.02l1.07,2.76Z"/>
      <path class="cls-9" d="M402.11,105.67l-2.26,3.7c-7.09,1.62-9.82-4.22-9.42-4.92l1.51-2.62c.35.31.9.88.82,1.31,0,0,6.38,2.11,9.36,2.53Z"/>
      <path class="cls-7" d="M492.55,160.86l.38,2.62c-3,2.65-5.34-.03-7.19-.91l-.08-4.66c5.52,2.36,1.62,2.77,6.89,2.94Z"/>
      <path class="cls-7" d="M457.6,103.31c-.57.96-2.52,4.42-3.4,4.02,0,0-4.09.2-5.21-.42l-17.02-6.32,9.81-2.87,10.78,4.43s5.61.2,5.04,1.16Z"/>
      <path class="cls-6" d="M516.55,144.56c-2.15.91-4.51,1.58-6.81,1.94l-.2-2.12c1.47-2.55,4.88-1.77,7.01.17Z"/>
      <path class="cls-7" d="M446.91,97.86l2.85,3.67c-1.23-.21-2.82-.75-4.01-1.46l-3.97-2.35-.84-.88,5.96,1.02Z"/>
      <path class="cls-7" d="M532.83,105.37c.35.94,1.21,2.26,1.93,3.09-2.3-.38-5.24.18-6.1-2.53,1.39-.75,3.48-1.69,4.16-.55Z"/>
      <path class="cls-7" d="M541.94,115.64l-.38.89c-2.2-1.54-6.41-5.27-6.79-8.07,3.33.55,6.82,4.05,7.17,7.18Z"/>
      <path class="cls-7" d="M526.82,105.87l-.07,2.85c-.45.71-.95,1.89-1.23,2.83-.21-.03-.57.05-.87.1l-1.07-4.11c.68-.72,2.26-1.69,3.23-1.66Z"/>
      <path class="cls-1" d="M523.59,107.53l1.07,4.11c-2.53-1.74-4.78-3.33-7.55-2.62.01-.55.03-1.28.03-1.25l6.46-.24Z"/>
      <path class="cls-6" d="M566.93,271.45c-.65.63-1.75,1.37-2.61,1.81-.37-1.03-1.11-2.21-1.9-3.1,1.31-1.04,3.38-.07,4.51,1.29Z"/>
      <path class="cls-8" d="M243.22,182.47l-1.64,2.8c-.38.65-2.15-1.21-2.34-1.8,1.13-.38,2.74-.82,3.97-1.01Z"/>
      <path class="cls-7" d="M551.43,118.73l-1.87.05-9.89-11.02c5.7.92,8.7,6.45,11.76,10.97Z"/>
      <path class="cls-7" d="M538.64,106.72c.35.11.78.76,1.03,1.04-2.07-.33-4.34-.47-5.02-2.19,1.16.3,2.88.79,3.99,1.15Z"/>
      <path class="cls-6" d="M116.56,311.77l3.3,1.69c.61.31,2.8.54,3.15-.05l1.31-2.19c3.56.06,9.33-.35,12.74-.73.8-.09,2.52,2.15,2.09,2.83l-1.73,2.7c-.59.03-1.7.08-2.27.13l-13.16,1.29.04,6.72-6.48-.85c-.17,4.99,12.73,1.16,7.29,7.68-.65.77-3.23-.94-4.23-1.5l-16.11-.19-1.25,5.95-1.63.14c-4.49-2.09-9.54-3.72-14.38-3.19-.18-.25-.49-.75-.68-1.05.98-2.68.76-5.34-.79-7.86l1.83-3.04,1.76-.1c-.07.08.73.79,1.08.72l3.79-.77c.57-.12,2.4-.22,2.25-.81l-1.12-4.28,1.3-3.69c3.16,2.01,13.87,2.18,16.22-.66l5.68,1.09Z"/>
      <path class="cls-7" d="M137.43,331.03l10.9,3.94c2.01.73,4.73,2.36,6.8,2.99-7.84,2.65-17.16,1.09-24.77-2.12.71-4.21,3.93-1.7,4.84-4.63l2.22-.19Z"/>
      <path class="cls-2" d="M137.42,316.03l14.07,3.38-.08,3.95-2.94.06-9.3-.29c-1.37-.02-3.65-.61-3.72-1.76l-.3-5.21c.57-.06,1.68-.1,2.27-.13Z"/>
      <path class="cls-6" d="M148.47,323.42c.21-.02-.97,1.05-1.46,1.33l-6.41,3.67c-1.32.76-2.77,1.76-3.16,2.61l-2.22.19-8.65.06,7.92-4.09c2.53-.03,4.48-1.65,4.69-4.06l9.3.29Z"/>
      <path class="cls-1" d="M135.21,331.22c-.91,2.93-4.13.42-4.84,4.63-2.28.1-5.29-.18-7.26-.81l3.45-3.76,8.65-.06Z"/>
      <path class="cls-3" d="M145.27,352.31c-1.27-.15-2.63-1.06-3.19-2.18-.33-.48,2.39-1.22,2.55-.53l.63,2.71Z"/>
      <path class="cls-3" d="M138.41,350.95l-2.99,1.17c-.13-.52.6-2.57,1.22-2.21l1.77,1.05Z"/>
      <path class="cls-3" d="M134.4,353.13c0,.16.07,1.26-.24,1.37l-1.74.62c.07-.3.23-1.01.25-1.38.02-.5,1.27-.55,1.73-.61Z"/>
      <path class="cls-2" d="M191.17,192.64l7.97,1.87-.81,11.86.89,4.06c-.32,1.25-.23,2.66-.08,3.97.13,2.72.24,5.81.94,8.01-.06.45.07,1.34.12,1.83l-1.01,1.06.44,38.04.97,26.88c.31,8.58-.49,14.45.08,18.07l.45,2.85c.05.32-.03.97,0,1.3l.42,4.8c-.02.46-.07,1.39-.2,1.83-.74,2.62-2.56,7.73-3.95,10.23l-6.4,1.78,5.37,2.32c.69.3.83,1.99.7,2.82-3.55,1.38-6.92,3.25-10.62,4l-2.72-1.39c-.66-.34-1.59,1.55-1.54,2.18l-2.98-.23.12-5.7.22-1.77c.5-.07,1.59-.37,1.58-.89,0-.6-.08-1.78-.05-2.31l.18-2.91c.4-.39.95-2.24.78-3.08l-.82-3.89.88-2.19-.89-4.96.17-9.72.08-2.09c.24-.29.62-.58.51-.81l-.6-1.26c-.09-1.45-.33-3.74-.29-5.1l.32-10.83c.01-.38-.35-1.95-.71-1.99s-.81-.05-1.28-.07c1.15-8.17.98-26.41.05-34.87v-8.07s-.37-5.92-.37-5.92v-6.85s.09-5.02.09-5.02c.07-3.51.09-7.15-1-10.17l-.09-6.84c-.02-1.52-2.94-6.76-2.94-6.76.65-.12,2.34-2.13,2.28-2.27,4.13.02,9.67-2.76,13.77-1.8Z"/>
      <path class="cls-2" d="M226.3,187.71c2.62.88,3.81,2.83,4.02,5.58l.65,8.16c.12,1.56.14,4.3.08,5.88-.03.88-.67,2.48-.59,3.36l.57,5.73c.07.78.15,2.14.15,2.89v8.1c-1.43,1.25-1.43,4.74,0,5.98l-.04,3.08c-.02,1.41.38,3.49.72,4.92.06.5.18,1.48.18,1.97l-.89.96.03,15.08,1.03.99.03,3.85c-1.61,2.48-1.58,6.64-.04,9.15l.91,16.85.42,8.15c.15,2.86-.15,6.11.36,8.81l-.36,5.9-3.1,9.13c-.57,1.68-2.49,4.67-4.29,4.61-5.41-.17-14.14.73-12.97-1.75l1.18-7.74c.17-1.14.1-2.89-.05-4.06l.52-1.99c.08-.32-.13-.98-.11-1.3.14-1.7.48-5.03.5-6.79.17-14.1-.84-18.9-.95-31-.09-9.43-.93-14.33-.98-20.78l-.06-7.12-.22-7.75c-.06-1.94-.3-4.47-.24-6.34.23-7.54.69-15.51-.18-23.38.04.32-2.05-12.33-1.15-12.23-.33-.04-.79-.13-1.18-.21l-.17-.69c.09-.25-.99-1.81-1.36-1.43l-1.39,1.43c-.22,0-.63.08-.91.13l-5.08.9-1.28-.23c-.36-1.01,1.25-3.84,2.46-3.88,2.87-.09,5.16.04,7.52.29l1.22-2.47c4.97-.29,10.02-2.41,15.04-.73Z"/>
      <path class="cls-8" d="M213.17,325.08l-11.73,3.46c-.78,1.02-4.06.76-4.06.76,1.39-2.5,3.21-7.61,3.95-10.23l13.03-1.73-1.18,7.74Z"/>
      <path class="cls-8" d="M542.75,290.59c-1.72.33-3.51,1.08-5.15,1.9l-1.67-2.21,1.52-9.49,7.03,7.62-1.73,2.18Z"/>
      <path class="cls-3" d="M181.19,313.09l.89,4.96c-4.5.52-9.65-.99-13.86,3.61l12.98-1.42.82,3.89c-.28.64-.73,2.26-.78,3.08l-.18,2.91-1.87,1.85-8.5,1.57c-.78.14-2.06,1.24-2.4,1.82-.09.15-.18.51-.26.66l-1.88-1.98.99-3.7c1.34-2.54,4.15-7.52.22-8.36l-.4-6.71.56-3.01c4.66,1.75,6.17-1.14,13.68.84Z"/>
      <path class="cls-8" d="M179.19,331.97l.34,1.35-.22,1.77-7.2,3.92-1.16-3.02c-.26-.68-1.96-.65-2.67-.63.34-.58,1.63-1.67,2.4-1.82l8.5-1.57Z"/>
      <path class="cls-6" d="M232.18,343.09c-1.78,1.36-3.13,3.02-2.99,4.99-1.66.06-2.53-2.01-1.7-3.25.94-1.4,3.09-1.96,4.69-1.74Z"/>
      <path class="cls-6" d="M186.42,340.22c-1.11.23-3.14.88-4.26.8-.05-.63.87-2.52,1.54-2.18l2.72,1.39Z"/>
      <path class="cls-9" d="M355.68,85.48c-2.81-.27-73.94,28.68-73.97,30.14l-1.73,4.1c-.2.02-.54.04-.73.03l-14.95-.86-18.89-.44c-.87-4.12-6.66-3.53-6.83-4.76l-.44-3.13c1.37-.03-1.36-10.09,5.54-14.56s42.48-17.89,56.41-19.8,55.59,9.27,55.59,9.27Z"/>
      <path class="cls-9" d="M220.04,66.67c-1.91-.58-5.11-1.7-6.74-.95,0,0-11.32-1.5-11.4-1.71-2.73-.36-12.33-17.77-12.33-17.77,0,0,31.36-12.12,31.48-13.5,1.14.49.75,32.81-1.01,33.93Z"/>
      <path class="cls-9" d="M132.21,159.73c-5.06,14.02-.71,11.99-5.44,25.22-.35.99-.55,3.51.06,4.28.49.62,1.78,1.61,2.56,1.55l-.2.93c.15.06-1.63.56-2.24.43l-38.4-7.84,3.09-6.78c1.82-3.98-2.81-11.39-4.22-15.14l4.04.35c.47,3.93,11.65,11.8,14.68,18.45l5.72,1.25c1.61-2.01,3.79-3.21,5.13-4.6,1.85-1.91,11.35-17.45,11.35-17.45l3.85-.66Z"/>
      <path class="cls-3" d="M86.24,152.44l1.33-.64-1.33.64Z"/>
      <path class="cls-7" d="M128.36,160.39s-9.5,15.54-11.35,17.45c-1.34,1.39-3.52,2.59-5.13,4.6l-5.72-1.25c-3.03-6.65-14.21-14.53-14.68-18.45,12.32,1.07,24.67-.25,36.88-2.35Z"/>
      <path class="cls-4" d="M86.56,70.02c-1.64-4.96,5.32-4.93,6.98-6.92,3.28-3.94,6.24-6.8,11.94-5.79,4.98.89,9.46,1.06,14.03,5.23,0,0-31.96,10.46-32.95,7.47Z"/>
      <path class="cls-4" d="M96.34,82.44c3.22-4.42,8.54-7.71,14.02-9.19-3.1,5.24-6.95,9.77-14.02,9.19Z"/>
      <path class="cls-6" d="M66.57,187.48c.21,1.68.52,3.45.91,5.03l-.09,20.83-.96,1.2.04,10.86c0,.85.61,2.63.93,3.08l.2,32.91c-.18.77-.26,2.16-.36,2.95s1.54,2.03,2.11,2.12l.19,18.89c-2.5,4.3,1.39,18.58,8.95,21.98l-7.01,3.96c-1.52-.88-6.16-8.24-6.37-8.27l-4.71-10.43c-.91-2.02-2.62-12.82-2.92-16.14l-1.12-12.16c-.31-3.32-.38-6.71-.75-9.97-.68-6.09-.21-11.35-.23-17.03l-.11-37.8-1.89-13.7,13.19,1.69Z"/>
      <path class="cls-2" d="M99.25,244.47l.12,8.77c-1.38,2.19-1.38,5.96,0,8.15l.19,14.72c-.34.37-1.31,1.17-1.06,1.63l1.22,2.25,4.34,11.59c.61,1.64,2.95,4.62,4.06,5.83l3.19,3.49c-2.76-.19-6.4.05-7.86,2.21l-4-1.79-.16-1.99c.05,0-1.04-2.14-1.04-2.14-.31-.44-.86-1.33-1.11-1.85l-6.83-14.04c-.27-.55-1.79-1.81-1.99-1.84-.23-.92-.75-2.55-.77-4.97l-.21-39.26c0-.73.41-2.24.46-3s-1.32-1.43-2.03-1.74l-.23-38.62,8.98,1.2c.96.13,2.79,2.02,3.07,2.53l-.08,3.92"/>
      <path class="cls-3" d="M147.33,191.49c1.2,2.24,1.93,4.64,1.96,7.09-1.1.02-2.98,1.24-3.92,1.79-5.41.15-10.99.59-16.11-.76l-.05-7.88.2-.93c4.47-.36,13.3,1.6,17.93.7Z"/>
      <path class="cls-3" d="M81.37,191.29l-7.95.34c-2.19.09-4.3.43-5.93.88-.4-1.58-.7-3.35-.91-5.03,4.97.64,11.03.48,14.8,3.81Z"/>
      <path class="cls-1" d="M47.45,185.31l-12.75.21c-.29,0-.84-.09-1.21-.15.24-.95.19-2.88.21-3.92l10.2,1.89c1.3.24,3.32,1.19,3.55,1.97Z"/>
      <path class="cls-3" d="M104.4,106.72c-.56,1.61-1.01,5.15-2.86,5.09.1-1.53.96-3.76,1.67-5.19l1.19.1Z"/>
      <path class="cls-4" d="M34.7,185.51c-.18,7.07-1.14,14.34-.03,21.71l.67,4.4-1.8-1.55c-1.14-6.55-1.57-18.71-.05-24.72.37.05.91.15,1.21.15Z"/>
      <path class="cls-3" d="M35.46,231.47c-1.24-1.44-1.24-4.72,0-6.16v6.16Z"/>
      <path class="cls-5" d="M23.49,218.62l-1.12-3.1c.14-.02,2.5-.09,2.28.41l-1.16,2.69Z"/>
      <path class="cls-3" d="M93.21,309.33c.33.56.92,1.68,1.45,2.01l-1.3,3.69c-.57,1.53-.95,3.36-1.13,5.09l-3.79.77c-.17-.2-.73-.74-1.08-.72l-1.76.1c-3.18-2.92-7.94-3.88-12.23-2.36-.06-.3-.16-.67-.14-.91l.16-2.6,13.91,1.15c1.37.11,3.19.44,4.06.08s1.11-3.47.7-3.44c-3.55-.29-6.09-.54-7.54-2.17l-.07-.82c1.96,1.48,6.67,1.05,8.77.13Z"/>
      <path class="cls-6" d="M45.62,313.88c.07,2.3-1.71,3.83-4.02,4.18l-3.14-.86c-.16-.04-.51-.09-.69-.13,0,0,5.88-4.22,7.85-3.19Z"/>
      <path class="cls-7" d="M73.46,328.01l-1.06.39c-2.92-.71-6-1.1-8.88-1.17,0,0,4.13-.88,9.94.77Z"/>
      <polygon class="cls-5" points="61.76 331.15 60.44 331.2 61.76 330.08 61.76 331.15"/>
      <path class="cls-8" d="M99.61,335.41l-.76,2.68c-.73,2.56-10.42-1.36-13.62-5.87,4.85-.53,9.89,1.1,14.38,3.19Z"/>
      <path class="cls-4" d="M50.78,313.91c-2.54-.02-5.47-3.18-6.29-5.63,2.09.76,5.14,3.82,6.29,5.63Z"/>
      <path class="cls-4" d="M52.52,316.3l-1.24-1.3,1.24,1.3Z"/>
      <path class="cls-3" d="M540.42,124.97c.12.55-2.6.84-2.72.29l-.69-3.08-7.6-9.05c2.34-2.01,10.51,9.43,11.01,11.84Z"/>
      <path class="cls-8" d="M354.55,206.19c.03.58-.6,2.65-1.03,2.43l-2.26-1.16-.21-15.42c2.16,2.12,2.61,3.02,3.07,4.35l.43,9.8Z"/>
      <path class="cls-7" d="M323.06,134.46c.64.84,1.57,2.42,1.73,3.39l-2.97-.05c-3.25,1.64-6.46,2.65-9.75,2.67.3-.86.46-3.82,1.3-3.46,0,0,7.71-4.15,9.69-2.55Z"/>
      <path class="cls-3" d="M356.2,157.22l-1.28.3-1.91-.96c-1.33-3.58-4.01-6.97-6.75-9.79l-1.48-2.85c-.25-.49.77-1.11,1.36-1.4,3.93,2.34,9.66,9.47,10.05,14.7Z"/>
      <path class="cls-3" d="M333.99,138.88c5.23,4.19,9.34,6.02,11.02,12.83-.81-.35-2.39-1.23-3.05-1.81l-4.92-4.36-5.7-5.98c.68.01,1.98-.48,2.65-.69Z"/>
      <path class="cls-9" d="M324.79,137.85c.07.39.08,1.16.1,1.59-1.63-.03-3.75,3.14-5.04,4.26l-2.11-.76c-.4-.14-.91,1.33-.99,1.47l-2.54-.26c-.97-.04-2.38-.27-3.26-.49l1.12-3.19c3.29-.01,6.49-1.03,9.75-2.67l2.97.05Z"/>
      <path class="cls-6" d="M333.99,138.88c-.67.21-1.98.71-2.65.69l-6.44-.13c-.02-.44-.03-1.2-.1-1.59-.16-.97-1.09-2.56-1.73-3.39l2.58-1.41,2.24,1.8c.41.33,1.31-.26,2-.49,1.14,1.29,2.91,3.56,4.12,4.52Z"/>
      <path class="cls-1" d="M353.02,156.56l-1.26.31c-1.91-.86-2.45-3.22-3.46-5.65-.58-1.41-4.16-3.01-2.03-4.45,2.74,2.82,5.42,6.21,6.75,9.79Z"/>
      <path class="cls-7" d="M217.07,131.97l-3.1.39"/>
      <path class="cls-6" d="M158.23,198.38l6.75,1.54.38,6.46c.07,1.15,0,2.91-.03,4.14-1.45,2.34-1.22,5.59.06,8.01l-.31,7.64c-.2,4.8.15,8.87.17,13.94l.05,14.21.14,1,.02,2.99.03,1v1.99s-.18,13.96-.18,13.96h-1.34s-1.67-5.26-1.67-5.26c-.66-2.09-2.98-12.51-2.98-12.51,0,0-1.92-6.82-2.12-8.02-.68-3.99-7.78-27.69-7.81-27.89-.28-1.89-1.22-5.55-1.93-7.32l-.35-4.9c-.13-1.8-.63-3.61-1.75-4.88-.05-.51-.16-1.41-.13-1.88l.15-2.24c.95-.55,2.82-1.76,3.92-1.79l8.94-.2Z"/>
      <path class="cls-8" d="M177.4,194.44c.06.14.64,7.51.66,9.03-6.04,4.23-8.9.39-12.69,2.91l-.38-6.46-6.75-1.54c5.85-3.49,12.57-5.21,19.17-3.94Z"/>
      <path class="cls-8" d="M211.26,188.43l-1.22,2.47c-2.36-.26-4.65-.39-7.52-.29-1.21.04-2.82,2.87-2.46,3.88l-.92.03-7.97-1.87c6.24-3.66,13.1-3.8,20.1-4.21Z"/>
      <path class="cls-1" d="M359.97,164.48c-.26.33-2.83.67-3.27.04-1.04-1.46-1.91-5.27-1.77-7.01l1.28-.3c2.39,1.42,3.54,4.41,3.77,7.26Z"/>
      <path class="cls-1" d="M353.2,163.56l-.08-1.45c.52-.12,1.02-.27.85.02-.21.38-.83,1.52-.78,1.43Z"/>
      <path class="cls-2" d="M519.76,155.31l-1.35,4.16c-2.33-1.84-5.74-3.19-8.55-4.05-.19-1.85-.85-3.59-2.19-5.04l2.01-2.65s9.45,7.14,10.07,7.57Z"/>
      <path class="cls-3" d="M316.76,144.41c4.39,4.26,8.52,8.59,12.31,13.38l-.24,3.69c-4.52-3.52-8.08-8.15-11.6-13.09l-3.02-4.24,2.54.26Z"/>
      <path class="cls-7" d="M331.34,139.57l5.7,5.98-1.98.9c-1.72-1.29-3.47-1.92-6.19-1.96,1.01,2.08,1.76,3.79,3.03,5.27l-.63.95-6.08-4.9c-.32-.26-2.32-.3-2.73-.26-.62.07-.42,1.17-.37,2.03-1.01-.73-1.92-2.58-2.22-3.87,1.29-1.12,3.4-4.3,5.04-4.26l6.44.13Z"/>
      <path class="cls-3" d="M331.27,150.71c1.69,4.35,5.55,7.22,5.86,13.13-2.72-2.1-5.62-4.66-7.13-7.13-2.12-3.46-4.5-6.67-7.91-9.14-.05-.86-.24-1.96.37-2.03.41-.05,2.41,0,2.73.26l6.08,4.9Z"/>
      <path class="cls-3" d="M335.06,146.45c2.9,3.47,5.23,6.59,7.02,9.99-.82.42-2.08.81-3.11.98-1.39-2.79-5.08-5.35-7.07-7.66-1.28-1.48-2.02-3.2-3.03-5.27,2.72.04,4.47.67,6.19,1.96Z"/>
      <path class="cls-5" d="M338.97,157.42c1.03-.18,2.29-.56,3.11-.98,2.86,2.53,3.99,6.06,3.54,10.26-3.57-2.74-4.98-5.93-6.65-9.28Z"/>
      <path class="cls-5" d="M319.86,143.7c.3,1.29,1.21,3.14,2.22,3.87,3.41,2.47,5.79,5.68,7.91,9.14l-.92,1.08c-3.79-4.79-7.92-9.12-12.31-13.38.08-.15.59-1.62.99-1.47l2.11.76Z"/>
      <path class="cls-6" d="M440.95,96.84l.84.88c-1.34,1.25-4.94,2.55-6.78,2.85l-1.37.03h-1.66c-1.91-1.26-5.59-1.56-7.2.44-.81-.17-3.36-.2-3.54-1.13l-.6-3.1s10.83-1.66,14.18-1.4,6.14,1.44,6.14,1.44Z"/>
      <path class="cls-9" d="M415.16,104.84c1.13,2.84-12.08,5.66-9.34,2.1,4.65.27,3.16-5.29,9.34-2.1Z"/>
      <polygon class="cls-8" points="232.21 260.38 231.18 259.39 231.15 244.31 232.04 243.35 232.21 260.38"/>
      <path class="cls-8" d="M232.2,273.38c-1.54-2.51-1.57-6.68.04-9.15l-.04,9.15Z"/>
      <path class="cls-5" d="M233.31,222.32c-1.43,1.5-.91,4.16.15,6.18-.57.64-1.56,1.47-2.28,1.89v-11.09c.42-.02,1.94.08,1.98.63l.15,2.39Z"/>
      <path class="cls-5" d="M232.16,210.48l1.21,3.39c.31.86-1.66,2.24-2.34,2.54l-.57-5.73,1.7-.2Z"/>
      <path class="cls-8" d="M232.16,210.48l-1.7.2c-.09-.88.55-2.47.59-3.36l1.12,3.16Z"/>
      <path class="cls-5" d="M233.32,235.36l-2.18,1.09.04-3.08v-1c.52.04,1.88.11,1.93.65l.2,2.33Z"/>
      <path class="cls-8" d="M231.18,230.39v2.99c-1.43-1.25-1.43-4.74,0-5.98v2.99Z"/>
      <path class="cls-1" d="M526.67,111.7l-1.15-.16c.28-.94.77-2.13,1.23-2.83l-.08,2.99Z"/>
      <path class="cls-8" d="M111.29,300.91c1.1,1.2,3.6,1.85,5.14,1.99l6.15,2.14,17.95,4.01c.7,0,26.43,6.21,26.43,6.21l.4,6.71-.86,2.04-11.12-3.38c-.41-.12-1.69-2.12-2.09-1.96l-1.8.74-14.07-3.38,1.73-2.7c.43-.68-1.29-2.91-2.09-2.83-3.42.38-9.18.79-12.74.73-1.66-1.8-4.5-2.34-7.04-2.07l-13.86-6.04c1.46-2.16,5.1-2.4,7.86-2.21Z"/>
      <path class="cls-7" d="M103.43,303.13l13.86,6.04-.73,2.61-5.68-1.09c-2.35,2.84-13.06,2.67-16.22.66-.53-.34-1.12-1.45-1.45-2.01,1.59-2.9,3.9-5.48,6.22-8l4,1.79Z"/>
      <path class="cls-5" d="M124.32,311.23l-1.31,2.19c-.35.59-2.55.36-3.15.05l-3.3-1.69.73-2.61c2.54-.28,5.38.27,7.04,2.07Z"/>
      <path class="cls-8" d="M92.23,320.13c.18-1.73.55-3.55,1.13-5.09l1.12,4.28c.15.59-1.67.69-2.25.81Z"/>
      <path class="cls-8" d="M88.43,320.89c-.35.07-1.15-.63-1.08-.72.35-.02.92.51,1.08.72Z"/>
      <path class="cls-8" d="M151.41,323.35c-.01.74.17,2.25.34,3.57l15.38,3.4-.99,3.7c-.19.72-1.18,1.8-1.74,2.29-.7.61-3.38-1.1-4.43-1.12l-11.63-.22-10.9-3.94c.39-.85,1.83-1.86,3.16-2.61l6.41-3.67c.49-.28,1.67-1.35,1.46-1.33l2.94-.06Z"/>
      <path class="cls-5" d="M167.35,321.97c3.93.84,1.12,5.82-.22,8.36l-15.38-3.4c-.17-1.32-.35-2.83-.34-3.57l.08-3.95,1.8-.74c.4-.16,1.68,1.83,2.09,1.96l11.12,3.38.86-2.04Z"/>
      <path class="cls-3" d="M179.39,281.22c-.13.94-.48,3.64-1.46,3.86-2.33.52-7.41,1-9.87,1.08.14-2.35-1.62-6.86-2.55-8.98,6.39.15.64-16.29,3.63-20.9,13.38-4.57,6.82-4.64,10.31-9.93.93,8.47,1.1,26.71-.05,34.87Z"/>
      <path class="cls-8" d="M206.42,193.82c1.55,2.24-6.32,6.88-3.01,8.68,2.56,1.4,6.9.1,6.79-.58l-.5-3.2c-.23-1.49-.1-3.47.54-4.34.39.07.85.17,1.18.21-.9-.1,1.19,12.55,1.15,12.23.87,7.87.41,15.84.18,23.38l-11.28.33c-.59-1.92-1.09-4.2-1.29-6.29l11.85-.23v-7.52s-11.46,1.99-11.46,1.99c.14-1.12-.73-3.37-1.44-4.09-.14-1.3-.24-2.72.08-3.97l1.64-.66c.33-.13.32-1.77.32-2.19l.16-12.86,5.08-.9Z"/>
      <path class="cls-5" d="M179.16,220.49l-.09,5.02-13.06.99c.1,3.38.59,5.17,2.36,5.94l-.03,6.98c-1.48,5.32-2.13,12.1.79,16.86-2.99,4.61,2.75,21.05-3.63,20.9-.25-.57-1.36-1.31-1.54-1.9h1.34c1.5,3.81,1.35-17.29.19-13.97v-1.99c-.19-.57-.46-4-.19-4.99l-.05-14.21c-.02-5.07-.36-9.14-.17-13.94l.31-7.64h9.13c1.81,0,3.68.65,4.63,1.96Z"/>
      <path class="cls-5" d="M201.47,230.53l-.03,6.98c-.01,2.51.36,4.6.71,6.87.48,3.12-.97,6.92.93,9.85-.41.74-1.09,2.88-1.09,3.86l.08,26.14c0,2.99.19,5.85,1.16,8.18-1.24,3.13-2.23,7.83.85,9.86-1.34,1.52-1.8,3.93-1.83,6.15l-1.6-.13c-.57-3.62.23-9.49-.08-18.07l-.97-26.88-.44-38.04,1.01-1.06c.2,2.1.7,4.37,1.29,6.29Z"/>
      <path class="cls-8" d="M179.44,246.34c-3.48,5.29,3.08,5.36-10.31,9.93-2.92-4.76-2.28-11.54-.79-16.86,3.71.15,7.64-.09,11.09-1.14v8.07Z"/>
      <path class="cls-3" d="M181.06,294.1c-.04,1.36.2,3.65.29,5.1l.09,2.08-.08,2.09-13.86.68.06-9.87,13.5-.08Z"/>
      <path class="cls-8" d="M181.36,303.37l-.17,9.72c-7.51-1.97-9.02.91-13.68-.84v-8.2s13.85-.68,13.85-.68Z"/>
      <path class="cls-8" d="M181.06,294.1l-13.5.08.49-8.03c2.46-.08,7.54-.57,9.87-1.08.99-.22,1.33-2.91,1.46-3.86.47.02.93.03,1.28.07s.72,1.61.71,1.99l-.32,10.83Z"/>
      <path class="cls-8" d="M178.15,210.32c1.1,3.02,1.07,6.67,1,10.17-.95-1.3-2.82-1.95-4.63-1.95h-9.13c-1.28-2.42-1.5-5.67-.06-8.01,1.96,2.21,5.42,2.08,8.97,1.88l3.16-.18c.57-.03.59-1.25.69-1.91Z"/>
      <path class="cls-5" d="M178.15,210.32c-.1.67-.12,1.88-.69,1.91l-3.16.18c-3.54.2-7,.33-8.97-1.88.03-1.22.09-2.99.03-4.14,3.8-2.52,6.65,1.32,12.69-2.91l.09,6.84Z"/>
      <path class="cls-8" d="M179.06,225.51v6.85s-10.7.08-10.7.08c-1.78-.76-2.26-2.56-2.36-5.94l13.06-.99Z"/>
      <path class="cls-3" d="M200.18,224.24c-.05-.49-.18-1.37-.12-1.83l.5-3.92,11.45-1.99v7.52s-11.83.23-11.83.23Z"/>
      <path class="cls-3" d="M179.06,232.35l.36,5.92c-3.45,1.05-7.38,1.28-11.09,1.14l.03-6.98,10.7-.08Z"/>
      <path class="cls-3" d="M214.36,317.34l-13.03,1.73c.13-.44.18-1.37.2-1.83.4-.61,2.34-2.22,3.36-2.39l9.41-1.57c.15,1.17.23,2.92.05,4.06Z"/>
      <path class="cls-7" d="M201.34,194.72l-.16,12.86c0,.42.01,2.06-.32,2.19l-1.64.66-.89-4.06.81-11.86.92-.03,1.28.23Z"/>
      <path class="cls-1" d="M214.82,311.29l-.52,1.99-9.41,1.57c-1.02.17-2.96,1.78-3.36,2.39l-.42-4.8c4.48.06,9.14-.59,13.71-1.15Z"/>
      <path class="cls-3" d="M214.71,309.99c-.03.33.19.99.11,1.3-4.57.57-9.23,1.22-13.71,1.15-.03-.32.06-.98,0-1.3.53-.26,1.46-.77,1.99-.95,2.8-.96,8.84-1.7,11.61-.21Z"/>
      <path class="cls-1" d="M182.07,318.05l-.88,2.19-12.98,1.42c4.21-4.6,9.36-3.09,13.86-3.61Z"/>
      <path class="cls-1" d="M202.26,308.42l.85,1.77c-.53.18-1.46.69-1.99.95l-.45-2.85,1.6.13Z"/>
      <path class="cls-5" d="M200.57,218.49l-.5,3.92c-.69-2.19-.8-5.28-.94-8.01.71.72,1.58,2.97,1.44,4.09Z"/>
      <path class="cls-6" d="M179.53,333.32l-.34-1.35,1.87-1.85c-.03.53.05,1.7.05,2.31,0,.52-1.08.82-1.58.89Z"/>
      <path class="cls-6" d="M181.24,327.22c.05-.82.49-2.44.78-3.08.18.84-.38,2.69-.78,3.08Z"/>
      <path class="cls-8" d="M181.44,301.28l-.09-2.08.6,1.26c.11.23-.27.52-.51.81Z"/>
      <path class="cls-8" d="M214.26,272.19c-1.77-3.1-.83,18.7-1.05,17.03l-.37,2.05c-.1.55-1.99.99-2.63,1l-6.98.14c-.97-2.33-1.15-5.19-1.16-8.18l-.08-26.14c0-.98.68-3.12,1.09-3.86,3.55-.57,6.91-1.43,10.19-2.82.05,6.45.89,11.35.98,20.78Z"/>
      <path class="cls-3" d="M213.22,244.29l.06,7.12c-3.29,1.39-6.64,2.25-10.19,2.82-1.91-2.93-.45-6.73-.93-9.85,3.71-.3,7.39-.38,11.07-.09Z"/>
      <path class="cls-8" d="M214.02,302.28l1.19.92c-.02,1.77-.36,5.1-.5,6.79-2.77-1.49-8.81-.75-11.61.21l-.85-1.77c.02-2.21.48-4.63,1.83-6.15h9.94Z"/>
      <path class="cls-8" d="M213.22,244.29c-3.68-.29-7.36-.21-11.07.09-.35-2.27-.72-4.37-.71-6.87,3.89-.07,7.86-.24,11.55-.97l.22,7.75Z"/>
      <path class="cls-3" d="M212.75,230.2c-.06,1.87.19,4.4.24,6.34-3.69.73-7.66.9-11.55.97l.03-6.98,11.28-.33Z"/>
      <path class="cls-5" d="M210.07,193.69l.17.69c-.64.86-.78,2.85-.54,4.34l.5,3.2c.11.68-4.23,1.98-6.79.58-3.31-1.81,4.56-6.44,3.01-8.68.28-.05.69-.13.91-.13h2.75Z"/>
      <path class="cls-5" d="M215.21,303.19l-1.19-.92c.45-4.49-.25-8.85-.81-13.06.22,1.67-.72-20.13,1.05-17.03.12,12.11,1.12,16.91.95,31Z"/>
      <path class="cls-8" d="M210.07,193.69h-2.75s1.39-1.43,1.39-1.43c.37-.38,1.45,1.18,1.36,1.43Z"/>
      <path class="cls-5" d="M116.42,302.9c-1.54-.14-4.04-.78-5.14-1.99l-3.19-3.49c-1.1-1.21-3.44-4.2-4.06-5.83l-4.34-11.59-1.22-2.25c-.25-.46.72-1.26,1.06-1.63,4.97,9.65,2.12,12.21,12.58,21.46,1.72,1.52,3.42,3.6,4.29,5.33Z"/>
      <path class="cls-5" d="M99.37,261.39c-1.39-2.19-1.39-5.96,0-8.15v8.15Z"/>
      <path class="cls-5" d="M84.44,309.2l.07.82-6.01-2.7c-7.56-3.39-11.45-17.68-8.95-21.98,3.93,9.52,5.76,16.97,14.89,23.85Z"/>
      <path class="cls-5" d="M97.12,295.37c-2.72.47-8.06-12.83-8.82-15.88.2.03,1.72,1.3,1.99,1.84l6.83,14.04Z"/>
      <polygon class="cls-3" points="67.47 225.4 66.47 225.4 66.43 214.54 67.39 213.35 67.47 225.4"/>
      <path class="cls-5" d="M69.36,266.46c-.58-.09-2.21-1.36-2.11-2.12s.18-2.19.36-2.95c1.19,1.29,1.73,3.22,1.75,5.07Z"/>
      <path class="cls-5" d="M87.32,235.26c-.75-1.2-1.57-3.31-1.57-4.74.71.31,2.08,1.02,2.03,1.74-.05.76-.46,2.27-.46,3Z"/>
      <path class="cls-5" d="M67.4,228.48c-.32-.45-.93-2.23-.93-3.08h1l-.07,3.08Z"/>
      <path class="cls-8" d="M84.51,310.03c1.45,1.63,3.99,1.88,7.54,2.17.41-.03.18,3.08-.7,3.44s-2.69.03-4.06-.08l-13.91-1.15-1.89-3.12,7.01-3.96,6.01,2.7Z"/>
      <path class="cls-8" d="M165.3,275.27l.19-13.96c1.15-3.32,1.31,17.78-.19,13.96Z"/>
      <path class="cls-3" d="M214.02,302.28h-9.94c-3.08-2.03-2.09-6.74-.85-9.87l6.98-.14c.64-.01,2.53-.45,2.63-1l.37-2.05c.56,4.21,1.25,8.57.81,13.06Z"/>
    </g>
  </g>
</svg>